G04 Layer: TopSilkLayer*
G04 Gerber Generator version 0.2*
G04 Scale: 100 percent, Rotated: No, Reflected: No *
G04 Dimensions in millimeters *
G04 leading zeros omitted , absolute positions ,4 integer and 5 decimal *
%FSLAX45Y45*%
%MOMM*%

%ADD10C,0.2540*%
%ADD21C,0.5000*%
%ADD22C,0.3000*%
%ADD23C,0.1524*%
%ADD24C,0.5080*%
%ADD25C,0.2032*%

%LPD*%
D25*
X5825489Y1779778D02*
G01*
X5751576Y1585976D01*
X5825489Y1779778D02*
G01*
X5899403Y1585976D01*
X5779262Y1650492D02*
G01*
X5871717Y1650492D01*
X6024880Y1779778D02*
G01*
X6024880Y1585976D01*
X5960364Y1779778D02*
G01*
X6089650Y1779778D01*
X6159753Y1733550D02*
G01*
X6159753Y1742947D01*
X6169151Y1761489D01*
X6178296Y1770634D01*
X6196837Y1779778D01*
X6233667Y1779778D01*
X6252210Y1770634D01*
X6261353Y1761489D01*
X6270751Y1742947D01*
X6270751Y1724405D01*
X6261353Y1705863D01*
X6243066Y1678178D01*
X6150610Y1585976D01*
X6279896Y1585976D01*
X6387084Y1779778D02*
G01*
X6359398Y1770634D01*
X6350000Y1752092D01*
X6350000Y1733550D01*
X6359398Y1715262D01*
X6377685Y1705863D01*
X6414769Y1696720D01*
X6442455Y1687576D01*
X6460998Y1669034D01*
X6470142Y1650492D01*
X6470142Y1622805D01*
X6460998Y1604263D01*
X6451600Y1595120D01*
X6423914Y1585976D01*
X6387084Y1585976D01*
X6359398Y1595120D01*
X6350000Y1604263D01*
X6340855Y1622805D01*
X6340855Y1650492D01*
X6350000Y1669034D01*
X6368542Y1687576D01*
X6396228Y1696720D01*
X6433312Y1705863D01*
X6451600Y1715262D01*
X6460998Y1733550D01*
X6460998Y1752092D01*
X6451600Y1770634D01*
X6423914Y1779778D01*
X6387084Y1779778D01*
X6669785Y1733550D02*
G01*
X6660387Y1752092D01*
X6641846Y1770634D01*
X6623558Y1779778D01*
X6586473Y1779778D01*
X6568185Y1770634D01*
X6549644Y1752092D01*
X6540246Y1733550D01*
X6531101Y1705863D01*
X6531101Y1659889D01*
X6540246Y1631950D01*
X6549644Y1613662D01*
X6568185Y1595120D01*
X6586473Y1585976D01*
X6623558Y1585976D01*
X6641846Y1595120D01*
X6660387Y1613662D01*
X6669785Y1631950D01*
X6739889Y1733550D02*
G01*
X6739889Y1742947D01*
X6749034Y1761489D01*
X6758432Y1770634D01*
X6776719Y1779778D01*
X6813803Y1779778D01*
X6832346Y1770634D01*
X6841489Y1761489D01*
X6850634Y1742947D01*
X6850634Y1724405D01*
X6841489Y1705863D01*
X6822948Y1678178D01*
X6730746Y1585976D01*
X6860032Y1585976D01*
X7031735Y1779778D02*
G01*
X6939280Y1779778D01*
X6930135Y1696720D01*
X6939280Y1705863D01*
X6966966Y1715262D01*
X6994905Y1715262D01*
X7022592Y1705863D01*
X7040880Y1687576D01*
X7050278Y1659889D01*
X7050278Y1641347D01*
X7040880Y1613662D01*
X7022592Y1595120D01*
X6994905Y1585976D01*
X6966966Y1585976D01*
X6939280Y1595120D01*
X6930135Y1604263D01*
X6920992Y1622805D01*
X7221982Y1752092D02*
G01*
X7212837Y1770634D01*
X7185151Y1779778D01*
X7166610Y1779778D01*
X7138923Y1770634D01*
X7120382Y1742947D01*
X7111237Y1696720D01*
X7111237Y1650492D01*
X7120382Y1613662D01*
X7138923Y1595120D01*
X7166610Y1585976D01*
X7175753Y1585976D01*
X7203439Y1595120D01*
X7221982Y1613662D01*
X7231126Y1641347D01*
X7231126Y1650492D01*
X7221982Y1678178D01*
X7203439Y1696720D01*
X7175753Y1705863D01*
X7166610Y1705863D01*
X7138923Y1696720D01*
X7120382Y1678178D01*
X7111237Y1650492D01*
X3387089Y5259578D02*
G01*
X3313176Y5065776D01*
X3387089Y5259578D02*
G01*
X3461003Y5065776D01*
X3340862Y5130292D02*
G01*
X3433317Y5130292D01*
X3586480Y5259578D02*
G01*
X3586480Y5065776D01*
X3521964Y5259578D02*
G01*
X3651250Y5259578D01*
X3721353Y5213350D02*
G01*
X3721353Y5222747D01*
X3730751Y5241289D01*
X3739896Y5250434D01*
X3758437Y5259578D01*
X3795267Y5259578D01*
X3813810Y5250434D01*
X3822953Y5241289D01*
X3832351Y5222747D01*
X3832351Y5204205D01*
X3822953Y5185663D01*
X3804666Y5157978D01*
X3712210Y5065776D01*
X3841496Y5065776D01*
X3948684Y5259578D02*
G01*
X3920998Y5250434D01*
X3911600Y5231892D01*
X3911600Y5213350D01*
X3920998Y5195062D01*
X3939285Y5185663D01*
X3976369Y5176520D01*
X4004055Y5167376D01*
X4022598Y5148834D01*
X4031742Y5130292D01*
X4031742Y5102605D01*
X4022598Y5084063D01*
X4013200Y5074920D01*
X3985514Y5065776D01*
X3948684Y5065776D01*
X3920998Y5074920D01*
X3911600Y5084063D01*
X3902455Y5102605D01*
X3902455Y5130292D01*
X3911600Y5148834D01*
X3930142Y5167376D01*
X3957828Y5176520D01*
X3994912Y5185663D01*
X4013200Y5195062D01*
X4022598Y5213350D01*
X4022598Y5231892D01*
X4013200Y5250434D01*
X3985514Y5259578D01*
X3948684Y5259578D01*
X4231385Y5213350D02*
G01*
X4221987Y5231892D01*
X4203446Y5250434D01*
X4185157Y5259578D01*
X4148073Y5259578D01*
X4129785Y5250434D01*
X4111244Y5231892D01*
X4101846Y5213350D01*
X4092701Y5185663D01*
X4092701Y5139689D01*
X4101846Y5111750D01*
X4111244Y5093462D01*
X4129785Y5074920D01*
X4148073Y5065776D01*
X4185157Y5065776D01*
X4203446Y5074920D01*
X4221987Y5093462D01*
X4231385Y5111750D01*
X4301489Y5213350D02*
G01*
X4301489Y5222747D01*
X4310634Y5241289D01*
X4320032Y5250434D01*
X4338319Y5259578D01*
X4375403Y5259578D01*
X4393946Y5250434D01*
X4403089Y5241289D01*
X4412234Y5222747D01*
X4412234Y5204205D01*
X4403089Y5185663D01*
X4384548Y5157978D01*
X4292346Y5065776D01*
X4421632Y5065776D01*
X4593335Y5259578D02*
G01*
X4500880Y5259578D01*
X4491735Y5176520D01*
X4500880Y5185663D01*
X4528566Y5195062D01*
X4556505Y5195062D01*
X4584192Y5185663D01*
X4602480Y5167376D01*
X4611878Y5139689D01*
X4611878Y5121147D01*
X4602480Y5093462D01*
X4584192Y5074920D01*
X4556505Y5065776D01*
X4528566Y5065776D01*
X4500880Y5074920D01*
X4491735Y5084063D01*
X4482592Y5102605D01*
X4783582Y5231892D02*
G01*
X4774437Y5250434D01*
X4746751Y5259578D01*
X4728210Y5259578D01*
X4700523Y5250434D01*
X4681982Y5222747D01*
X4672837Y5176520D01*
X4672837Y5130292D01*
X4681982Y5093462D01*
X4700523Y5074920D01*
X4728210Y5065776D01*
X4737353Y5065776D01*
X4765039Y5074920D01*
X4783582Y5093462D01*
X4792726Y5121147D01*
X4792726Y5130292D01*
X4783582Y5157978D01*
X4765039Y5176520D01*
X4737353Y5185663D01*
X4728210Y5185663D01*
X4700523Y5176520D01*
X4681982Y5157978D01*
X4672837Y5130292D01*
X4995926Y5259578D02*
G01*
X4995926Y5065776D01*
X4995926Y5259578D02*
G01*
X5116067Y5259578D01*
X4995926Y5167376D02*
G01*
X5069839Y5167376D01*
X4995926Y5065776D02*
G01*
X5116067Y5065776D01*
X5177028Y5259578D02*
G01*
X5177028Y5065776D01*
X5177028Y5259578D02*
G01*
X5297169Y5259578D01*
X5177028Y5167376D02*
G01*
X5250942Y5167376D01*
X5177028Y5065776D02*
G01*
X5297169Y5065776D01*
X5358130Y5259578D02*
G01*
X5358130Y5065776D01*
X5358130Y5259578D02*
G01*
X5441187Y5259578D01*
X5468873Y5250434D01*
X5478271Y5241289D01*
X5487416Y5222747D01*
X5487416Y5195062D01*
X5478271Y5176520D01*
X5468873Y5167376D01*
X5441187Y5157978D01*
X5358130Y5157978D01*
X5548376Y5259578D02*
G01*
X5548376Y5065776D01*
X5548376Y5259578D02*
G01*
X5631434Y5259578D01*
X5659119Y5250434D01*
X5668517Y5241289D01*
X5677662Y5222747D01*
X5677662Y5204205D01*
X5668517Y5185663D01*
X5659119Y5176520D01*
X5631434Y5167376D01*
X5548376Y5167376D01*
X5613146Y5167376D02*
G01*
X5677662Y5065776D01*
X5793994Y5259578D02*
G01*
X5775705Y5250434D01*
X5757164Y5231892D01*
X5747766Y5213350D01*
X5738621Y5185663D01*
X5738621Y5139689D01*
X5747766Y5111750D01*
X5757164Y5093462D01*
X5775705Y5074920D01*
X5793994Y5065776D01*
X5831078Y5065776D01*
X5849366Y5074920D01*
X5867907Y5093462D01*
X5877305Y5111750D01*
X5886450Y5139689D01*
X5886450Y5185663D01*
X5877305Y5213350D01*
X5867907Y5231892D01*
X5849366Y5250434D01*
X5831078Y5259578D01*
X5793994Y5259578D01*
X5947410Y5259578D02*
G01*
X5947410Y5065776D01*
X5947410Y5259578D02*
G01*
X6021323Y5065776D01*
X6095237Y5259578D02*
G01*
X6021323Y5065776D01*
X6095237Y5259578D02*
G01*
X6095237Y5065776D01*
X6298437Y5259578D02*
G01*
X6298437Y5065776D01*
X6298437Y5259578D02*
G01*
X6381496Y5259578D01*
X6409182Y5250434D01*
X6418326Y5241289D01*
X6427723Y5222747D01*
X6427723Y5195062D01*
X6418326Y5176520D01*
X6409182Y5167376D01*
X6381496Y5157978D01*
X6298437Y5157978D01*
X6488684Y5195062D02*
G01*
X6488684Y5065776D01*
X6488684Y5139689D02*
G01*
X6497828Y5167376D01*
X6516369Y5185663D01*
X6534912Y5195062D01*
X6562598Y5195062D01*
X6669785Y5195062D02*
G01*
X6651244Y5185663D01*
X6632701Y5167376D01*
X6623558Y5139689D01*
X6623558Y5121147D01*
X6632701Y5093462D01*
X6651244Y5074920D01*
X6669785Y5065776D01*
X6697471Y5065776D01*
X6715760Y5074920D01*
X6734301Y5093462D01*
X6743446Y5121147D01*
X6743446Y5139689D01*
X6734301Y5167376D01*
X6715760Y5185663D01*
X6697471Y5195062D01*
X6669785Y5195062D01*
X6915403Y5195062D02*
G01*
X6915403Y5047234D01*
X6906005Y5019547D01*
X6896862Y5010150D01*
X6878319Y5001005D01*
X6850634Y5001005D01*
X6832346Y5010150D01*
X6915403Y5167376D02*
G01*
X6896862Y5185663D01*
X6878319Y5195062D01*
X6850634Y5195062D01*
X6832346Y5185663D01*
X6813803Y5167376D01*
X6804405Y5139689D01*
X6804405Y5121147D01*
X6813803Y5093462D01*
X6832346Y5074920D01*
X6850634Y5065776D01*
X6878319Y5065776D01*
X6896862Y5074920D01*
X6915403Y5093462D01*
X6976364Y5195062D02*
G01*
X6976364Y5065776D01*
X6976364Y5139689D02*
G01*
X6985508Y5167376D01*
X7004050Y5185663D01*
X7022592Y5195062D01*
X7050278Y5195062D01*
X7221982Y5195062D02*
G01*
X7221982Y5065776D01*
X7221982Y5167376D02*
G01*
X7203439Y5185663D01*
X7185151Y5195062D01*
X7157466Y5195062D01*
X7138923Y5185663D01*
X7120382Y5167376D01*
X7111237Y5139689D01*
X7111237Y5121147D01*
X7120382Y5093462D01*
X7138923Y5074920D01*
X7157466Y5065776D01*
X7185151Y5065776D01*
X7203439Y5074920D01*
X7221982Y5093462D01*
X7282942Y5195062D02*
G01*
X7282942Y5065776D01*
X7282942Y5157978D02*
G01*
X7310628Y5185663D01*
X7329169Y5195062D01*
X7356855Y5195062D01*
X7375398Y5185663D01*
X7384542Y5157978D01*
X7384542Y5065776D01*
X7384542Y5157978D02*
G01*
X7412228Y5185663D01*
X7430769Y5195062D01*
X7458455Y5195062D01*
X7476998Y5185663D01*
X7486142Y5157978D01*
X7486142Y5065776D01*
X7547101Y5195062D02*
G01*
X7547101Y5065776D01*
X7547101Y5157978D02*
G01*
X7574787Y5185663D01*
X7593330Y5195062D01*
X7621016Y5195062D01*
X7639558Y5185663D01*
X7648701Y5157978D01*
X7648701Y5065776D01*
X7648701Y5157978D02*
G01*
X7676387Y5185663D01*
X7694930Y5195062D01*
X7722616Y5195062D01*
X7741158Y5185663D01*
X7750301Y5157978D01*
X7750301Y5065776D01*
X7811262Y5139689D02*
G01*
X7922005Y5139689D01*
X7922005Y5157978D01*
X7912862Y5176520D01*
X7903717Y5185663D01*
X7885176Y5195062D01*
X7857489Y5195062D01*
X7838948Y5185663D01*
X7820405Y5167376D01*
X7811262Y5139689D01*
X7811262Y5121147D01*
X7820405Y5093462D01*
X7838948Y5074920D01*
X7857489Y5065776D01*
X7885176Y5065776D01*
X7903717Y5074920D01*
X7922005Y5093462D01*
X7982966Y5195062D02*
G01*
X7982966Y5065776D01*
X7982966Y5139689D02*
G01*
X7992364Y5167376D01*
X8010905Y5185663D01*
X8029194Y5195062D01*
X8056880Y5195062D01*
X7303262Y3989578D02*
G01*
X7210805Y3795776D01*
X7173976Y3989578D02*
G01*
X7303262Y3989578D01*
X7456678Y3989578D02*
G01*
X7364221Y3860292D01*
X7502905Y3860292D01*
X7456678Y3989578D02*
G01*
X7456678Y3795776D01*
X7563866Y3989578D02*
G01*
X7563866Y3795776D01*
X7693151Y3989578D02*
G01*
X7693151Y3795776D01*
X7563866Y3897376D02*
G01*
X7693151Y3897376D01*
X7892542Y3943350D02*
G01*
X7883398Y3961892D01*
X7864855Y3980434D01*
X7846314Y3989578D01*
X7809484Y3989578D01*
X7790942Y3980434D01*
X7772400Y3961892D01*
X7763255Y3943350D01*
X7754112Y3915663D01*
X7754112Y3869689D01*
X7763255Y3841750D01*
X7772400Y3823462D01*
X7790942Y3804920D01*
X7809484Y3795776D01*
X7846314Y3795776D01*
X7864855Y3804920D01*
X7883398Y3823462D01*
X7892542Y3841750D01*
X8064246Y3989578D02*
G01*
X7972044Y3989578D01*
X7962646Y3906520D01*
X7972044Y3915663D01*
X7999730Y3925062D01*
X8027416Y3925062D01*
X8055101Y3915663D01*
X8073644Y3897376D01*
X8082787Y3869689D01*
X8082787Y3851147D01*
X8073644Y3823462D01*
X8055101Y3804920D01*
X8027416Y3795776D01*
X7999730Y3795776D01*
X7972044Y3804920D01*
X7962646Y3814063D01*
X7953501Y3832605D01*
X8263889Y3925062D02*
G01*
X8254746Y3897376D01*
X8236203Y3878834D01*
X8208517Y3869689D01*
X8199119Y3869689D01*
X8171434Y3878834D01*
X8153146Y3897376D01*
X8143748Y3925062D01*
X8143748Y3934205D01*
X8153146Y3961892D01*
X8171434Y3980434D01*
X8199119Y3989578D01*
X8208517Y3989578D01*
X8236203Y3980434D01*
X8254746Y3961892D01*
X8263889Y3925062D01*
X8263889Y3878834D01*
X8254746Y3832605D01*
X8236203Y3804920D01*
X8208517Y3795776D01*
X8189976Y3795776D01*
X8162289Y3804920D01*
X8153146Y3823462D01*
X8435594Y3989578D02*
G01*
X8343392Y3989578D01*
X8333994Y3906520D01*
X8343392Y3915663D01*
X8371078Y3925062D01*
X8398764Y3925062D01*
X8426450Y3915663D01*
X8444992Y3897376D01*
X8454135Y3869689D01*
X8454135Y3851147D01*
X8444992Y3823462D01*
X8426450Y3804920D01*
X8398764Y3795776D01*
X8371078Y3795776D01*
X8343392Y3804920D01*
X8333994Y3814063D01*
X8324850Y3832605D01*
X4953762Y3989578D02*
G01*
X4861305Y3795776D01*
X4824476Y3989578D02*
G01*
X4953762Y3989578D01*
X5107178Y3989578D02*
G01*
X5014721Y3860292D01*
X5153405Y3860292D01*
X5107178Y3989578D02*
G01*
X5107178Y3795776D01*
X5214366Y3989578D02*
G01*
X5214366Y3795776D01*
X5343651Y3989578D02*
G01*
X5343651Y3795776D01*
X5214366Y3897376D02*
G01*
X5343651Y3897376D01*
X5543042Y3943350D02*
G01*
X5533898Y3961892D01*
X5515355Y3980434D01*
X5496814Y3989578D01*
X5459984Y3989578D01*
X5441442Y3980434D01*
X5422900Y3961892D01*
X5413755Y3943350D01*
X5404612Y3915663D01*
X5404612Y3869689D01*
X5413755Y3841750D01*
X5422900Y3823462D01*
X5441442Y3804920D01*
X5459984Y3795776D01*
X5496814Y3795776D01*
X5515355Y3804920D01*
X5533898Y3823462D01*
X5543042Y3841750D01*
X5714746Y3989578D02*
G01*
X5622544Y3989578D01*
X5613146Y3906520D01*
X5622544Y3915663D01*
X5650230Y3925062D01*
X5677916Y3925062D01*
X5705601Y3915663D01*
X5724144Y3897376D01*
X5733287Y3869689D01*
X5733287Y3851147D01*
X5724144Y3823462D01*
X5705601Y3804920D01*
X5677916Y3795776D01*
X5650230Y3795776D01*
X5622544Y3804920D01*
X5613146Y3814063D01*
X5604001Y3832605D01*
X5914389Y3925062D02*
G01*
X5905246Y3897376D01*
X5886703Y3878834D01*
X5859017Y3869689D01*
X5849619Y3869689D01*
X5821934Y3878834D01*
X5803646Y3897376D01*
X5794248Y3925062D01*
X5794248Y3934205D01*
X5803646Y3961892D01*
X5821934Y3980434D01*
X5849619Y3989578D01*
X5859017Y3989578D01*
X5886703Y3980434D01*
X5905246Y3961892D01*
X5914389Y3925062D01*
X5914389Y3878834D01*
X5905246Y3832605D01*
X5886703Y3804920D01*
X5859017Y3795776D01*
X5840476Y3795776D01*
X5812789Y3804920D01*
X5803646Y3823462D01*
X6086094Y3989578D02*
G01*
X5993892Y3989578D01*
X5984494Y3906520D01*
X5993892Y3915663D01*
X6021578Y3925062D01*
X6049264Y3925062D01*
X6076950Y3915663D01*
X6095492Y3897376D01*
X6104635Y3869689D01*
X6104635Y3851147D01*
X6095492Y3823462D01*
X6076950Y3804920D01*
X6049264Y3795776D01*
X6021578Y3795776D01*
X5993892Y3804920D01*
X5984494Y3814063D01*
X5975350Y3832605D01*
X8291576Y3147313D02*
G01*
X8302498Y3152647D01*
X8318753Y3169157D01*
X8318753Y3054604D01*
X4583176Y3147313D02*
G01*
X4594098Y3152647D01*
X4610353Y3169157D01*
X4610353Y3054604D01*
X4701032Y3169157D02*
G01*
X4646421Y3092704D01*
X4728210Y3092704D01*
X4701032Y3169157D02*
G01*
X4701032Y3054604D01*
X8296910Y271526D02*
G01*
X8296910Y277113D01*
X8302498Y288036D01*
X8307832Y293370D01*
X8318753Y298957D01*
X8340598Y298957D01*
X8351519Y293370D01*
X8357108Y288036D01*
X8362442Y277113D01*
X8362442Y266192D01*
X8357108Y255270D01*
X8346185Y239013D01*
X8291576Y184404D01*
X8368030Y184404D01*
X8431276Y298957D02*
G01*
X8414766Y293370D01*
X8409432Y282447D01*
X8409432Y271526D01*
X8414766Y260604D01*
X8425687Y255270D01*
X8447532Y249681D01*
X8464042Y244347D01*
X8474964Y233426D01*
X8480298Y222504D01*
X8480298Y206247D01*
X8474964Y195326D01*
X8469376Y189737D01*
X8453119Y184404D01*
X8431276Y184404D01*
X8414766Y189737D01*
X8409432Y195326D01*
X8403844Y206247D01*
X8403844Y222504D01*
X8409432Y233426D01*
X8420353Y244347D01*
X8436610Y249681D01*
X8458453Y255270D01*
X8469376Y260604D01*
X8474964Y271526D01*
X8474964Y282447D01*
X8469376Y293370D01*
X8453119Y298957D01*
X8431276Y298957D01*
X4557776Y264413D02*
G01*
X4568698Y269747D01*
X4584953Y286257D01*
X4584953Y171704D01*
X4686553Y286257D02*
G01*
X4631944Y286257D01*
X4626610Y236981D01*
X4631944Y242570D01*
X4648200Y247904D01*
X4664710Y247904D01*
X4680966Y242570D01*
X4691887Y231647D01*
X4697476Y215392D01*
X4697476Y204470D01*
X4691887Y187960D01*
X4680966Y177037D01*
X4664710Y171704D01*
X4648200Y171704D01*
X4631944Y177037D01*
X4626610Y182626D01*
X4621021Y193547D01*
D23*
X6921753Y4509007D02*
G01*
X6916419Y4519421D01*
X6906005Y4529836D01*
X6895846Y4534915D01*
X6875017Y4534915D01*
X6864603Y4529836D01*
X6854189Y4519421D01*
X6848855Y4509007D01*
X6843776Y4493260D01*
X6843776Y4467352D01*
X6848855Y4451857D01*
X6854189Y4441444D01*
X6864603Y4431029D01*
X6875017Y4425950D01*
X6895846Y4425950D01*
X6906005Y4431029D01*
X6916419Y4441444D01*
X6921753Y4451857D01*
X6956044Y4514087D02*
G01*
X6966458Y4519421D01*
X6981951Y4534915D01*
X6981951Y4425950D01*
X3810253Y4305807D02*
G01*
X3804919Y4316221D01*
X3794505Y4326636D01*
X3784346Y4331715D01*
X3763517Y4331715D01*
X3753103Y4326636D01*
X3742689Y4316221D01*
X3737355Y4305807D01*
X3732276Y4290060D01*
X3732276Y4264152D01*
X3737355Y4248657D01*
X3742689Y4238244D01*
X3753103Y4227829D01*
X3763517Y4222750D01*
X3784346Y4222750D01*
X3794505Y4227829D01*
X3804919Y4238244D01*
X3810253Y4248657D01*
X3849623Y4305807D02*
G01*
X3849623Y4310887D01*
X3854957Y4321302D01*
X3860037Y4326636D01*
X3870451Y4331715D01*
X3891280Y4331715D01*
X3901694Y4326636D01*
X3906773Y4321302D01*
X3912107Y4310887D01*
X3912107Y4300473D01*
X3906773Y4290060D01*
X3896360Y4274565D01*
X3844544Y4222750D01*
X3917187Y4222750D01*
X4760976Y1194813D02*
G01*
X4760976Y1116835D01*
X4766055Y1101341D01*
X4776469Y1090927D01*
X4792217Y1085847D01*
X4802632Y1085847D01*
X4818126Y1090927D01*
X4828539Y1101341D01*
X4833619Y1116835D01*
X4833619Y1194813D01*
X4867910Y1173985D02*
G01*
X4878323Y1179319D01*
X4894071Y1194813D01*
X4894071Y1085847D01*
X8887460Y3810000D02*
G01*
X8965437Y3810000D01*
X8980932Y3815079D01*
X8991346Y3825494D01*
X8996426Y3841242D01*
X8996426Y3851655D01*
X8991346Y3867150D01*
X8980932Y3877563D01*
X8965437Y3882644D01*
X8887460Y3882644D01*
X8913367Y3922268D02*
G01*
X8908287Y3922268D01*
X8897874Y3927347D01*
X8892539Y3932681D01*
X8887460Y3943095D01*
X8887460Y3963670D01*
X8892539Y3974084D01*
X8897874Y3979418D01*
X8908287Y3984497D01*
X8918701Y3984497D01*
X8929116Y3979418D01*
X8944610Y3969004D01*
X8996426Y3916934D01*
X8996426Y3989831D01*
X4302760Y3810000D02*
G01*
X4380737Y3810000D01*
X4396232Y3815079D01*
X4406646Y3825494D01*
X4411726Y3841242D01*
X4411726Y3851655D01*
X4406646Y3867150D01*
X4396232Y3877563D01*
X4380737Y3882644D01*
X4302760Y3882644D01*
X4302760Y3927347D02*
G01*
X4302760Y3984497D01*
X4344416Y3953510D01*
X4344416Y3969004D01*
X4349496Y3979418D01*
X4354576Y3984497D01*
X4370323Y3989831D01*
X4380737Y3989831D01*
X4396232Y3984497D01*
X4406646Y3974084D01*
X4411726Y3958589D01*
X4411726Y3943095D01*
X4406646Y3927347D01*
X4401566Y3922268D01*
X4391151Y3916934D01*
X2246376Y3201415D02*
G01*
X2246376Y3123437D01*
X2251455Y3107944D01*
X2261869Y3097529D01*
X2277617Y3092450D01*
X2288032Y3092450D01*
X2303526Y3097529D01*
X2313939Y3107944D01*
X2319019Y3123437D01*
X2319019Y3201415D01*
X2405380Y3201415D02*
G01*
X2353310Y3128771D01*
X2431287Y3128771D01*
X2405380Y3201415D02*
G01*
X2405380Y3092450D01*
D25*
X1090676Y4331715D02*
G01*
X1090676Y4234687D01*
X1090676Y4331715D02*
G01*
X1122934Y4331715D01*
X1136904Y4326889D01*
X1146047Y4317745D01*
X1150620Y4308602D01*
X1155446Y4294631D01*
X1155446Y4271518D01*
X1150620Y4257802D01*
X1146047Y4248404D01*
X1136904Y4239260D01*
X1122934Y4234687D01*
X1090676Y4234687D01*
X1185926Y4313173D02*
G01*
X1195070Y4317745D01*
X1208786Y4331715D01*
X1208786Y4234687D01*
X1248664Y4331715D02*
G01*
X1299464Y4331715D01*
X1271778Y4294631D01*
X1285494Y4294631D01*
X1294892Y4290060D01*
X1299464Y4285487D01*
X1304035Y4271518D01*
X1304035Y4262373D01*
X1299464Y4248404D01*
X1290066Y4239260D01*
X1276350Y4234687D01*
X1262380Y4234687D01*
X1248664Y4239260D01*
X1244092Y4243831D01*
X1239266Y4253229D01*
X998220Y4077715D02*
G01*
X1049020Y4077715D01*
X1021334Y4040631D01*
X1035304Y4040631D01*
X1044447Y4036060D01*
X1049020Y4031487D01*
X1053846Y4017518D01*
X1053846Y4008373D01*
X1049020Y3994404D01*
X1039876Y3985260D01*
X1025905Y3980687D01*
X1012189Y3980687D01*
X998220Y3985260D01*
X993647Y3989831D01*
X989076Y3999229D01*
X1088897Y4003802D02*
G01*
X1084326Y3999229D01*
X1088897Y3994404D01*
X1093470Y3999229D01*
X1088897Y4003802D01*
X1133094Y4077715D02*
G01*
X1183894Y4077715D01*
X1156207Y4040631D01*
X1170178Y4040631D01*
X1179321Y4036060D01*
X1183894Y4031487D01*
X1188465Y4017518D01*
X1188465Y4008373D01*
X1183894Y3994404D01*
X1174750Y3985260D01*
X1160780Y3980687D01*
X1147063Y3980687D01*
X1133094Y3985260D01*
X1128521Y3989831D01*
X1123950Y3999229D01*
X1218946Y4077715D02*
G01*
X1256030Y3980687D01*
X1292860Y4077715D02*
G01*
X1256030Y3980687D01*
X1039876Y3823715D02*
G01*
X1039876Y3726687D01*
X1039876Y3823715D02*
G01*
X1081531Y3823715D01*
X1095247Y3818889D01*
X1099820Y3814318D01*
X1104646Y3805173D01*
X1104646Y3796029D01*
X1099820Y3786631D01*
X1095247Y3782060D01*
X1081531Y3777487D01*
X1039876Y3777487D01*
X1072134Y3777487D02*
G01*
X1104646Y3726687D01*
X1135126Y3823715D02*
G01*
X1135126Y3726687D01*
X1135126Y3823715D02*
G01*
X1195070Y3823715D01*
X1135126Y3777487D02*
G01*
X1171955Y3777487D01*
X1135126Y3726687D02*
G01*
X1195070Y3726687D01*
X1225550Y3823715D02*
G01*
X1225550Y3726687D01*
X1225550Y3823715D02*
G01*
X1285494Y3823715D01*
X1225550Y3777487D02*
G01*
X1262380Y3777487D01*
X1127505Y3061715D02*
G01*
X1090676Y2964687D01*
X1127505Y3061715D02*
G01*
X1164589Y2964687D01*
X1104646Y2996945D02*
G01*
X1150620Y2996945D01*
X1199642Y3038602D02*
G01*
X1199642Y3043173D01*
X1204213Y3052318D01*
X1208786Y3056889D01*
X1218184Y3061715D01*
X1236726Y3061715D01*
X1245869Y3056889D01*
X1250442Y3052318D01*
X1255014Y3043173D01*
X1255014Y3034029D01*
X1250442Y3024631D01*
X1241298Y3010915D01*
X1195070Y2964687D01*
X1259585Y2964687D01*
X1127505Y3315715D02*
G01*
X1090676Y3218687D01*
X1127505Y3315715D02*
G01*
X1164589Y3218687D01*
X1104646Y3250945D02*
G01*
X1150620Y3250945D01*
X1195070Y3297173D02*
G01*
X1204213Y3301745D01*
X1218184Y3315715D01*
X1218184Y3218687D01*
X1127505Y3569715D02*
G01*
X1090676Y3472687D01*
X1127505Y3569715D02*
G01*
X1164589Y3472687D01*
X1104646Y3504945D02*
G01*
X1150620Y3504945D01*
X1222755Y3569715D02*
G01*
X1208786Y3564889D01*
X1199642Y3551173D01*
X1195070Y3528060D01*
X1195070Y3514089D01*
X1199642Y3491229D01*
X1208786Y3477260D01*
X1222755Y3472687D01*
X1231900Y3472687D01*
X1245869Y3477260D01*
X1255014Y3491229D01*
X1259585Y3514089D01*
X1259585Y3528060D01*
X1255014Y3551173D01*
X1245869Y3564889D01*
X1231900Y3569715D01*
X1222755Y3569715D01*
X1127505Y2299715D02*
G01*
X1090676Y2202687D01*
X1127505Y2299715D02*
G01*
X1164589Y2202687D01*
X1104646Y2234945D02*
G01*
X1150620Y2234945D01*
X1250442Y2299715D02*
G01*
X1204213Y2299715D01*
X1199642Y2258060D01*
X1204213Y2262631D01*
X1218184Y2267204D01*
X1231900Y2267204D01*
X1245869Y2262631D01*
X1255014Y2253487D01*
X1259585Y2239518D01*
X1259585Y2230373D01*
X1255014Y2216404D01*
X1245869Y2207260D01*
X1231900Y2202687D01*
X1218184Y2202687D01*
X1204213Y2207260D01*
X1199642Y2211831D01*
X1195070Y2221229D01*
X1127505Y2553715D02*
G01*
X1090676Y2456687D01*
X1127505Y2553715D02*
G01*
X1164589Y2456687D01*
X1104646Y2488945D02*
G01*
X1150620Y2488945D01*
X1241298Y2553715D02*
G01*
X1195070Y2488945D01*
X1264412Y2488945D01*
X1241298Y2553715D02*
G01*
X1241298Y2456687D01*
X1127505Y2807715D02*
G01*
X1090676Y2710687D01*
X1127505Y2807715D02*
G01*
X1164589Y2710687D01*
X1104646Y2742945D02*
G01*
X1150620Y2742945D01*
X1204213Y2807715D02*
G01*
X1255014Y2807715D01*
X1227328Y2770631D01*
X1241298Y2770631D01*
X1250442Y2766060D01*
X1255014Y2761487D01*
X1259585Y2747518D01*
X1259585Y2738373D01*
X1255014Y2724404D01*
X1245869Y2715260D01*
X1231900Y2710687D01*
X1218184Y2710687D01*
X1204213Y2715260D01*
X1199642Y2719831D01*
X1195070Y2729229D01*
X1146047Y1537715D02*
G01*
X1099820Y1537715D01*
X1095247Y1496060D01*
X1099820Y1500631D01*
X1113789Y1505204D01*
X1127505Y1505204D01*
X1141476Y1500631D01*
X1150620Y1491487D01*
X1155446Y1477518D01*
X1155446Y1468373D01*
X1150620Y1454404D01*
X1141476Y1445260D01*
X1127505Y1440687D01*
X1113789Y1440687D01*
X1099820Y1445260D01*
X1095247Y1449831D01*
X1090676Y1459229D01*
X1185926Y1537715D02*
G01*
X1222755Y1440687D01*
X1259585Y1537715D02*
G01*
X1222755Y1440687D01*
X1127505Y1791715D02*
G01*
X1090676Y1694687D01*
X1127505Y1791715D02*
G01*
X1164589Y1694687D01*
X1104646Y1726945D02*
G01*
X1150620Y1726945D01*
X1259585Y1791715D02*
G01*
X1213612Y1694687D01*
X1195070Y1791715D02*
G01*
X1259585Y1791715D01*
X1127505Y2045715D02*
G01*
X1090676Y1948687D01*
X1127505Y2045715D02*
G01*
X1164589Y1948687D01*
X1104646Y1980945D02*
G01*
X1150620Y1980945D01*
X1250442Y2031745D02*
G01*
X1245869Y2040889D01*
X1231900Y2045715D01*
X1222755Y2045715D01*
X1208786Y2040889D01*
X1199642Y2027173D01*
X1195070Y2004060D01*
X1195070Y1980945D01*
X1199642Y1962404D01*
X1208786Y1953260D01*
X1222755Y1948687D01*
X1227328Y1948687D01*
X1241298Y1953260D01*
X1250442Y1962404D01*
X1255014Y1976373D01*
X1255014Y1980945D01*
X1250442Y1994915D01*
X1241298Y2004060D01*
X1227328Y2008631D01*
X1222755Y2008631D01*
X1208786Y2004060D01*
X1199642Y1994915D01*
X1195070Y1980945D01*
X1090676Y775715D02*
G01*
X1127505Y678687D01*
X1164589Y775715D02*
G01*
X1127505Y678687D01*
X1195070Y775715D02*
G01*
X1195070Y678687D01*
X1225550Y775715D02*
G01*
X1225550Y678687D01*
X1225550Y775715D02*
G01*
X1290066Y678687D01*
X1290066Y775715D02*
G01*
X1290066Y678687D01*
X1109218Y1006602D02*
G01*
X1104646Y1015745D01*
X1095247Y1024889D01*
X1086104Y1029715D01*
X1067562Y1029715D01*
X1058418Y1024889D01*
X1049020Y1015745D01*
X1044447Y1006602D01*
X1039876Y992631D01*
X1039876Y969518D01*
X1044447Y955802D01*
X1049020Y946404D01*
X1058418Y937260D01*
X1067562Y932687D01*
X1086104Y932687D01*
X1095247Y937260D01*
X1104646Y946404D01*
X1109218Y955802D01*
X1109218Y969518D01*
X1086104Y969518D02*
G01*
X1109218Y969518D01*
X1139697Y1029715D02*
G01*
X1139697Y932687D01*
X1139697Y1029715D02*
G01*
X1204213Y932687D01*
X1204213Y1029715D02*
G01*
X1204213Y932687D01*
X1234694Y1029715D02*
G01*
X1234694Y932687D01*
X1234694Y1029715D02*
G01*
X1267205Y1029715D01*
X1280921Y1024889D01*
X1290066Y1015745D01*
X1294892Y1006602D01*
X1299464Y992631D01*
X1299464Y969518D01*
X1294892Y955802D01*
X1290066Y946404D01*
X1280921Y937260D01*
X1267205Y932687D01*
X1234694Y932687D01*
X1039876Y1283715D02*
G01*
X1039876Y1186687D01*
X1039876Y1283715D02*
G01*
X1081531Y1283715D01*
X1095247Y1278889D01*
X1099820Y1274318D01*
X1104646Y1265173D01*
X1104646Y1256029D01*
X1099820Y1246631D01*
X1095247Y1242060D01*
X1081531Y1237487D01*
X1039876Y1237487D01*
X1072134Y1237487D02*
G01*
X1104646Y1186687D01*
X1199642Y1269745D02*
G01*
X1190497Y1278889D01*
X1176528Y1283715D01*
X1157986Y1283715D01*
X1144270Y1278889D01*
X1135126Y1269745D01*
X1135126Y1260602D01*
X1139697Y1251204D01*
X1144270Y1246631D01*
X1153413Y1242060D01*
X1181100Y1232915D01*
X1190497Y1228089D01*
X1195070Y1223518D01*
X1199642Y1214373D01*
X1199642Y1200404D01*
X1190497Y1191260D01*
X1176528Y1186687D01*
X1157986Y1186687D01*
X1144270Y1191260D01*
X1135126Y1200404D01*
X1262380Y1283715D02*
G01*
X1262380Y1186687D01*
X1230121Y1283715D02*
G01*
X1294892Y1283715D01*
X3325876Y1283715D02*
G01*
X3325876Y1186687D01*
X3325876Y1283715D02*
G01*
X3367532Y1283715D01*
X3381248Y1278889D01*
X3385819Y1274318D01*
X3390646Y1265173D01*
X3390646Y1256029D01*
X3385819Y1246631D01*
X3381248Y1242060D01*
X3367532Y1237487D01*
X3325876Y1237487D01*
X3358134Y1237487D02*
G01*
X3390646Y1186687D01*
X3485642Y1269745D02*
G01*
X3476498Y1278889D01*
X3462528Y1283715D01*
X3443985Y1283715D01*
X3430269Y1278889D01*
X3421126Y1269745D01*
X3421126Y1260602D01*
X3425698Y1251204D01*
X3430269Y1246631D01*
X3439414Y1242060D01*
X3467100Y1232915D01*
X3476498Y1228089D01*
X3481069Y1223518D01*
X3485642Y1214373D01*
X3485642Y1200404D01*
X3476498Y1191260D01*
X3462528Y1186687D01*
X3443985Y1186687D01*
X3430269Y1191260D01*
X3421126Y1200404D01*
X3548380Y1283715D02*
G01*
X3548380Y1186687D01*
X3516121Y1283715D02*
G01*
X3580892Y1283715D01*
X3325876Y1029715D02*
G01*
X3325876Y932687D01*
X3325876Y1029715D02*
G01*
X3358134Y1029715D01*
X3372103Y1024889D01*
X3381248Y1015745D01*
X3385819Y1006602D01*
X3390646Y992631D01*
X3390646Y969518D01*
X3385819Y955802D01*
X3381248Y946404D01*
X3372103Y937260D01*
X3358134Y932687D01*
X3325876Y932687D01*
X3421126Y1011173D02*
G01*
X3430269Y1015745D01*
X3443985Y1029715D01*
X3443985Y932687D01*
X3325876Y775715D02*
G01*
X3325876Y678687D01*
X3325876Y775715D02*
G01*
X3358134Y775715D01*
X3372103Y770889D01*
X3381248Y761745D01*
X3385819Y752602D01*
X3390646Y738631D01*
X3390646Y715518D01*
X3385819Y701802D01*
X3381248Y692404D01*
X3372103Y683260D01*
X3358134Y678687D01*
X3325876Y678687D01*
X3448812Y775715D02*
G01*
X3434842Y770889D01*
X3425698Y757173D01*
X3421126Y734060D01*
X3421126Y720089D01*
X3425698Y697229D01*
X3434842Y683260D01*
X3448812Y678687D01*
X3457955Y678687D01*
X3471926Y683260D01*
X3481069Y697229D01*
X3485642Y720089D01*
X3485642Y734060D01*
X3481069Y757173D01*
X3471926Y770889D01*
X3457955Y775715D01*
X3448812Y775715D01*
X3325876Y2045715D02*
G01*
X3325876Y1948687D01*
X3325876Y2045715D02*
G01*
X3358134Y2045715D01*
X3372103Y2040889D01*
X3381248Y2031745D01*
X3385819Y2022602D01*
X3390646Y2008631D01*
X3390646Y1985518D01*
X3385819Y1971802D01*
X3381248Y1962404D01*
X3372103Y1953260D01*
X3358134Y1948687D01*
X3325876Y1948687D01*
X3430269Y2045715D02*
G01*
X3481069Y2045715D01*
X3453384Y2008631D01*
X3467100Y2008631D01*
X3476498Y2004060D01*
X3481069Y1999487D01*
X3485642Y1985518D01*
X3485642Y1976373D01*
X3481069Y1962404D01*
X3471926Y1953260D01*
X3457955Y1948687D01*
X3443985Y1948687D01*
X3430269Y1953260D01*
X3425698Y1957831D01*
X3421126Y1967229D01*
X3325876Y1791715D02*
G01*
X3325876Y1694687D01*
X3325876Y1791715D02*
G01*
X3358134Y1791715D01*
X3372103Y1786889D01*
X3381248Y1777745D01*
X3385819Y1768602D01*
X3390646Y1754631D01*
X3390646Y1731518D01*
X3385819Y1717802D01*
X3381248Y1708404D01*
X3372103Y1699260D01*
X3358134Y1694687D01*
X3325876Y1694687D01*
X3425698Y1768602D02*
G01*
X3425698Y1773173D01*
X3430269Y1782318D01*
X3434842Y1786889D01*
X3443985Y1791715D01*
X3462528Y1791715D01*
X3471926Y1786889D01*
X3476498Y1782318D01*
X3481069Y1773173D01*
X3481069Y1764029D01*
X3476498Y1754631D01*
X3467100Y1740915D01*
X3421126Y1694687D01*
X3485642Y1694687D01*
X3395217Y1514602D02*
G01*
X3390646Y1523745D01*
X3381248Y1532889D01*
X3372103Y1537715D01*
X3353562Y1537715D01*
X3344417Y1532889D01*
X3335019Y1523745D01*
X3330448Y1514602D01*
X3325876Y1500631D01*
X3325876Y1477518D01*
X3330448Y1463802D01*
X3335019Y1454404D01*
X3344417Y1445260D01*
X3353562Y1440687D01*
X3372103Y1440687D01*
X3381248Y1445260D01*
X3390646Y1454404D01*
X3395217Y1463802D01*
X3395217Y1477518D01*
X3372103Y1477518D02*
G01*
X3395217Y1477518D01*
X3425698Y1537715D02*
G01*
X3425698Y1440687D01*
X3425698Y1537715D02*
G01*
X3490214Y1440687D01*
X3490214Y1537715D02*
G01*
X3490214Y1440687D01*
X3520694Y1537715D02*
G01*
X3520694Y1440687D01*
X3520694Y1537715D02*
G01*
X3553205Y1537715D01*
X3566921Y1532889D01*
X3576066Y1523745D01*
X3580892Y1514602D01*
X3585464Y1500631D01*
X3585464Y1477518D01*
X3580892Y1463802D01*
X3576066Y1454404D01*
X3566921Y1445260D01*
X3553205Y1440687D01*
X3520694Y1440687D01*
X3325876Y2807715D02*
G01*
X3325876Y2710687D01*
X3325876Y2807715D02*
G01*
X3358134Y2807715D01*
X3372103Y2802889D01*
X3381248Y2793745D01*
X3385819Y2784602D01*
X3390646Y2770631D01*
X3390646Y2747518D01*
X3385819Y2733802D01*
X3381248Y2724404D01*
X3372103Y2715260D01*
X3358134Y2710687D01*
X3325876Y2710687D01*
X3476498Y2793745D02*
G01*
X3471926Y2802889D01*
X3457955Y2807715D01*
X3448812Y2807715D01*
X3434842Y2802889D01*
X3425698Y2789173D01*
X3421126Y2766060D01*
X3421126Y2742945D01*
X3425698Y2724404D01*
X3434842Y2715260D01*
X3448812Y2710687D01*
X3453384Y2710687D01*
X3467100Y2715260D01*
X3476498Y2724404D01*
X3481069Y2738373D01*
X3481069Y2742945D01*
X3476498Y2756915D01*
X3467100Y2766060D01*
X3453384Y2770631D01*
X3448812Y2770631D01*
X3434842Y2766060D01*
X3425698Y2756915D01*
X3421126Y2742945D01*
X3325876Y2553715D02*
G01*
X3325876Y2456687D01*
X3325876Y2553715D02*
G01*
X3358134Y2553715D01*
X3372103Y2548889D01*
X3381248Y2539745D01*
X3385819Y2530602D01*
X3390646Y2516631D01*
X3390646Y2493518D01*
X3385819Y2479802D01*
X3381248Y2470404D01*
X3372103Y2461260D01*
X3358134Y2456687D01*
X3325876Y2456687D01*
X3476498Y2553715D02*
G01*
X3430269Y2553715D01*
X3425698Y2512060D01*
X3430269Y2516631D01*
X3443985Y2521204D01*
X3457955Y2521204D01*
X3471926Y2516631D01*
X3481069Y2507487D01*
X3485642Y2493518D01*
X3485642Y2484373D01*
X3481069Y2470404D01*
X3471926Y2461260D01*
X3457955Y2456687D01*
X3443985Y2456687D01*
X3430269Y2461260D01*
X3425698Y2465831D01*
X3421126Y2475229D01*
X3325876Y2299715D02*
G01*
X3325876Y2202687D01*
X3325876Y2299715D02*
G01*
X3358134Y2299715D01*
X3372103Y2294889D01*
X3381248Y2285745D01*
X3385819Y2276602D01*
X3390646Y2262631D01*
X3390646Y2239518D01*
X3385819Y2225802D01*
X3381248Y2216404D01*
X3372103Y2207260D01*
X3358134Y2202687D01*
X3325876Y2202687D01*
X3467100Y2299715D02*
G01*
X3421126Y2234945D01*
X3490214Y2234945D01*
X3467100Y2299715D02*
G01*
X3467100Y2202687D01*
X3325876Y3569715D02*
G01*
X3325876Y3472687D01*
X3325876Y3569715D02*
G01*
X3358134Y3569715D01*
X3372103Y3564889D01*
X3381248Y3555745D01*
X3385819Y3546602D01*
X3390646Y3532631D01*
X3390646Y3509518D01*
X3385819Y3495802D01*
X3381248Y3486404D01*
X3372103Y3477260D01*
X3358134Y3472687D01*
X3325876Y3472687D01*
X3481069Y3537204D02*
G01*
X3476498Y3523487D01*
X3467100Y3514089D01*
X3453384Y3509518D01*
X3448812Y3509518D01*
X3434842Y3514089D01*
X3425698Y3523487D01*
X3421126Y3537204D01*
X3421126Y3542029D01*
X3425698Y3555745D01*
X3434842Y3564889D01*
X3448812Y3569715D01*
X3453384Y3569715D01*
X3467100Y3564889D01*
X3476498Y3555745D01*
X3481069Y3537204D01*
X3481069Y3514089D01*
X3476498Y3491229D01*
X3467100Y3477260D01*
X3453384Y3472687D01*
X3443985Y3472687D01*
X3430269Y3477260D01*
X3425698Y3486404D01*
X3325876Y3315715D02*
G01*
X3325876Y3218687D01*
X3325876Y3315715D02*
G01*
X3358134Y3315715D01*
X3372103Y3310889D01*
X3381248Y3301745D01*
X3385819Y3292602D01*
X3390646Y3278631D01*
X3390646Y3255518D01*
X3385819Y3241802D01*
X3381248Y3232404D01*
X3372103Y3223260D01*
X3358134Y3218687D01*
X3325876Y3218687D01*
X3443985Y3315715D02*
G01*
X3430269Y3310889D01*
X3425698Y3301745D01*
X3425698Y3292602D01*
X3430269Y3283204D01*
X3439414Y3278631D01*
X3457955Y3274060D01*
X3471926Y3269487D01*
X3481069Y3260089D01*
X3485642Y3250945D01*
X3485642Y3237229D01*
X3481069Y3227831D01*
X3476498Y3223260D01*
X3462528Y3218687D01*
X3443985Y3218687D01*
X3430269Y3223260D01*
X3425698Y3227831D01*
X3421126Y3237229D01*
X3421126Y3250945D01*
X3425698Y3260089D01*
X3434842Y3269487D01*
X3448812Y3274060D01*
X3467100Y3278631D01*
X3476498Y3283204D01*
X3481069Y3292602D01*
X3481069Y3301745D01*
X3476498Y3310889D01*
X3462528Y3315715D01*
X3443985Y3315715D01*
X3325876Y3061715D02*
G01*
X3325876Y2964687D01*
X3325876Y3061715D02*
G01*
X3358134Y3061715D01*
X3372103Y3056889D01*
X3381248Y3047745D01*
X3385819Y3038602D01*
X3390646Y3024631D01*
X3390646Y3001518D01*
X3385819Y2987802D01*
X3381248Y2978404D01*
X3372103Y2969260D01*
X3358134Y2964687D01*
X3325876Y2964687D01*
X3485642Y3061715D02*
G01*
X3439414Y2964687D01*
X3421126Y3061715D02*
G01*
X3485642Y3061715D01*
X3325876Y3823715D02*
G01*
X3325876Y3726687D01*
X3325876Y3823715D02*
G01*
X3358134Y3823715D01*
X3372103Y3818889D01*
X3381248Y3809745D01*
X3385819Y3800602D01*
X3390646Y3786631D01*
X3390646Y3763518D01*
X3385819Y3749802D01*
X3381248Y3740404D01*
X3372103Y3731260D01*
X3358134Y3726687D01*
X3325876Y3726687D01*
X3421126Y3805173D02*
G01*
X3430269Y3809745D01*
X3443985Y3823715D01*
X3443985Y3726687D01*
X3502405Y3823715D02*
G01*
X3488435Y3818889D01*
X3479292Y3805173D01*
X3474466Y3782060D01*
X3474466Y3768089D01*
X3479292Y3745229D01*
X3488435Y3731260D01*
X3502405Y3726687D01*
X3511550Y3726687D01*
X3525266Y3731260D01*
X3534664Y3745229D01*
X3539235Y3768089D01*
X3539235Y3782060D01*
X3534664Y3805173D01*
X3525266Y3818889D01*
X3511550Y3823715D01*
X3502405Y3823715D01*
X3325876Y4077715D02*
G01*
X3325876Y3980687D01*
X3325876Y4077715D02*
G01*
X3358134Y4077715D01*
X3372103Y4072889D01*
X3381248Y4063745D01*
X3385819Y4054602D01*
X3390646Y4040631D01*
X3390646Y4017518D01*
X3385819Y4003802D01*
X3381248Y3994404D01*
X3372103Y3985260D01*
X3358134Y3980687D01*
X3325876Y3980687D01*
X3421126Y4059173D02*
G01*
X3430269Y4063745D01*
X3443985Y4077715D01*
X3443985Y3980687D01*
X3474466Y4059173D02*
G01*
X3483864Y4063745D01*
X3497580Y4077715D01*
X3497580Y3980687D01*
X3325876Y4331715D02*
G01*
X3325876Y4234687D01*
X3325876Y4331715D02*
G01*
X3358134Y4331715D01*
X3372103Y4326889D01*
X3381248Y4317745D01*
X3385819Y4308602D01*
X3390646Y4294631D01*
X3390646Y4271518D01*
X3385819Y4257802D01*
X3381248Y4248404D01*
X3372103Y4239260D01*
X3358134Y4234687D01*
X3325876Y4234687D01*
X3421126Y4313173D02*
G01*
X3430269Y4317745D01*
X3443985Y4331715D01*
X3443985Y4234687D01*
X3479292Y4308602D02*
G01*
X3479292Y4313173D01*
X3483864Y4322318D01*
X3488435Y4326889D01*
X3497580Y4331715D01*
X3516121Y4331715D01*
X3525266Y4326889D01*
X3530092Y4322318D01*
X3534664Y4313173D01*
X3534664Y4304029D01*
X3530092Y4294631D01*
X3520694Y4280915D01*
X3474466Y4234687D01*
X3539235Y4234687D01*
D22*
X4164076Y519396D02*
G01*
X4164076Y508000D01*
X4164076Y508000D02*
G01*
X9251375Y508000D01*
X9251375Y508000D02*
G01*
X9264075Y508000D01*
X9264075Y519396D02*
G01*
X9264075Y508000D01*
X4164076Y519396D02*
G01*
X4164076Y2819400D01*
X9264075Y519396D02*
G01*
X9264075Y2819400D01*
X4164076Y2819400D02*
G01*
X9264075Y2819400D01*
X4849876Y711200D02*
G01*
X4849876Y508000D01*
X4849876Y342900D01*
X4760976Y254000D01*
X4760976Y254000D01*
X8151876Y342900D02*
G01*
X8238744Y254000D01*
X8151876Y711200D02*
G01*
X8151876Y342900D01*
X4862576Y2971800D02*
G01*
X4775707Y3060700D01*
X4862576Y2603500D02*
G01*
X4862576Y2971800D01*
X8164576Y2603500D02*
G01*
X8164576Y2806700D01*
X8164576Y2971800D01*
X8253476Y3060700D01*
X8253476Y3060700D01*
D23*
X6794436Y4390880D02*
G01*
X6794436Y4531880D01*
X6613715Y4531880D02*
G01*
X6613715Y4390880D01*
X6628955Y4375640D02*
G01*
X6779196Y4375640D01*
X6794436Y4753119D02*
G01*
X6794436Y4612119D01*
X6613715Y4612119D02*
G01*
X6613715Y4753119D01*
X6628955Y4768359D02*
G01*
X6779196Y4768359D01*
X4357895Y4370260D02*
G01*
X4216895Y4370260D01*
X4216895Y4189539D02*
G01*
X4357895Y4189539D01*
X4373135Y4204779D02*
G01*
X4373135Y4355020D01*
X3995656Y4370260D02*
G01*
X4136656Y4370260D01*
X4136656Y4189539D02*
G01*
X3995656Y4189539D01*
X3980416Y4204779D02*
G01*
X3980416Y4355020D01*
D10*
X4820945Y2338699D02*
G01*
X4672076Y2338699D01*
X5074945Y2338699D02*
G01*
X4904206Y2338699D01*
X5328945Y2338699D02*
G01*
X5158206Y2338699D01*
X5582945Y2338699D02*
G01*
X5412206Y2338699D01*
X5836945Y2338699D02*
G01*
X5666206Y2338699D01*
X6090945Y2338699D02*
G01*
X5920206Y2338699D01*
X6344945Y2338699D02*
G01*
X6174206Y2338699D01*
X6598945Y2338699D02*
G01*
X6428206Y2338699D01*
X6852945Y2338699D02*
G01*
X6682206Y2338699D01*
X7106945Y2338699D02*
G01*
X6936206Y2338699D01*
X7360945Y2338699D02*
G01*
X7190206Y2338699D01*
X7614945Y2338699D02*
G01*
X7444206Y2338699D01*
X7868945Y2338699D02*
G01*
X7698206Y2338699D01*
X8057217Y2338699D02*
G01*
X7952206Y2338699D01*
X8363574Y2338699D02*
G01*
X8271934Y2338699D01*
X4820945Y988700D02*
G01*
X4663577Y988700D01*
X5074945Y988700D02*
G01*
X4904206Y988700D01*
X5328945Y988700D02*
G01*
X5158206Y988700D01*
X5582945Y988700D02*
G01*
X5412206Y988700D01*
X5836945Y988700D02*
G01*
X5666206Y988700D01*
X6090945Y988700D02*
G01*
X5920206Y988700D01*
X6344945Y988700D02*
G01*
X6174206Y988700D01*
X6598945Y988700D02*
G01*
X6428206Y988700D01*
X6852945Y988700D02*
G01*
X6682206Y988700D01*
X7106945Y988700D02*
G01*
X6936206Y988700D01*
X7360945Y988700D02*
G01*
X7190206Y988700D01*
X7614945Y988700D02*
G01*
X7444206Y988700D01*
X7868945Y988700D02*
G01*
X7698206Y988700D01*
X8122945Y988700D02*
G01*
X7952206Y988700D01*
X8363574Y988700D02*
G01*
X8206206Y988700D01*
X8363574Y2338699D02*
G01*
X8363574Y1861136D01*
X8363574Y988700D02*
G01*
X8363574Y1461137D01*
X4663577Y2338699D02*
G01*
X4663577Y988700D01*
X6821670Y3998721D02*
G01*
X6821670Y4218711D01*
X6821670Y3578913D02*
G01*
X6821670Y3798902D01*
X8821663Y4218889D02*
G01*
X6821670Y4218889D01*
X8821663Y3578913D02*
G01*
X6821670Y3578913D01*
X8821663Y3578913D02*
G01*
X8821663Y4218889D01*
X4484870Y3998721D02*
G01*
X4484870Y4218711D01*
X4484870Y3578913D02*
G01*
X4484870Y3798902D01*
X6484863Y4218889D02*
G01*
X4484870Y4218889D01*
X6484863Y3578913D02*
G01*
X4484870Y3578913D01*
X6484863Y3578913D02*
G01*
X6484863Y4218889D01*
D24*
X3224270Y385922D02*
G01*
X1395470Y385922D01*
X3224270Y385922D02*
G01*
X3224270Y4703922D01*
X3224270Y4703922D02*
G01*
X1395470Y4703922D01*
X1395470Y4703922D02*
G01*
X1395470Y385922D01*
D23*
X2671942Y3989491D02*
G01*
X1971949Y3989491D01*
X1971949Y3989491D02*
G01*
X1971949Y4889492D01*
X2672049Y3989318D02*
G01*
X2672049Y4889312D01*
X2672173Y4889393D02*
G01*
X1972147Y4889393D01*
X2621930Y4489493D02*
G01*
X2621930Y4789467D01*
X2521930Y4789467D01*
X2521930Y4489493D01*
X2121961Y4489493D02*
G01*
X2121961Y4789467D01*
X2021936Y4789467D01*
X2021936Y4489493D01*
X2421930Y4789467D02*
G01*
X2421930Y4489493D01*
X2221931Y4789467D02*
G01*
X2221931Y4489442D01*
X2421930Y4489493D02*
G01*
X2421930Y4439480D01*
X2371943Y4389493D01*
X2271943Y4389493D01*
X2221931Y4439480D01*
X2221931Y4489493D01*
X2421930Y4789467D02*
G01*
X2371943Y4789467D01*
X2371943Y4489493D01*
X2271943Y4489493D01*
X2271943Y4789467D01*
X2221931Y4789467D01*
X2321930Y2739483D02*
G01*
X1921962Y3139485D01*
X2721980Y3139485D02*
G01*
X2322012Y3539708D01*
X2322012Y2739557D02*
G01*
X2721980Y3139485D01*
X1921962Y3139485D02*
G01*
X2322012Y3539583D01*
D10*
X3173470Y589122D02*
G01*
X2919470Y589122D01*
X2919470Y4449922D01*
X3173470Y4449922D01*
X1446270Y589122D02*
G01*
X1700270Y589122D01*
X1700270Y4449922D01*
X1446270Y4449922D01*
D23*
G75*
G01*
X6613716Y4390880D02*
G03*
X6628955Y4375640I15240J0D01*
G75*
G01*
X6779197Y4375640D02*
G03*
X6794436Y4390880I-1J15240D01*
G75*
G01*
X6613716Y4753120D02*
G02*
X6628955Y4768360I15240J0D01*
G75*
G01*
X6779197Y4768360D02*
G02*
X6794436Y4753120I-1J-15240D01*
G75*
G01*
X4357896Y4189540D02*
G03*
X4373136Y4204780I0J15240D01*
G75*
G01*
X4373136Y4355020D02*
G03*
X4357896Y4370260I-15240J0D01*
G75*
G01*
X3995656Y4189540D02*
G02*
X3980416Y4204780I0J15240D01*
G75*
G01*
X3980416Y4355020D02*
G02*
X3995656Y4370260I15240J0D01*
D10*
G75*
G01*
X8363577Y1461138D02*
G02*
X8363577Y1861137I0J199999D01*
G75*
G01*
X6821670Y3998900D02*
G02*
X6826672Y3798903I2501J-99999D01*
G75*
G01*
X4484870Y3998900D02*
G02*
X4489872Y3798903I2501J-99999D01*
D21*
G75*
G01
X8354670Y2438400D02*
G03X8354670Y2438400I-24994J0D01*
M02*
