G04 Layer: BottomSolderMaskLayer*
G04 Gerber Generator version 0.2*
G04 Scale: 100 percent, Rotated: No, Reflected: No *
G04 Dimensions in millimeters *
G04 leading zeros omitted , absolute positions ,4 integer and 5 decimal *
%FSLAX45Y45*%
%MOMM*%

%ADD28C,1.9016*%
%ADD30C,1.7016*%
%ADD31R,1.7016X1.7016*%
%ADD32C,2.2352*%
%ADD33C,5.7032*%

%LPD*%
G36*
X8090408Y511555D02*
G01*
X8090408Y656844D01*
X8241537Y656844D01*
X8241537Y511555D01*
G37*
G36*
X7884414Y511555D02*
G01*
X7884414Y656844D01*
X8035544Y656844D01*
X8035544Y511555D01*
G37*
D28*
G01*
X8164576Y883691D03*
G01*
X7910576Y883691D03*
G01*
X7656576Y883691D03*
G01*
X7402576Y883691D03*
G01*
X7148576Y883691D03*
G01*
X6894576Y883691D03*
G01*
X6640576Y883691D03*
G01*
X6386576Y883691D03*
G01*
X6132576Y883691D03*
G01*
X5878576Y883691D03*
G01*
X5624576Y883691D03*
G01*
X5370576Y883691D03*
G01*
X5116576Y883691D03*
G01*
X4862576Y883691D03*
G01*
X4862576Y2443708D03*
G01*
X5116576Y2443708D03*
G01*
X5370576Y2443708D03*
G01*
X5624576Y2443708D03*
G01*
X5878576Y2443708D03*
G01*
X6132576Y2443708D03*
G01*
X6386576Y2443708D03*
G01*
X6894576Y2443708D03*
G01*
X7148576Y2443708D03*
G01*
X7402576Y2443708D03*
G01*
X7656576Y2443708D03*
G01*
X7910576Y2443708D03*
G01*
X6640576Y2443708D03*
G36*
X8069580Y2348737D02*
G01*
X8069580Y2538729D01*
X8259571Y2538729D01*
X8259571Y2348737D01*
G37*
D30*
G01*
X6932676Y4279900D03*
G01*
X7186676Y4279900D03*
G01*
X7440676Y4279900D03*
G01*
X7694676Y4279900D03*
G01*
X7948676Y4279900D03*
G01*
X8202676Y4279900D03*
G01*
X8456676Y4279900D03*
G01*
X8710676Y4279900D03*
G01*
X8710676Y3517900D03*
G01*
X8456676Y3517900D03*
G01*
X8202676Y3517900D03*
G01*
X7948676Y3517900D03*
G01*
X7694676Y3517900D03*
G01*
X7440676Y3517900D03*
G01*
X7186676Y3517900D03*
D31*
G01*
X6932676Y3517900D03*
D30*
G01*
X4595876Y4279900D03*
G01*
X4849876Y4279900D03*
G01*
X5103876Y4279900D03*
G01*
X5357876Y4279900D03*
G01*
X5611876Y4279900D03*
G01*
X5865876Y4279900D03*
G01*
X6119876Y4279900D03*
G01*
X6373876Y4279900D03*
G01*
X6373876Y3517900D03*
G01*
X6119876Y3517900D03*
G01*
X5865876Y3517900D03*
G01*
X5611876Y3517900D03*
G01*
X5357876Y3517900D03*
G01*
X5103876Y3517900D03*
G01*
X4849876Y3517900D03*
D31*
G01*
X4595876Y3517900D03*
D32*
G01*
X3071876Y741527D03*
G01*
X3071876Y995527D03*
G01*
X3071876Y1249527D03*
G01*
X3071876Y1503527D03*
G01*
X3071876Y1757527D03*
G01*
X3071876Y2011527D03*
G01*
X3071876Y2265527D03*
G01*
X3071876Y2519527D03*
G01*
X3071876Y2773527D03*
G01*
X3071876Y3027527D03*
G01*
X3071876Y3281527D03*
G01*
X3071876Y3535527D03*
G01*
X3071876Y3789527D03*
G01*
X3071876Y4043527D03*
G01*
X3071876Y4297527D03*
G01*
X1547876Y4297527D03*
G01*
X1547876Y4043527D03*
G01*
X1547876Y3789527D03*
G01*
X1547876Y3535527D03*
G01*
X1547876Y3281527D03*
G01*
X1547876Y3027527D03*
G01*
X1547876Y2773527D03*
G01*
X1547876Y2519527D03*
G01*
X1547876Y2265527D03*
G01*
X1547876Y2011527D03*
G01*
X1547876Y1757527D03*
G01*
X1547876Y1503527D03*
G01*
X1547876Y1249527D03*
G01*
X1547876Y995527D03*
G01*
X1547876Y741527D03*
D33*
G01*
X608076Y393700D03*
G01*
X608076Y5156200D03*
G01*
X9193276Y5130800D03*
M02*
