G04 Layer: BottomLayer*
G04 Gerber Generator version 0.2*
G04 Scale: 100 percent, Rotated: No, Reflected: No *
G04 Dimensions in millimeters *
G04 leading zeros omitted , absolute positions ,4 integer and 5 decimal *
%FSLAX45Y45*%
%MOMM*%

%ADD10C,0.2540*%
%ADD11C,0.8000*%
%ADD12C,0.6096*%
%ADD15C,1.8000*%
%ADD17C,1.6000*%
%ADD18R,1.6000X1.6000*%
%ADD19C,2.0320*%
%ADD20C,5.5000*%
%ADD21C,0.5000*%

%LPD*%
G36*
X136144Y-62991D02*
G01*
X132232Y-62230D01*
X128981Y-59994D01*
X126746Y-56743D01*
X125983Y-52832D01*
X125983Y5551932D01*
X126746Y5555843D01*
X128981Y5559094D01*
X132232Y5561330D01*
X136144Y5562092D01*
X9612884Y5562092D01*
X9616795Y5561330D01*
X9620046Y5559094D01*
X9622282Y5555843D01*
X9623044Y5551932D01*
X9623044Y-52832D01*
X9622282Y-56743D01*
X9620046Y-59994D01*
X9616795Y-62230D01*
X9612884Y-62991D01*
G37*

%LPC*%
G36*
X327304Y5300065D02*
G01*
X464210Y5300065D01*
X464210Y5436971D01*
X443230Y5425236D01*
X422605Y5411470D01*
X403148Y5396128D01*
X384962Y5379313D01*
X368147Y5361127D01*
X352806Y5341670D01*
X339039Y5321046D01*
G37*
G36*
X464210Y112928D02*
G01*
X464210Y249834D01*
X327304Y249834D01*
X339039Y228854D01*
X352806Y208229D01*
X368147Y188772D01*
X384962Y170586D01*
X403148Y153771D01*
X422605Y138430D01*
X443230Y124663D01*
G37*
G36*
X5815076Y373532D02*
G01*
X5826201Y374396D01*
X5837021Y376986D01*
X5847283Y381254D01*
X5856782Y387096D01*
X5858865Y388874D01*
X5861913Y390652D01*
X5865469Y391261D01*
X6373672Y391261D01*
X6378498Y391515D01*
X6383121Y392125D01*
X6387642Y393090D01*
X6392062Y394512D01*
X6396380Y396290D01*
X6400495Y398424D01*
X6404406Y400913D01*
X6408064Y403758D01*
X6411671Y407009D01*
X6678066Y673404D01*
X6681317Y677011D01*
X6684162Y680669D01*
X6686651Y684580D01*
X6688785Y688695D01*
X6690563Y693013D01*
X6691985Y697433D01*
X6692950Y701954D01*
X6693560Y706577D01*
X6693814Y711403D01*
X6693814Y758291D01*
X6694424Y761847D01*
X6696252Y764895D01*
X6699046Y767181D01*
X6710222Y773328D01*
X6722821Y782370D01*
X6734200Y792784D01*
X6744309Y804519D01*
X6752945Y817321D01*
X6758533Y828294D01*
X6760870Y831240D01*
X6764121Y833170D01*
X6767880Y833780D01*
X6771589Y832967D01*
X6774738Y830834D01*
X6776872Y827735D01*
X6778498Y824128D01*
X6786321Y810818D01*
X6795719Y798525D01*
X6806488Y787400D01*
X6818477Y777697D01*
X6831584Y769416D01*
X6845553Y762762D01*
X6860184Y757834D01*
X6875322Y754634D01*
X6890715Y753262D01*
X6906158Y753719D01*
X6921449Y756005D01*
X6936384Y760069D01*
X6950709Y765911D01*
X6964222Y773328D01*
X6976821Y782370D01*
X6988200Y792784D01*
X6998309Y804519D01*
X7006945Y817321D01*
X7012533Y828294D01*
X7014870Y831240D01*
X7018121Y833170D01*
X7021880Y833780D01*
X7025589Y832967D01*
X7028738Y830834D01*
X7030872Y827735D01*
X7032498Y824128D01*
X7040321Y810818D01*
X7049719Y798525D01*
X7060488Y787400D01*
X7072477Y777697D01*
X7085584Y769416D01*
X7099553Y762762D01*
X7114184Y757834D01*
X7129322Y754634D01*
X7144715Y753262D01*
X7160158Y753719D01*
X7175449Y756005D01*
X7190384Y760069D01*
X7204709Y765911D01*
X7218222Y773328D01*
X7230821Y782370D01*
X7242200Y792784D01*
X7252309Y804519D01*
X7260945Y817321D01*
X7266533Y828294D01*
X7268870Y831240D01*
X7272121Y833170D01*
X7275880Y833780D01*
X7279589Y832967D01*
X7282738Y830834D01*
X7284872Y827735D01*
X7286498Y824128D01*
X7294321Y810818D01*
X7303719Y798525D01*
X7314488Y787400D01*
X7326477Y777697D01*
X7339584Y769416D01*
X7353553Y762762D01*
X7368184Y757834D01*
X7383322Y754634D01*
X7398715Y753262D01*
X7414158Y753719D01*
X7429449Y756005D01*
X7444384Y760069D01*
X7458709Y765911D01*
X7472222Y773328D01*
X7484821Y782370D01*
X7496200Y792784D01*
X7506309Y804519D01*
X7514945Y817321D01*
X7520533Y828294D01*
X7522870Y831240D01*
X7526121Y833170D01*
X7529880Y833780D01*
X7533589Y832967D01*
X7536738Y830834D01*
X7538872Y827735D01*
X7540498Y824128D01*
X7548321Y810818D01*
X7557719Y798525D01*
X7568488Y787400D01*
X7580477Y777697D01*
X7593584Y769416D01*
X7607553Y762762D01*
X7622184Y757834D01*
X7637322Y754634D01*
X7652715Y753262D01*
X7668158Y753719D01*
X7683449Y756005D01*
X7698384Y760069D01*
X7712709Y765911D01*
X7726222Y773328D01*
X7738821Y782370D01*
X7750200Y792784D01*
X7760309Y804519D01*
X7768945Y817321D01*
X7774533Y828294D01*
X7776870Y831240D01*
X7780121Y833170D01*
X7783880Y833780D01*
X7787589Y832967D01*
X7790738Y830834D01*
X7792872Y827735D01*
X7794498Y824128D01*
X7802321Y810818D01*
X7811719Y798525D01*
X7822488Y787400D01*
X7834477Y777697D01*
X7847584Y769416D01*
X7861553Y762762D01*
X7876184Y757834D01*
X7891322Y754634D01*
X7906715Y753262D01*
X7922158Y753719D01*
X7937449Y756005D01*
X7952384Y760069D01*
X7966709Y765911D01*
X7980222Y773328D01*
X7992821Y782370D01*
X8004200Y792784D01*
X8014309Y804519D01*
X8022945Y817321D01*
X8028533Y828294D01*
X8030870Y831240D01*
X8034121Y833170D01*
X8037880Y833780D01*
X8041589Y832967D01*
X8044738Y830834D01*
X8046872Y827735D01*
X8048498Y824128D01*
X8056321Y810818D01*
X8065719Y798525D01*
X8076488Y787400D01*
X8080857Y783894D01*
X8083600Y780389D01*
X8084616Y776020D01*
X8085023Y697890D01*
X8084362Y694283D01*
X8082483Y691184D01*
X8079638Y688898D01*
X8072983Y685342D01*
X8069427Y682396D01*
X8066379Y680720D01*
X8062975Y680110D01*
X8059572Y680720D01*
X8056524Y682396D01*
X8052968Y685342D01*
X8045958Y689102D01*
X8038388Y691388D01*
X8029956Y692200D01*
X8001558Y692200D01*
X8001558Y624281D01*
X8044789Y624281D01*
X8048701Y623519D01*
X8052003Y621334D01*
X8054187Y618032D01*
X8054949Y614121D01*
X8054949Y554278D01*
X8054187Y550367D01*
X8052003Y547065D01*
X8048701Y544880D01*
X8044789Y544118D01*
X8001558Y544118D01*
X8001558Y476199D01*
X8029956Y476199D01*
X8038388Y477012D01*
X8045958Y479298D01*
X8052968Y483057D01*
X8056524Y486003D01*
X8059572Y487680D01*
X8062975Y488289D01*
X8066379Y487680D01*
X8069427Y486003D01*
X8072983Y483057D01*
X8079994Y479298D01*
X8087563Y477012D01*
X8095996Y476199D01*
X8236000Y476199D01*
X8244382Y477012D01*
X8251952Y479298D01*
X8258962Y483057D01*
X8265109Y488086D01*
X8270138Y494233D01*
X8273846Y501192D01*
X8276183Y508812D01*
X8276996Y517194D01*
X8276996Y651205D01*
X8276183Y659587D01*
X8273846Y667207D01*
X8270138Y674166D01*
X8265109Y680313D01*
X8258962Y685342D01*
X8251393Y689406D01*
X8248548Y691642D01*
X8246719Y694740D01*
X8246008Y698296D01*
X8245652Y776782D01*
X8246465Y780897D01*
X8248954Y784301D01*
X8258200Y792784D01*
X8268309Y804519D01*
X8279536Y820877D01*
X8282686Y822807D01*
X8286292Y823468D01*
X8545169Y823468D01*
X8555837Y824331D01*
X8565794Y826719D01*
X8575294Y830630D01*
X8584082Y836015D01*
X8592159Y842975D01*
X9150400Y1401216D01*
X9157360Y1409293D01*
X9162745Y1418082D01*
X9166656Y1427581D01*
X9169044Y1437538D01*
X9169908Y1448206D01*
X9169908Y3580993D01*
X9169044Y3591661D01*
X9166656Y3601618D01*
X9162745Y3611118D01*
X9157360Y3619906D01*
X9150400Y3627983D01*
X8808059Y3970324D01*
X8799982Y3977284D01*
X8791194Y3982669D01*
X8781694Y3986580D01*
X8771737Y3988968D01*
X8761069Y3989832D01*
X8527592Y3989832D01*
X8523681Y3990594D01*
X8520430Y3992778D01*
X8518194Y3996080D01*
X8517432Y3999992D01*
X8518194Y4003852D01*
X8518956Y4005681D01*
X8521344Y4015638D01*
X8522208Y4026306D01*
X8522208Y4173728D01*
X8522716Y4176877D01*
X8524189Y4179773D01*
X8526475Y4182008D01*
X8532164Y4186021D01*
X8543137Y4196029D01*
X8552789Y4207306D01*
X8560968Y4219651D01*
X8567623Y4232960D01*
X8572550Y4246930D01*
X8573719Y4252315D01*
X8575294Y4255922D01*
X8578088Y4258665D01*
X8581694Y4260138D01*
X8585606Y4260138D01*
X8589213Y4258665D01*
X8592007Y4255922D01*
X8593582Y4252315D01*
X8594750Y4246930D01*
X8599678Y4232960D01*
X8606282Y4219651D01*
X8614460Y4207306D01*
X8624112Y4196029D01*
X8635085Y4186021D01*
X8647226Y4177487D01*
X8660282Y4170476D01*
X8674100Y4165092D01*
X8688476Y4161485D01*
X8703208Y4159656D01*
X8718042Y4159656D01*
X8732774Y4161485D01*
X8747150Y4165092D01*
X8761018Y4170476D01*
X8774074Y4177487D01*
X8786164Y4186021D01*
X8797137Y4196029D01*
X8806789Y4207306D01*
X8814968Y4219651D01*
X8821623Y4232960D01*
X8826550Y4246930D01*
X8829700Y4261459D01*
X8831072Y4276191D01*
X8830614Y4291025D01*
X8828328Y4305706D01*
X8824264Y4319981D01*
X8818524Y4333646D01*
X8811107Y4346498D01*
X8802166Y4358335D01*
X8791803Y4368952D01*
X8780272Y4378248D01*
X8768689Y4385411D01*
X8766149Y4387697D01*
X8764473Y4390694D01*
X8763914Y4394047D01*
X8763914Y4444796D01*
X8763660Y4449622D01*
X8763050Y4454245D01*
X8762085Y4458766D01*
X8760663Y4463186D01*
X8758885Y4467504D01*
X8756751Y4471619D01*
X8754262Y4475530D01*
X8751417Y4479188D01*
X8748166Y4482795D01*
X8392871Y4838090D01*
X8389264Y4841341D01*
X8385606Y4844186D01*
X8381695Y4846675D01*
X8377580Y4848809D01*
X8373262Y4850587D01*
X8368842Y4852009D01*
X8364321Y4852974D01*
X8359698Y4853584D01*
X8354872Y4853787D01*
X5307279Y4853787D01*
X5302453Y4853584D01*
X5297830Y4852974D01*
X5293309Y4852009D01*
X5288889Y4850587D01*
X5284571Y4848809D01*
X5280456Y4846675D01*
X5276545Y4844186D01*
X5272887Y4841341D01*
X5269280Y4838090D01*
X5066385Y4635195D01*
X5063134Y4631588D01*
X5060289Y4627930D01*
X5057800Y4624019D01*
X5055666Y4619904D01*
X5053888Y4615586D01*
X5052466Y4611166D01*
X5051501Y4606645D01*
X5050891Y4602022D01*
X5050688Y4597196D01*
X5050688Y4394098D01*
X5050078Y4390745D01*
X5048402Y4387748D01*
X5045862Y4385462D01*
X5034229Y4378248D01*
X5022646Y4368952D01*
X5012334Y4358335D01*
X5003393Y4346498D01*
X4995976Y4333646D01*
X4990185Y4319981D01*
X4986629Y4307382D01*
X4984546Y4303522D01*
X4981092Y4300931D01*
X4976825Y4299966D01*
X4972608Y4300931D01*
X4969103Y4303522D01*
X4967071Y4307382D01*
X4963464Y4319981D01*
X4957724Y4333646D01*
X4950307Y4346498D01*
X4941366Y4358335D01*
X4931003Y4368952D01*
X4919472Y4378248D01*
X4906822Y4386072D01*
X4893360Y4392269D01*
X4879238Y4396790D01*
X4864658Y4399483D01*
X4849825Y4400397D01*
X4835042Y4399483D01*
X4820462Y4396790D01*
X4806289Y4392269D01*
X4792827Y4386072D01*
X4780229Y4378248D01*
X4768646Y4368952D01*
X4758334Y4358335D01*
X4749393Y4346498D01*
X4741976Y4333646D01*
X4736185Y4319981D01*
X4732629Y4307382D01*
X4730546Y4303522D01*
X4727092Y4300931D01*
X4722825Y4299966D01*
X4718608Y4300931D01*
X4715103Y4303522D01*
X4713071Y4307382D01*
X4709464Y4319981D01*
X4703724Y4333646D01*
X4696307Y4346498D01*
X4687366Y4358335D01*
X4677003Y4368952D01*
X4665472Y4378248D01*
X4652822Y4386072D01*
X4639360Y4392269D01*
X4625238Y4396790D01*
X4610658Y4399483D01*
X4595825Y4400397D01*
X4581042Y4399483D01*
X4566462Y4396790D01*
X4552289Y4392269D01*
X4538827Y4386072D01*
X4522165Y4375912D01*
X4518406Y4375454D01*
X4514748Y4376470D01*
X4511700Y4378706D01*
X4509719Y4381906D01*
X4509008Y4385614D01*
X4509008Y4698593D01*
X4508144Y4709261D01*
X4505756Y4719218D01*
X4501845Y4728718D01*
X4496460Y4737506D01*
X4489500Y4745583D01*
X4439259Y4795824D01*
X4431182Y4802784D01*
X4422394Y4808169D01*
X4412894Y4812080D01*
X4402937Y4814468D01*
X4392269Y4815332D01*
X2526182Y4815332D01*
X2515514Y4814468D01*
X2505557Y4812080D01*
X2496058Y4808169D01*
X2487269Y4802784D01*
X2479192Y4795824D01*
X2263851Y4580483D01*
X2256891Y4572406D01*
X2251506Y4563618D01*
X2247595Y4554118D01*
X2245207Y4544161D01*
X2244344Y4533493D01*
X2244344Y1796643D01*
X2243582Y1792732D01*
X2241397Y1789480D01*
X2018995Y1567078D01*
X2015743Y1564894D01*
X2011832Y1564132D01*
X1682496Y1564132D01*
X1678787Y1564792D01*
X1675638Y1566773D01*
X1673352Y1569770D01*
X1671574Y1573377D01*
X1662836Y1587042D01*
X1652574Y1599590D01*
X1640941Y1610918D01*
X1628089Y1620824D01*
X1626412Y1621840D01*
X1623364Y1624634D01*
X1621688Y1628444D01*
X1621688Y1632610D01*
X1623364Y1636420D01*
X1626412Y1639214D01*
X1628089Y1640230D01*
X1640941Y1650136D01*
X1652574Y1661414D01*
X1662836Y1674012D01*
X1671574Y1687626D01*
X1678736Y1702206D01*
X1684223Y1717497D01*
X1687880Y1733296D01*
X1689709Y1749399D01*
X1689709Y1765655D01*
X1687880Y1781759D01*
X1684223Y1797557D01*
X1678736Y1812848D01*
X1671574Y1827377D01*
X1662836Y1841042D01*
X1652574Y1853590D01*
X1640941Y1864918D01*
X1628089Y1874824D01*
X1626412Y1875840D01*
X1623364Y1878634D01*
X1621688Y1882444D01*
X1621688Y1886610D01*
X1623364Y1890420D01*
X1626412Y1893214D01*
X1628089Y1894230D01*
X1640941Y1904136D01*
X1652574Y1915414D01*
X1662836Y1928012D01*
X1671574Y1941626D01*
X1678736Y1956206D01*
X1684223Y1971497D01*
X1687880Y1987296D01*
X1689709Y2003399D01*
X1689709Y2019655D01*
X1687880Y2035759D01*
X1684223Y2051557D01*
X1678736Y2066848D01*
X1671574Y2081377D01*
X1662836Y2095042D01*
X1652574Y2107590D01*
X1640941Y2118918D01*
X1628089Y2128824D01*
X1626412Y2129840D01*
X1623364Y2132634D01*
X1621688Y2136444D01*
X1621688Y2140610D01*
X1623364Y2144420D01*
X1626412Y2147214D01*
X1628089Y2148230D01*
X1640941Y2158136D01*
X1652574Y2169414D01*
X1662836Y2182012D01*
X1671574Y2195626D01*
X1678736Y2210206D01*
X1684223Y2225497D01*
X1687880Y2241296D01*
X1689709Y2257399D01*
X1689709Y2273655D01*
X1687880Y2289759D01*
X1684223Y2305558D01*
X1678736Y2320848D01*
X1671574Y2335377D01*
X1662836Y2349042D01*
X1652574Y2361590D01*
X1640941Y2372918D01*
X1628089Y2382824D01*
X1626412Y2383840D01*
X1623364Y2386634D01*
X1621688Y2390444D01*
X1621688Y2394610D01*
X1623364Y2398420D01*
X1626412Y2401214D01*
X1628089Y2402230D01*
X1640941Y2412136D01*
X1652574Y2423414D01*
X1662836Y2436012D01*
X1671574Y2449626D01*
X1678736Y2464206D01*
X1684223Y2479497D01*
X1687880Y2495296D01*
X1689709Y2511399D01*
X1689709Y2527655D01*
X1687880Y2543759D01*
X1684223Y2559558D01*
X1678736Y2574848D01*
X1671574Y2589377D01*
X1662836Y2603042D01*
X1652574Y2615590D01*
X1640941Y2626918D01*
X1628089Y2636824D01*
X1626412Y2637840D01*
X1623364Y2640634D01*
X1621688Y2644444D01*
X1621688Y2648610D01*
X1623364Y2652420D01*
X1626412Y2655214D01*
X1628089Y2656230D01*
X1640941Y2666136D01*
X1652574Y2677414D01*
X1662836Y2690012D01*
X1671574Y2703626D01*
X1678736Y2718206D01*
X1684223Y2733497D01*
X1687880Y2749296D01*
X1689709Y2765399D01*
X1689709Y2781655D01*
X1687880Y2797759D01*
X1684223Y2813558D01*
X1678736Y2828848D01*
X1671574Y2843377D01*
X1662836Y2857042D01*
X1652574Y2869590D01*
X1640941Y2880918D01*
X1628089Y2890824D01*
X1626412Y2891840D01*
X1623364Y2894634D01*
X1621688Y2898444D01*
X1621688Y2902610D01*
X1623364Y2906420D01*
X1626412Y2909214D01*
X1628089Y2910230D01*
X1640941Y2920136D01*
X1652574Y2931414D01*
X1662836Y2944012D01*
X1671574Y2957626D01*
X1678736Y2972206D01*
X1684223Y2987497D01*
X1687880Y3003296D01*
X1689709Y3019399D01*
X1689709Y3035655D01*
X1687880Y3051759D01*
X1684223Y3067558D01*
X1678736Y3082848D01*
X1671574Y3097377D01*
X1662836Y3111042D01*
X1652574Y3123590D01*
X1640941Y3134918D01*
X1628089Y3144824D01*
X1626412Y3145840D01*
X1623364Y3148634D01*
X1621688Y3152444D01*
X1621688Y3156610D01*
X1623364Y3160420D01*
X1626412Y3163214D01*
X1628089Y3164230D01*
X1640941Y3174136D01*
X1652574Y3185414D01*
X1662836Y3198012D01*
X1671574Y3211626D01*
X1678736Y3226206D01*
X1684223Y3241497D01*
X1687880Y3257296D01*
X1689709Y3273399D01*
X1689709Y3289655D01*
X1687880Y3305759D01*
X1684223Y3321558D01*
X1678736Y3336848D01*
X1671574Y3351377D01*
X1662836Y3365042D01*
X1652574Y3377590D01*
X1640941Y3388918D01*
X1628089Y3398824D01*
X1626412Y3399840D01*
X1623364Y3402634D01*
X1621688Y3406444D01*
X1621688Y3410610D01*
X1623364Y3414420D01*
X1626412Y3417214D01*
X1628089Y3418230D01*
X1640941Y3428136D01*
X1652574Y3439414D01*
X1662836Y3452012D01*
X1671574Y3465626D01*
X1678736Y3480206D01*
X1684223Y3495497D01*
X1687880Y3511296D01*
X1689709Y3527399D01*
X1689709Y3543655D01*
X1687880Y3559759D01*
X1684223Y3575558D01*
X1678736Y3590848D01*
X1671574Y3605377D01*
X1662836Y3619042D01*
X1652574Y3631590D01*
X1640941Y3642918D01*
X1628089Y3652824D01*
X1626412Y3653840D01*
X1623364Y3656634D01*
X1621688Y3660444D01*
X1621688Y3664610D01*
X1623364Y3668420D01*
X1626412Y3671214D01*
X1628089Y3672230D01*
X1640941Y3682136D01*
X1652574Y3693414D01*
X1662836Y3706012D01*
X1671574Y3719626D01*
X1678736Y3734206D01*
X1684223Y3749497D01*
X1687880Y3765296D01*
X1689709Y3781399D01*
X1689709Y3797655D01*
X1687880Y3813759D01*
X1684223Y3829558D01*
X1678736Y3844848D01*
X1671574Y3859377D01*
X1662836Y3873042D01*
X1652574Y3885590D01*
X1640941Y3896918D01*
X1628089Y3906824D01*
X1626412Y3907840D01*
X1623364Y3910634D01*
X1621688Y3914444D01*
X1621688Y3918610D01*
X1623364Y3922420D01*
X1626412Y3925214D01*
X1628089Y3926230D01*
X1640941Y3936136D01*
X1652574Y3947414D01*
X1662836Y3960012D01*
X1671574Y3973626D01*
X1678736Y3988206D01*
X1684223Y4003497D01*
X1687880Y4019296D01*
X1689709Y4035399D01*
X1689709Y4051655D01*
X1687880Y4067759D01*
X1684223Y4083558D01*
X1678736Y4098848D01*
X1671574Y4113377D01*
X1662836Y4127042D01*
X1652574Y4139590D01*
X1640941Y4150918D01*
X1628089Y4160824D01*
X1626412Y4161840D01*
X1623364Y4164634D01*
X1621688Y4168444D01*
X1621688Y4172610D01*
X1623364Y4176420D01*
X1626412Y4179214D01*
X1628089Y4180230D01*
X1640941Y4190136D01*
X1652574Y4201414D01*
X1662836Y4214012D01*
X1671574Y4227626D01*
X1678736Y4242206D01*
X1684223Y4257497D01*
X1687880Y4273296D01*
X1689709Y4289399D01*
X1689709Y4305655D01*
X1687880Y4321759D01*
X1684223Y4337558D01*
X1678736Y4352848D01*
X1671574Y4367377D01*
X1662836Y4381042D01*
X1652574Y4393590D01*
X1640941Y4404918D01*
X1628089Y4414824D01*
X1614170Y4423206D01*
X1599438Y4429912D01*
X1583994Y4434941D01*
X1568094Y4438192D01*
X1551940Y4439564D01*
X1535684Y4439107D01*
X1519631Y4436770D01*
X1503934Y4432655D01*
X1488846Y4426762D01*
X1474470Y4419193D01*
X1461109Y4410049D01*
X1448816Y4399432D01*
X1437843Y4387443D01*
X1428343Y4374337D01*
X1420368Y4360214D01*
X1414018Y4345279D01*
X1409446Y4329684D01*
X1406702Y4313732D01*
X1405788Y4297527D01*
X1406702Y4281322D01*
X1409446Y4265320D01*
X1414018Y4249775D01*
X1420368Y4234840D01*
X1428343Y4220718D01*
X1437843Y4207560D01*
X1448816Y4195622D01*
X1461109Y4185005D01*
X1469999Y4178909D01*
X1472742Y4176115D01*
X1474216Y4172458D01*
X1474216Y4168546D01*
X1472742Y4164939D01*
X1469999Y4162145D01*
X1461109Y4156049D01*
X1448816Y4145432D01*
X1437843Y4133443D01*
X1428343Y4120337D01*
X1420368Y4106214D01*
X1414018Y4091279D01*
X1409446Y4075684D01*
X1406702Y4059732D01*
X1405788Y4043527D01*
X1406702Y4027322D01*
X1409446Y4011320D01*
X1414018Y3995775D01*
X1420368Y3980840D01*
X1428343Y3966718D01*
X1437843Y3953560D01*
X1448816Y3941622D01*
X1461109Y3931005D01*
X1469999Y3924909D01*
X1472742Y3922115D01*
X1474216Y3918458D01*
X1474216Y3914546D01*
X1472742Y3910939D01*
X1469999Y3908145D01*
X1461109Y3902049D01*
X1448816Y3891432D01*
X1437843Y3879443D01*
X1428343Y3866337D01*
X1420368Y3852214D01*
X1414018Y3837279D01*
X1409446Y3821684D01*
X1406702Y3805732D01*
X1405788Y3789527D01*
X1406702Y3773322D01*
X1409446Y3757320D01*
X1414018Y3741775D01*
X1420368Y3726840D01*
X1428343Y3712718D01*
X1437843Y3699560D01*
X1448816Y3687622D01*
X1461109Y3677005D01*
X1469999Y3670909D01*
X1472742Y3668115D01*
X1474216Y3664458D01*
X1474216Y3660546D01*
X1472742Y3656939D01*
X1469999Y3654145D01*
X1461109Y3648049D01*
X1448816Y3637432D01*
X1437843Y3625443D01*
X1428343Y3612337D01*
X1420368Y3598214D01*
X1414018Y3583279D01*
X1409446Y3567684D01*
X1406702Y3551732D01*
X1405788Y3535527D01*
X1406702Y3519322D01*
X1409446Y3503320D01*
X1414018Y3487775D01*
X1420368Y3472840D01*
X1428343Y3458718D01*
X1437843Y3445560D01*
X1448816Y3433622D01*
X1461109Y3423005D01*
X1469999Y3416909D01*
X1472742Y3414115D01*
X1474216Y3410458D01*
X1474216Y3406546D01*
X1472742Y3402939D01*
X1469999Y3400145D01*
X1461109Y3394049D01*
X1448816Y3383432D01*
X1437843Y3371443D01*
X1428343Y3358337D01*
X1420368Y3344214D01*
X1414018Y3329279D01*
X1409446Y3313684D01*
X1406702Y3297732D01*
X1405788Y3281527D01*
X1406702Y3265322D01*
X1409446Y3249320D01*
X1414018Y3233775D01*
X1420368Y3218840D01*
X1428343Y3204718D01*
X1437843Y3191560D01*
X1448816Y3179622D01*
X1461109Y3169005D01*
X1469999Y3162909D01*
X1472742Y3160115D01*
X1474216Y3156458D01*
X1474216Y3152546D01*
X1472742Y3148939D01*
X1469999Y3146145D01*
X1461109Y3140049D01*
X1448816Y3129432D01*
X1437843Y3117443D01*
X1428343Y3104337D01*
X1420368Y3090214D01*
X1414018Y3075279D01*
X1409446Y3059684D01*
X1406702Y3043732D01*
X1405788Y3027527D01*
X1406702Y3011322D01*
X1409446Y2995320D01*
X1414018Y2979775D01*
X1420368Y2964840D01*
X1428343Y2950718D01*
X1437843Y2937560D01*
X1448816Y2925622D01*
X1461109Y2915005D01*
X1469999Y2908909D01*
X1472742Y2906115D01*
X1474216Y2902458D01*
X1474216Y2898546D01*
X1472742Y2894939D01*
X1469999Y2892145D01*
X1461109Y2886049D01*
X1448816Y2875432D01*
X1437843Y2863443D01*
X1428343Y2850337D01*
X1420368Y2836214D01*
X1414018Y2821279D01*
X1409446Y2805684D01*
X1406702Y2789732D01*
X1405788Y2773527D01*
X1406702Y2757322D01*
X1409446Y2741320D01*
X1414018Y2725775D01*
X1420368Y2710840D01*
X1428343Y2696718D01*
X1437843Y2683560D01*
X1448816Y2671622D01*
X1461109Y2661005D01*
X1469999Y2654909D01*
X1472742Y2652115D01*
X1474216Y2648458D01*
X1474216Y2644546D01*
X1472742Y2640939D01*
X1469999Y2638145D01*
X1461109Y2632049D01*
X1448816Y2621432D01*
X1437843Y2609443D01*
X1428343Y2596337D01*
X1420368Y2582214D01*
X1414018Y2567279D01*
X1409446Y2551684D01*
X1406702Y2535732D01*
X1405788Y2519527D01*
X1406702Y2503322D01*
X1409446Y2487320D01*
X1414018Y2471775D01*
X1420368Y2456840D01*
X1428343Y2442718D01*
X1437843Y2429560D01*
X1448816Y2417622D01*
X1461109Y2407005D01*
X1469999Y2400909D01*
X1472742Y2398115D01*
X1474216Y2394458D01*
X1474216Y2390546D01*
X1472742Y2386939D01*
X1469999Y2384145D01*
X1461109Y2378049D01*
X1448816Y2367432D01*
X1437843Y2355443D01*
X1428343Y2342337D01*
X1420368Y2328214D01*
X1414018Y2313279D01*
X1409446Y2297684D01*
X1406702Y2281732D01*
X1405788Y2265527D01*
X1406702Y2249322D01*
X1409446Y2233320D01*
X1414018Y2217775D01*
X1420368Y2202840D01*
X1428343Y2188718D01*
X1437843Y2175560D01*
X1448816Y2163622D01*
X1461109Y2153005D01*
X1469999Y2146909D01*
X1472742Y2144115D01*
X1474216Y2140458D01*
X1474216Y2136546D01*
X1472742Y2132939D01*
X1469999Y2130145D01*
X1461109Y2124049D01*
X1448816Y2113432D01*
X1437843Y2101443D01*
X1428343Y2088337D01*
X1420368Y2074214D01*
X1414018Y2059279D01*
X1409446Y2043684D01*
X1406702Y2027732D01*
X1405788Y2011527D01*
X1406702Y1995322D01*
X1409446Y1979320D01*
X1414018Y1963775D01*
X1420368Y1948840D01*
X1428343Y1934718D01*
X1437843Y1921560D01*
X1448816Y1909622D01*
X1461109Y1899005D01*
X1469999Y1892909D01*
X1472742Y1890115D01*
X1474216Y1886457D01*
X1474216Y1882546D01*
X1472742Y1878939D01*
X1469999Y1876145D01*
X1461109Y1870049D01*
X1448816Y1859432D01*
X1437843Y1847443D01*
X1428343Y1834337D01*
X1420368Y1820214D01*
X1414018Y1805279D01*
X1409446Y1789684D01*
X1406702Y1773732D01*
X1405788Y1757527D01*
X1406702Y1741322D01*
X1409446Y1725320D01*
X1414018Y1709775D01*
X1420368Y1694840D01*
X1428343Y1680718D01*
X1437843Y1667560D01*
X1448816Y1655622D01*
X1461109Y1645005D01*
X1469999Y1638909D01*
X1472742Y1636115D01*
X1474216Y1632457D01*
X1474216Y1628546D01*
X1472742Y1624939D01*
X1469999Y1622145D01*
X1461109Y1616049D01*
X1448816Y1605432D01*
X1437843Y1593443D01*
X1428343Y1580337D01*
X1420368Y1566214D01*
X1414018Y1551279D01*
X1409446Y1535684D01*
X1406702Y1519732D01*
X1405788Y1503527D01*
X1406702Y1487322D01*
X1409446Y1471320D01*
X1414018Y1455775D01*
X1420368Y1440840D01*
X1428343Y1426718D01*
X1437843Y1413560D01*
X1448816Y1401622D01*
X1461109Y1391005D01*
X1469999Y1384909D01*
X1472742Y1382115D01*
X1474216Y1378458D01*
X1474216Y1374546D01*
X1472742Y1370939D01*
X1469999Y1368145D01*
X1461109Y1362049D01*
X1448816Y1351432D01*
X1437843Y1339443D01*
X1428343Y1326337D01*
X1420368Y1312214D01*
X1414018Y1297279D01*
X1409446Y1281684D01*
X1406702Y1265732D01*
X1405788Y1249527D01*
X1406702Y1233322D01*
X1409446Y1217320D01*
X1414018Y1201775D01*
X1420368Y1186840D01*
X1428343Y1172718D01*
X1437843Y1159560D01*
X1448816Y1147622D01*
X1461109Y1137005D01*
X1469999Y1130909D01*
X1472742Y1128115D01*
X1474216Y1124458D01*
X1474216Y1120546D01*
X1472742Y1116939D01*
X1469999Y1114145D01*
X1461109Y1108049D01*
X1448816Y1097432D01*
X1437843Y1085443D01*
X1428343Y1072337D01*
X1420368Y1058214D01*
X1418031Y1052677D01*
X1490726Y1052677D01*
X1490726Y1104696D01*
X1491386Y1108303D01*
X1493316Y1111453D01*
X1496263Y1113739D01*
X1499768Y1114806D01*
X1503476Y1114501D01*
X1519631Y1110234D01*
X1535684Y1107948D01*
X1551940Y1107490D01*
X1568094Y1108862D01*
X1583994Y1112113D01*
X1591716Y1114602D01*
X1595475Y1115060D01*
X1599184Y1114145D01*
X1602282Y1111910D01*
X1604314Y1108659D01*
X1605026Y1104950D01*
X1605026Y1052677D01*
X1677873Y1052677D01*
X1671574Y1065377D01*
X1662836Y1079042D01*
X1652574Y1091590D01*
X1640941Y1102918D01*
X1628089Y1112824D01*
X1626412Y1113840D01*
X1623364Y1116634D01*
X1621688Y1120444D01*
X1621688Y1124610D01*
X1623364Y1128420D01*
X1626412Y1131214D01*
X1628089Y1132230D01*
X1640941Y1142136D01*
X1652574Y1153414D01*
X1662836Y1166012D01*
X1671574Y1179626D01*
X1678736Y1194206D01*
X1684223Y1209497D01*
X1687880Y1225296D01*
X1689709Y1241399D01*
X1689709Y1257655D01*
X1687880Y1273759D01*
X1684223Y1289558D01*
X1678736Y1304848D01*
X1671574Y1319377D01*
X1662836Y1333042D01*
X1652574Y1345590D01*
X1640941Y1356918D01*
X1628089Y1366824D01*
X1626412Y1367840D01*
X1623364Y1370634D01*
X1621688Y1374444D01*
X1621688Y1378610D01*
X1623364Y1382420D01*
X1626412Y1385214D01*
X1628089Y1386230D01*
X1640941Y1396136D01*
X1652574Y1407414D01*
X1662836Y1420012D01*
X1668221Y1428445D01*
X1670507Y1430934D01*
X1673453Y1432509D01*
X1676806Y1433068D01*
X2042769Y1433068D01*
X2053437Y1433931D01*
X2063394Y1436319D01*
X2072893Y1440230D01*
X2081682Y1445615D01*
X2089759Y1452575D01*
X2355900Y1718716D01*
X2362860Y1726793D01*
X2368245Y1735582D01*
X2372156Y1745081D01*
X2374544Y1755038D01*
X2375408Y1765706D01*
X2375408Y4502556D01*
X2376170Y4506468D01*
X2378354Y4509719D01*
X2549956Y4681321D01*
X2553208Y4683506D01*
X2557119Y4684268D01*
X4361332Y4684268D01*
X4365244Y4683506D01*
X4368495Y4681321D01*
X4374997Y4674819D01*
X4377182Y4671568D01*
X4377944Y4667656D01*
X4377944Y4166006D01*
X4378807Y4155338D01*
X4381195Y4145381D01*
X4385106Y4135882D01*
X4390491Y4127093D01*
X4397451Y4119016D01*
X4638192Y3878275D01*
X4646269Y3871315D01*
X4655058Y3865930D01*
X4664557Y3862019D01*
X4674514Y3859631D01*
X4685182Y3858768D01*
X8730132Y3858768D01*
X8734044Y3858006D01*
X8737295Y3855821D01*
X9035897Y3557219D01*
X9038082Y3553968D01*
X9038844Y3550056D01*
X9038844Y1479143D01*
X9038082Y1475232D01*
X9035897Y1471980D01*
X8521395Y957478D01*
X8518144Y955294D01*
X8514232Y954532D01*
X8279333Y954532D01*
X8276081Y955040D01*
X8273186Y956614D01*
X8270900Y959002D01*
X8268309Y962863D01*
X8258200Y974598D01*
X8246821Y985012D01*
X8234222Y994054D01*
X8220709Y1001521D01*
X8206384Y1007313D01*
X8191449Y1011377D01*
X8176158Y1013663D01*
X8160715Y1014120D01*
X8145322Y1012748D01*
X8130184Y1009599D01*
X8115553Y1004620D01*
X8101584Y997966D01*
X8088477Y989736D01*
X8076488Y979982D01*
X8065719Y968908D01*
X8056321Y956614D01*
X8048498Y943305D01*
X8046872Y939647D01*
X8044738Y936548D01*
X8041589Y934415D01*
X8037880Y933602D01*
X8034121Y934212D01*
X8030870Y936142D01*
X8028533Y939139D01*
X8022945Y950061D01*
X8014309Y962863D01*
X8004200Y974598D01*
X7992821Y985012D01*
X7980222Y994054D01*
X7966709Y1001521D01*
X7952384Y1007313D01*
X7937449Y1011377D01*
X7922158Y1013663D01*
X7906715Y1014120D01*
X7891322Y1012748D01*
X7876184Y1009599D01*
X7861553Y1004620D01*
X7847584Y997966D01*
X7834477Y989736D01*
X7822488Y979982D01*
X7811719Y968908D01*
X7802321Y956614D01*
X7794498Y943305D01*
X7792872Y939647D01*
X7790738Y936548D01*
X7787589Y934415D01*
X7783880Y933602D01*
X7780121Y934212D01*
X7776870Y936142D01*
X7774533Y939139D01*
X7768945Y950061D01*
X7760309Y962863D01*
X7750200Y974598D01*
X7738821Y985012D01*
X7726222Y994054D01*
X7715046Y1000201D01*
X7712252Y1002487D01*
X7710424Y1005586D01*
X7709814Y1009091D01*
X7709814Y1345336D01*
X7710576Y1349248D01*
X7712760Y1352550D01*
X7751825Y1391615D01*
X7755128Y1393799D01*
X7759039Y1394561D01*
X8418372Y1394561D01*
X8423198Y1394815D01*
X8427821Y1395425D01*
X8432342Y1396390D01*
X8436762Y1397812D01*
X8441080Y1399590D01*
X8445195Y1401724D01*
X8449106Y1404213D01*
X8452764Y1407058D01*
X8456371Y1410309D01*
X8976766Y1930704D01*
X8980017Y1934311D01*
X8982862Y1937969D01*
X8985351Y1941880D01*
X8987485Y1945995D01*
X8989263Y1950313D01*
X8990685Y1954733D01*
X8991650Y1959254D01*
X8992260Y1963877D01*
X8992514Y1968703D01*
X8992514Y2831896D01*
X8992260Y2836722D01*
X8991650Y2841345D01*
X8990685Y2845866D01*
X8989263Y2850286D01*
X8987485Y2854604D01*
X8985351Y2858719D01*
X8982862Y2862630D01*
X8980017Y2866288D01*
X8976766Y2869895D01*
X8532571Y3314090D01*
X8528964Y3317341D01*
X8525306Y3320186D01*
X8521395Y3322675D01*
X8517280Y3324809D01*
X8512962Y3326587D01*
X8508542Y3328009D01*
X8504021Y3328974D01*
X8499398Y3329584D01*
X8494572Y3329787D01*
X5739739Y3329787D01*
X5735828Y3330600D01*
X5732526Y3332784D01*
X5668416Y3396945D01*
X5666282Y3400044D01*
X5665419Y3403701D01*
X5665978Y3407410D01*
X5667857Y3410712D01*
X5670804Y3413048D01*
X5675274Y3415487D01*
X5687364Y3424021D01*
X5698337Y3434029D01*
X5707989Y3445306D01*
X5716168Y3457651D01*
X5722823Y3470960D01*
X5727750Y3484930D01*
X5728919Y3490315D01*
X5730494Y3493922D01*
X5733288Y3496665D01*
X5736894Y3498138D01*
X5740806Y3498138D01*
X5744413Y3496665D01*
X5747207Y3493922D01*
X5748782Y3490315D01*
X5749950Y3484930D01*
X5754878Y3470960D01*
X5761482Y3457651D01*
X5769660Y3445306D01*
X5779312Y3434029D01*
X5790285Y3424021D01*
X5802426Y3415487D01*
X5815482Y3408476D01*
X5829300Y3403092D01*
X5843676Y3399485D01*
X5858408Y3397656D01*
X5873242Y3397656D01*
X5887974Y3399485D01*
X5902350Y3403092D01*
X5916218Y3408476D01*
X5929274Y3415487D01*
X5941364Y3424021D01*
X5952337Y3434029D01*
X5961989Y3445306D01*
X5970168Y3457651D01*
X5976823Y3470960D01*
X5981750Y3484930D01*
X5982919Y3490315D01*
X5984494Y3493922D01*
X5987288Y3496665D01*
X5990894Y3498138D01*
X5994806Y3498138D01*
X5998413Y3496665D01*
X6001207Y3493922D01*
X6002782Y3490315D01*
X6003950Y3484930D01*
X6008878Y3470960D01*
X6015482Y3457651D01*
X6023660Y3445306D01*
X6033312Y3434029D01*
X6044285Y3424021D01*
X6056426Y3415487D01*
X6069482Y3408476D01*
X6083300Y3403092D01*
X6097676Y3399485D01*
X6112408Y3397656D01*
X6127242Y3397656D01*
X6141974Y3399485D01*
X6156350Y3403092D01*
X6170218Y3408476D01*
X6183274Y3415487D01*
X6195364Y3424021D01*
X6206337Y3434029D01*
X6215989Y3445306D01*
X6224168Y3457651D01*
X6230823Y3470960D01*
X6235750Y3484930D01*
X6238900Y3499459D01*
X6240272Y3514191D01*
X6239814Y3529025D01*
X6237528Y3543706D01*
X6233464Y3557981D01*
X6227724Y3571646D01*
X6220307Y3584498D01*
X6211366Y3596335D01*
X6201003Y3606952D01*
X6189472Y3616248D01*
X6176822Y3624072D01*
X6163360Y3630269D01*
X6149238Y3634790D01*
X6134658Y3637483D01*
X6119825Y3638397D01*
X6105042Y3637483D01*
X6090462Y3634790D01*
X6076289Y3630269D01*
X6062827Y3624072D01*
X6050229Y3616248D01*
X6038646Y3606952D01*
X6028334Y3596335D01*
X6019393Y3584498D01*
X6011976Y3571646D01*
X6006185Y3557981D01*
X6002629Y3545382D01*
X6000546Y3541522D01*
X5997092Y3538931D01*
X5992825Y3537965D01*
X5988608Y3538931D01*
X5985103Y3541522D01*
X5983071Y3545382D01*
X5979464Y3557981D01*
X5973724Y3571646D01*
X5966307Y3584498D01*
X5957366Y3596335D01*
X5947003Y3606952D01*
X5935472Y3616248D01*
X5922822Y3624072D01*
X5909360Y3630269D01*
X5895238Y3634790D01*
X5880658Y3637483D01*
X5865825Y3638397D01*
X5851042Y3637483D01*
X5836462Y3634790D01*
X5822289Y3630269D01*
X5808827Y3624072D01*
X5796229Y3616248D01*
X5784646Y3606952D01*
X5774334Y3596335D01*
X5765393Y3584498D01*
X5757976Y3571646D01*
X5752185Y3557981D01*
X5748629Y3545382D01*
X5746546Y3541522D01*
X5743092Y3538931D01*
X5738825Y3537965D01*
X5734608Y3538931D01*
X5731103Y3541522D01*
X5729071Y3545382D01*
X5725464Y3557981D01*
X5719724Y3571646D01*
X5712307Y3584498D01*
X5703366Y3596335D01*
X5693003Y3606952D01*
X5681472Y3616248D01*
X5668822Y3624072D01*
X5655360Y3630269D01*
X5641238Y3634790D01*
X5626658Y3637483D01*
X5611825Y3638397D01*
X5597042Y3637483D01*
X5582462Y3634790D01*
X5568289Y3630269D01*
X5554827Y3624072D01*
X5542229Y3616248D01*
X5530646Y3606952D01*
X5520334Y3596335D01*
X5511393Y3584498D01*
X5503976Y3571646D01*
X5498185Y3557981D01*
X5494629Y3545382D01*
X5492546Y3541522D01*
X5489092Y3538931D01*
X5484825Y3537965D01*
X5480608Y3538931D01*
X5477103Y3541522D01*
X5475071Y3545382D01*
X5471464Y3557981D01*
X5465724Y3571646D01*
X5458307Y3584498D01*
X5449366Y3596335D01*
X5439003Y3606952D01*
X5427472Y3616248D01*
X5414822Y3624072D01*
X5401360Y3630269D01*
X5387238Y3634790D01*
X5372658Y3637483D01*
X5357825Y3638397D01*
X5343042Y3637483D01*
X5328462Y3634790D01*
X5314289Y3630269D01*
X5300827Y3624072D01*
X5288229Y3616248D01*
X5276646Y3606952D01*
X5266334Y3596335D01*
X5257393Y3584498D01*
X5249976Y3571646D01*
X5244185Y3557981D01*
X5240629Y3545382D01*
X5238546Y3541522D01*
X5235092Y3538931D01*
X5230825Y3537965D01*
X5226608Y3538931D01*
X5223103Y3541522D01*
X5221071Y3545382D01*
X5217464Y3557981D01*
X5211724Y3571646D01*
X5204307Y3584498D01*
X5195366Y3596335D01*
X5185003Y3606952D01*
X5173472Y3616248D01*
X5160822Y3624072D01*
X5147360Y3630269D01*
X5133238Y3634790D01*
X5118658Y3637483D01*
X5103825Y3638397D01*
X5089042Y3637483D01*
X5074462Y3634790D01*
X5060289Y3630269D01*
X5046827Y3624072D01*
X5034229Y3616248D01*
X5022646Y3606952D01*
X5012334Y3596335D01*
X5003393Y3584498D01*
X4995976Y3571646D01*
X4990185Y3557981D01*
X4986629Y3545382D01*
X4984546Y3541522D01*
X4981092Y3538931D01*
X4976825Y3537965D01*
X4972608Y3538931D01*
X4969103Y3541522D01*
X4967071Y3545382D01*
X4963464Y3557981D01*
X4957724Y3571646D01*
X4950307Y3584498D01*
X4941366Y3596335D01*
X4931003Y3606952D01*
X4919472Y3616248D01*
X4906822Y3624072D01*
X4893360Y3630269D01*
X4879238Y3634790D01*
X4864658Y3637483D01*
X4849825Y3638397D01*
X4835042Y3637483D01*
X4820462Y3634790D01*
X4806289Y3630269D01*
X4792827Y3624072D01*
X4780229Y3616248D01*
X4768646Y3606952D01*
X4758334Y3596335D01*
X4749393Y3584498D01*
X4741976Y3571646D01*
X4735880Y3557219D01*
X4733696Y3553917D01*
X4730394Y3551732D01*
X4726482Y3550970D01*
X4722622Y3551783D01*
X4719320Y3553968D01*
X4717135Y3557270D01*
X4716373Y3561130D01*
X4716373Y3597401D01*
X4715560Y3605784D01*
X4713274Y3613404D01*
X4709515Y3620363D01*
X4704486Y3626510D01*
X4698339Y3631539D01*
X4691329Y3635298D01*
X4683760Y3637584D01*
X4675378Y3638397D01*
X4516374Y3638397D01*
X4507992Y3637584D01*
X4500372Y3635298D01*
X4493412Y3631539D01*
X4487265Y3626510D01*
X4482236Y3620363D01*
X4478477Y3613404D01*
X4476191Y3605784D01*
X4475378Y3597401D01*
X4475378Y3438398D01*
X4476191Y3430015D01*
X4478477Y3422396D01*
X4482236Y3415436D01*
X4487265Y3409289D01*
X4493412Y3404260D01*
X4500372Y3400501D01*
X4507992Y3398215D01*
X4516374Y3397402D01*
X4532528Y3397402D01*
X4536389Y3396640D01*
X4539691Y3394405D01*
X4541875Y3391103D01*
X4542688Y3387242D01*
X4542688Y3340303D01*
X4542891Y3335477D01*
X4543501Y3330854D01*
X4544466Y3326333D01*
X4545888Y3321913D01*
X4547666Y3317595D01*
X4549800Y3313480D01*
X4552289Y3309569D01*
X4555134Y3305911D01*
X4558385Y3302304D01*
X5040680Y2820009D01*
X5044287Y2816758D01*
X5047945Y2813913D01*
X5051856Y2811424D01*
X5055971Y2809290D01*
X5060289Y2807512D01*
X5064709Y2806090D01*
X5069230Y2805125D01*
X5073853Y2804515D01*
X5078679Y2804261D01*
X5777585Y2804261D01*
X5781344Y2803550D01*
X5784596Y2801518D01*
X5786780Y2798368D01*
X5787745Y2794660D01*
X5787186Y2790850D01*
X5785307Y2787548D01*
X5783072Y2784906D01*
X5777230Y2775407D01*
X5772962Y2765145D01*
X5770372Y2754325D01*
X5769508Y2743200D01*
X5770372Y2732125D01*
X5773369Y2720086D01*
X5773572Y2716428D01*
X5772454Y2712974D01*
X5770219Y2710078D01*
X5767070Y2708148D01*
X5763463Y2707487D01*
X5687669Y2707487D01*
X5684113Y2708148D01*
X5681065Y2709926D01*
X5678982Y2711704D01*
X5669483Y2717546D01*
X5659221Y2721813D01*
X5648401Y2724404D01*
X5637276Y2725267D01*
X5626150Y2724404D01*
X5615330Y2721813D01*
X5605068Y2717546D01*
X5595569Y2711704D01*
X5587085Y2704490D01*
X5579872Y2696006D01*
X5574030Y2686507D01*
X5569762Y2676245D01*
X5567172Y2665425D01*
X5566308Y2654300D01*
X5567172Y2643174D01*
X5569762Y2632354D01*
X5574030Y2622092D01*
X5579872Y2612593D01*
X5587085Y2604109D01*
X5595569Y2596896D01*
X5605576Y2590749D01*
X5608523Y2588056D01*
X5610148Y2584399D01*
X5610250Y2580386D01*
X5608828Y2576626D01*
X5606034Y2573731D01*
X5602376Y2572156D01*
X5590184Y2569616D01*
X5575554Y2564638D01*
X5561584Y2557983D01*
X5548477Y2549753D01*
X5536488Y2540000D01*
X5525719Y2528925D01*
X5516321Y2516632D01*
X5508498Y2503322D01*
X5506872Y2499664D01*
X5504738Y2496566D01*
X5501589Y2494432D01*
X5497880Y2493619D01*
X5494121Y2494229D01*
X5490870Y2496159D01*
X5488533Y2499156D01*
X5482945Y2510078D01*
X5474309Y2522880D01*
X5464200Y2534615D01*
X5452821Y2545029D01*
X5440222Y2554071D01*
X5426710Y2561539D01*
X5412384Y2567330D01*
X5397449Y2571394D01*
X5382158Y2573680D01*
X5366715Y2574137D01*
X5351322Y2572766D01*
X5336184Y2569616D01*
X5321554Y2564638D01*
X5307584Y2557983D01*
X5294477Y2549753D01*
X5282488Y2540000D01*
X5271719Y2528925D01*
X5262321Y2516632D01*
X5254498Y2503322D01*
X5252872Y2499664D01*
X5250738Y2496566D01*
X5247589Y2494432D01*
X5243880Y2493619D01*
X5240121Y2494229D01*
X5236870Y2496159D01*
X5234533Y2499156D01*
X5228945Y2510078D01*
X5220309Y2522880D01*
X5210200Y2534615D01*
X5198821Y2545029D01*
X5186222Y2554071D01*
X5172710Y2561539D01*
X5158384Y2567330D01*
X5143449Y2571394D01*
X5128158Y2573680D01*
X5112715Y2574137D01*
X5097322Y2572766D01*
X5082184Y2569616D01*
X5067554Y2564638D01*
X5053584Y2557983D01*
X5040477Y2549753D01*
X5028488Y2540000D01*
X5017719Y2528925D01*
X5008321Y2516632D01*
X5000498Y2503322D01*
X4998872Y2499664D01*
X4996738Y2496566D01*
X4993589Y2494432D01*
X4989880Y2493619D01*
X4986324Y2494178D01*
X4989220Y2492349D01*
X4991455Y2489352D01*
X4992471Y2485694D01*
X4992065Y2481935D01*
X4989728Y2474366D01*
X4986985Y2459126D01*
X4986070Y2443734D01*
X4986985Y2428290D01*
X4989728Y2413050D01*
X4992065Y2405481D01*
X4992471Y2401722D01*
X4991455Y2398115D01*
X4989220Y2395067D01*
X4986324Y2393238D01*
X4989880Y2393797D01*
X4993589Y2392984D01*
X4996738Y2390851D01*
X4998872Y2387752D01*
X5000498Y2384145D01*
X5008321Y2370836D01*
X5017719Y2358542D01*
X5028488Y2347417D01*
X5040477Y2337663D01*
X5054092Y2329129D01*
X5057241Y2325928D01*
X5058765Y2321661D01*
X5058257Y2317191D01*
X5055870Y2313381D01*
X5046776Y2304135D01*
X5043424Y2301900D01*
X5039512Y2301087D01*
X4909667Y2301087D01*
X4906721Y2301697D01*
X4903774Y2301087D01*
X4821377Y2301087D01*
X4818583Y2301646D01*
X4815840Y2301087D01*
X4622139Y2301087D01*
X4618228Y2301900D01*
X4614926Y2304084D01*
X3871671Y3047390D01*
X3868064Y3050641D01*
X3864406Y3053486D01*
X3860495Y3055975D01*
X3856380Y3058109D01*
X3852062Y3059887D01*
X3847642Y3061309D01*
X3843121Y3062274D01*
X3838498Y3062884D01*
X3833672Y3063087D01*
X3216960Y3063087D01*
X3212896Y3063951D01*
X3209544Y3066338D01*
X3207410Y3069844D01*
X3202736Y3082848D01*
X3195574Y3097377D01*
X3186836Y3111042D01*
X3176574Y3123590D01*
X3164941Y3134918D01*
X3152089Y3144824D01*
X3150412Y3145840D01*
X3147364Y3148634D01*
X3145688Y3152444D01*
X3145688Y3156610D01*
X3147364Y3160420D01*
X3150412Y3163214D01*
X3152089Y3164230D01*
X3164941Y3174136D01*
X3176574Y3185414D01*
X3186836Y3198012D01*
X3195574Y3211626D01*
X3202736Y3226206D01*
X3208223Y3241497D01*
X3211880Y3257296D01*
X3213709Y3273399D01*
X3213709Y3289655D01*
X3211880Y3305759D01*
X3208223Y3321558D01*
X3202736Y3336848D01*
X3195574Y3351377D01*
X3186836Y3365042D01*
X3176574Y3377590D01*
X3164941Y3388918D01*
X3152089Y3398824D01*
X3150412Y3399840D01*
X3147364Y3402634D01*
X3145688Y3406444D01*
X3145688Y3410610D01*
X3147364Y3414420D01*
X3150412Y3417214D01*
X3152089Y3418230D01*
X3164941Y3428136D01*
X3176574Y3439414D01*
X3186836Y3452012D01*
X3195574Y3465626D01*
X3202736Y3480206D01*
X3208223Y3495497D01*
X3211880Y3511296D01*
X3213709Y3527399D01*
X3213709Y3543655D01*
X3211880Y3559759D01*
X3208223Y3575558D01*
X3202736Y3590848D01*
X3195574Y3605377D01*
X3186836Y3619042D01*
X3176574Y3631590D01*
X3164941Y3642918D01*
X3152089Y3652824D01*
X3150412Y3653840D01*
X3147364Y3656634D01*
X3145688Y3660444D01*
X3145688Y3664610D01*
X3147364Y3668420D01*
X3150412Y3671214D01*
X3152089Y3672230D01*
X3164941Y3682136D01*
X3176574Y3693414D01*
X3186836Y3706012D01*
X3195574Y3719626D01*
X3202736Y3734206D01*
X3208223Y3749497D01*
X3211880Y3765296D01*
X3213709Y3781399D01*
X3213709Y3797655D01*
X3211880Y3813759D01*
X3208223Y3829558D01*
X3202736Y3844848D01*
X3195574Y3859377D01*
X3186836Y3873042D01*
X3176574Y3885590D01*
X3164941Y3896918D01*
X3152089Y3906824D01*
X3150412Y3907840D01*
X3147364Y3910634D01*
X3145688Y3914444D01*
X3145688Y3918610D01*
X3147364Y3922420D01*
X3150412Y3925214D01*
X3152089Y3926230D01*
X3164941Y3936136D01*
X3176574Y3947414D01*
X3186836Y3960012D01*
X3195574Y3973626D01*
X3202736Y3988206D01*
X3208223Y4003497D01*
X3211880Y4019296D01*
X3213709Y4035399D01*
X3213709Y4051655D01*
X3211880Y4067759D01*
X3208223Y4083558D01*
X3202736Y4098848D01*
X3195574Y4113377D01*
X3186836Y4127042D01*
X3176574Y4139590D01*
X3164941Y4150918D01*
X3152089Y4160824D01*
X3150412Y4161840D01*
X3147364Y4164634D01*
X3145688Y4168444D01*
X3145688Y4172610D01*
X3147364Y4176420D01*
X3150412Y4179214D01*
X3152089Y4180230D01*
X3164941Y4190136D01*
X3176574Y4201414D01*
X3186836Y4214012D01*
X3195574Y4227626D01*
X3202736Y4242206D01*
X3208223Y4257497D01*
X3211880Y4273296D01*
X3213709Y4289399D01*
X3213709Y4305655D01*
X3211880Y4321759D01*
X3208223Y4337558D01*
X3202736Y4352848D01*
X3195574Y4367377D01*
X3186836Y4381042D01*
X3176574Y4393590D01*
X3164941Y4404918D01*
X3152089Y4414824D01*
X3138170Y4423206D01*
X3123438Y4429912D01*
X3107994Y4434941D01*
X3092094Y4438192D01*
X3075940Y4439564D01*
X3059684Y4439107D01*
X3043631Y4436770D01*
X3027934Y4432655D01*
X3012846Y4426762D01*
X2998470Y4419193D01*
X2985109Y4410049D01*
X2972816Y4399432D01*
X2961843Y4387443D01*
X2952343Y4374337D01*
X2944368Y4360214D01*
X2938018Y4345279D01*
X2933446Y4329684D01*
X2930702Y4313732D01*
X2929788Y4297527D01*
X2930702Y4281322D01*
X2933446Y4265320D01*
X2938018Y4249775D01*
X2944368Y4234840D01*
X2952343Y4220718D01*
X2961843Y4207560D01*
X2972816Y4195622D01*
X2985109Y4185005D01*
X2993999Y4178909D01*
X2996742Y4176115D01*
X2998216Y4172458D01*
X2998216Y4168546D01*
X2996742Y4164939D01*
X2993999Y4162145D01*
X2985109Y4156049D01*
X2972816Y4145432D01*
X2961843Y4133443D01*
X2952343Y4120337D01*
X2944368Y4106214D01*
X2938018Y4091279D01*
X2933446Y4075684D01*
X2930702Y4059732D01*
X2929788Y4043527D01*
X2930702Y4027322D01*
X2933446Y4011320D01*
X2938018Y3995775D01*
X2944368Y3980840D01*
X2952343Y3966718D01*
X2961843Y3953560D01*
X2972816Y3941622D01*
X2985109Y3931005D01*
X2993999Y3924909D01*
X2996742Y3922115D01*
X2998216Y3918458D01*
X2998216Y3914546D01*
X2996742Y3910939D01*
X2993999Y3908145D01*
X2985109Y3902049D01*
X2972816Y3891432D01*
X2961843Y3879443D01*
X2952343Y3866337D01*
X2944368Y3852214D01*
X2938018Y3837279D01*
X2933446Y3821684D01*
X2930702Y3805732D01*
X2929788Y3789527D01*
X2930702Y3773322D01*
X2933446Y3757320D01*
X2938018Y3741775D01*
X2944368Y3726840D01*
X2952343Y3712718D01*
X2961843Y3699560D01*
X2972816Y3687622D01*
X2985109Y3677005D01*
X2993999Y3670909D01*
X2996742Y3668115D01*
X2998216Y3664458D01*
X2998216Y3660546D01*
X2996742Y3656939D01*
X2993999Y3654145D01*
X2985109Y3648049D01*
X2972816Y3637432D01*
X2961843Y3625443D01*
X2952343Y3612337D01*
X2944368Y3598214D01*
X2938018Y3583279D01*
X2933446Y3567684D01*
X2930702Y3551732D01*
X2929788Y3535527D01*
X2930702Y3519322D01*
X2933446Y3503320D01*
X2938018Y3487775D01*
X2944368Y3472840D01*
X2952343Y3458718D01*
X2961843Y3445560D01*
X2972816Y3433622D01*
X2985109Y3423005D01*
X2993999Y3416909D01*
X2996742Y3414115D01*
X2998216Y3410458D01*
X2998216Y3406546D01*
X2996742Y3402939D01*
X2993999Y3400145D01*
X2985109Y3394049D01*
X2972816Y3383432D01*
X2961843Y3371443D01*
X2952343Y3358337D01*
X2944368Y3344214D01*
X2938018Y3329279D01*
X2933446Y3313684D01*
X2930702Y3297732D01*
X2929788Y3281527D01*
X2930702Y3265322D01*
X2933446Y3249320D01*
X2938018Y3233775D01*
X2944368Y3218840D01*
X2952343Y3204718D01*
X2961843Y3191560D01*
X2972816Y3179622D01*
X2985109Y3169005D01*
X2993999Y3162909D01*
X2996742Y3160115D01*
X2998216Y3156458D01*
X2998216Y3152546D01*
X2996742Y3148939D01*
X2993999Y3146145D01*
X2985109Y3140049D01*
X2972816Y3129432D01*
X2961843Y3117443D01*
X2952343Y3104337D01*
X2944368Y3090214D01*
X2938018Y3075279D01*
X2933446Y3059684D01*
X2930702Y3043732D01*
X2929788Y3027527D01*
X2930702Y3011322D01*
X2933446Y2995320D01*
X2938018Y2979775D01*
X2944368Y2964840D01*
X2952343Y2950718D01*
X2961843Y2937560D01*
X2972816Y2925622D01*
X2985109Y2915005D01*
X2993999Y2908909D01*
X2996742Y2906115D01*
X2998216Y2902458D01*
X2998216Y2898546D01*
X2996742Y2894939D01*
X2993999Y2892145D01*
X2985109Y2886049D01*
X2972816Y2875432D01*
X2961843Y2863443D01*
X2952343Y2850337D01*
X2944368Y2836214D01*
X2938018Y2821279D01*
X2933446Y2805684D01*
X2930702Y2789732D01*
X2929788Y2773527D01*
X2930702Y2757322D01*
X2933446Y2741320D01*
X2938018Y2725775D01*
X2944368Y2710840D01*
X2952343Y2696718D01*
X2961843Y2683560D01*
X2972816Y2671622D01*
X2985109Y2661005D01*
X2993999Y2654909D01*
X2996742Y2652115D01*
X2998216Y2648458D01*
X2998216Y2644546D01*
X2996742Y2640939D01*
X2993999Y2638145D01*
X2985109Y2632049D01*
X2972816Y2621432D01*
X2961843Y2609443D01*
X2952343Y2596337D01*
X2944368Y2582214D01*
X2938018Y2567279D01*
X2933446Y2551684D01*
X2930702Y2535732D01*
X2929788Y2519527D01*
X2930702Y2503322D01*
X2933446Y2487320D01*
X2938018Y2471775D01*
X2944368Y2456840D01*
X2952343Y2442718D01*
X2961843Y2429560D01*
X2972816Y2417622D01*
X2985109Y2407005D01*
X2993999Y2400909D01*
X2996742Y2398115D01*
X2998216Y2394458D01*
X2998216Y2390546D01*
X2996742Y2386939D01*
X2993999Y2384145D01*
X2985109Y2378049D01*
X2972816Y2367432D01*
X2961843Y2355443D01*
X2952343Y2342337D01*
X2944368Y2328214D01*
X2938018Y2313279D01*
X2933446Y2297684D01*
X2930702Y2281732D01*
X2929788Y2265527D01*
X2930702Y2249322D01*
X2933446Y2233320D01*
X2938018Y2217775D01*
X2944368Y2202840D01*
X2952343Y2188718D01*
X2961843Y2175560D01*
X2972816Y2163622D01*
X2985109Y2153005D01*
X2993999Y2146909D01*
X2996742Y2144115D01*
X2998216Y2140458D01*
X2998216Y2136546D01*
X2996742Y2132939D01*
X2993999Y2130145D01*
X2985109Y2124049D01*
X2972816Y2113432D01*
X2961843Y2101443D01*
X2952343Y2088337D01*
X2944368Y2074214D01*
X2938018Y2059279D01*
X2933446Y2043684D01*
X2930702Y2027732D01*
X2929788Y2011527D01*
X2930702Y1995322D01*
X2933446Y1979320D01*
X2938018Y1963775D01*
X2944368Y1948840D01*
X2952343Y1934718D01*
X2961843Y1921560D01*
X2972816Y1909622D01*
X2985109Y1899005D01*
X2993999Y1892909D01*
X2996742Y1890115D01*
X2998216Y1886457D01*
X2998216Y1882546D01*
X2996742Y1878939D01*
X2993999Y1876145D01*
X2985109Y1870049D01*
X2972816Y1859432D01*
X2961843Y1847443D01*
X2952343Y1834337D01*
X2944368Y1820214D01*
X2938018Y1805279D01*
X2933446Y1789684D01*
X2930702Y1773732D01*
X2929788Y1757527D01*
X2930702Y1741322D01*
X2933446Y1725320D01*
X2938018Y1709775D01*
X2944368Y1694840D01*
X2952343Y1680718D01*
X2961843Y1667560D01*
X2972816Y1655622D01*
X2985109Y1645005D01*
X2993999Y1638909D01*
X2996742Y1636115D01*
X2998216Y1632457D01*
X2998216Y1628546D01*
X2996742Y1624939D01*
X2993999Y1622145D01*
X2985109Y1616049D01*
X2972816Y1605432D01*
X2961843Y1593443D01*
X2952343Y1580337D01*
X2944368Y1566214D01*
X2942031Y1560677D01*
X3014726Y1560677D01*
X3014726Y1612696D01*
X3015386Y1616303D01*
X3017316Y1619453D01*
X3020263Y1621739D01*
X3023768Y1622806D01*
X3027476Y1622501D01*
X3043631Y1618234D01*
X3059684Y1615948D01*
X3075940Y1615490D01*
X3092094Y1616862D01*
X3107994Y1620113D01*
X3115716Y1622602D01*
X3119475Y1623060D01*
X3123184Y1622145D01*
X3126282Y1619910D01*
X3128314Y1616659D01*
X3129026Y1612950D01*
X3129026Y1560677D01*
X3201873Y1560677D01*
X3195574Y1573377D01*
X3186836Y1587042D01*
X3176574Y1599590D01*
X3164941Y1610918D01*
X3152089Y1620824D01*
X3150412Y1621840D01*
X3147364Y1624634D01*
X3145688Y1628444D01*
X3145688Y1632610D01*
X3147364Y1636420D01*
X3150412Y1639214D01*
X3152089Y1640230D01*
X3164941Y1650136D01*
X3176574Y1661414D01*
X3186836Y1674012D01*
X3195574Y1687626D01*
X3202736Y1702206D01*
X3208223Y1717497D01*
X3211880Y1733296D01*
X3213709Y1749399D01*
X3213709Y1765655D01*
X3211880Y1781759D01*
X3208223Y1797557D01*
X3202736Y1812848D01*
X3195574Y1827377D01*
X3186836Y1841042D01*
X3176574Y1853590D01*
X3164941Y1864918D01*
X3152089Y1874824D01*
X3150412Y1875840D01*
X3147364Y1878634D01*
X3145688Y1882444D01*
X3145688Y1886610D01*
X3147364Y1890420D01*
X3150412Y1893214D01*
X3152089Y1894230D01*
X3164941Y1904136D01*
X3176574Y1915414D01*
X3186836Y1928012D01*
X3195574Y1941626D01*
X3202736Y1956206D01*
X3208223Y1971497D01*
X3211880Y1987296D01*
X3213709Y2003399D01*
X3213709Y2019655D01*
X3211880Y2035759D01*
X3208223Y2051557D01*
X3202736Y2066848D01*
X3195574Y2081377D01*
X3186836Y2095042D01*
X3176574Y2107590D01*
X3164941Y2118918D01*
X3152089Y2128824D01*
X3150412Y2129840D01*
X3147364Y2132634D01*
X3145688Y2136444D01*
X3145688Y2140610D01*
X3147364Y2144420D01*
X3150412Y2147214D01*
X3152089Y2148230D01*
X3164941Y2158136D01*
X3176574Y2169414D01*
X3186836Y2182012D01*
X3195574Y2195626D01*
X3202736Y2210206D01*
X3208223Y2225497D01*
X3211880Y2241296D01*
X3213709Y2257399D01*
X3213709Y2273655D01*
X3211880Y2289759D01*
X3208223Y2305558D01*
X3202736Y2320848D01*
X3195574Y2335377D01*
X3186836Y2349042D01*
X3176574Y2361590D01*
X3164941Y2372918D01*
X3152089Y2382824D01*
X3150412Y2383840D01*
X3147364Y2386634D01*
X3145688Y2390444D01*
X3145688Y2394610D01*
X3147364Y2398420D01*
X3150412Y2401214D01*
X3152089Y2402230D01*
X3164941Y2412136D01*
X3176574Y2423414D01*
X3186836Y2436012D01*
X3191967Y2444038D01*
X3194253Y2446528D01*
X3197199Y2448102D01*
X3200552Y2448661D01*
X3985412Y2448661D01*
X3989324Y2447899D01*
X3992626Y2445715D01*
X4405680Y2032609D01*
X4409287Y2029358D01*
X4412945Y2026513D01*
X4416856Y2024024D01*
X4420971Y2021890D01*
X4425289Y2020112D01*
X4429709Y2018690D01*
X4434230Y2017725D01*
X4438853Y2017115D01*
X4443679Y2016861D01*
X5522772Y2016861D01*
X5527598Y2017115D01*
X5532221Y2017725D01*
X5536742Y2018690D01*
X5541162Y2020112D01*
X5545480Y2021890D01*
X5549595Y2024024D01*
X5553506Y2026513D01*
X5557164Y2029358D01*
X5560771Y2032609D01*
X5662066Y2133904D01*
X5665317Y2137511D01*
X5668162Y2141169D01*
X5670651Y2145080D01*
X5672785Y2149195D01*
X5674563Y2153513D01*
X5675985Y2157933D01*
X5676950Y2162454D01*
X5677560Y2167077D01*
X5677814Y2171903D01*
X5677814Y2318308D01*
X5678424Y2321814D01*
X5680252Y2324912D01*
X5683046Y2327198D01*
X5694222Y2333345D01*
X5706821Y2342388D01*
X5718200Y2352802D01*
X5728309Y2364536D01*
X5736945Y2377338D01*
X5742533Y2388311D01*
X5744870Y2391257D01*
X5748121Y2393188D01*
X5751880Y2393797D01*
X5755589Y2392984D01*
X5758738Y2390851D01*
X5760872Y2387752D01*
X5762498Y2384145D01*
X5770321Y2370836D01*
X5779719Y2358542D01*
X5790488Y2347417D01*
X5802477Y2337663D01*
X5815584Y2329434D01*
X5829554Y2322779D01*
X5844184Y2317851D01*
X5859322Y2314651D01*
X5874715Y2313279D01*
X5890158Y2313736D01*
X5905449Y2316022D01*
X5920384Y2320086D01*
X5934710Y2325878D01*
X5948222Y2333345D01*
X5960821Y2342388D01*
X5972200Y2352802D01*
X5982309Y2364536D01*
X5990945Y2377338D01*
X5996533Y2388260D01*
X5998870Y2391257D01*
X6002121Y2393188D01*
X6005880Y2393797D01*
X6009589Y2392984D01*
X6012738Y2390851D01*
X6014872Y2387752D01*
X6016498Y2384094D01*
X6024321Y2370785D01*
X6033719Y2358491D01*
X6044488Y2347417D01*
X6056477Y2337663D01*
X6069584Y2329434D01*
X6083554Y2322779D01*
X6098184Y2317800D01*
X6113322Y2314651D01*
X6128715Y2313279D01*
X6144158Y2313736D01*
X6159449Y2315972D01*
X6174384Y2320086D01*
X6188710Y2325878D01*
X6202222Y2333345D01*
X6214821Y2342337D01*
X6226200Y2352802D01*
X6236309Y2364486D01*
X6244945Y2377338D01*
X6250533Y2388260D01*
X6252870Y2391257D01*
X6256121Y2393188D01*
X6259880Y2393797D01*
X6263589Y2392984D01*
X6266738Y2390851D01*
X6268872Y2387701D01*
X6270498Y2384094D01*
X6278321Y2370785D01*
X6287719Y2358491D01*
X6298488Y2347417D01*
X6310477Y2337663D01*
X6323584Y2329434D01*
X6337554Y2322779D01*
X6352184Y2317800D01*
X6367322Y2314651D01*
X6382715Y2313279D01*
X6398158Y2313736D01*
X6413449Y2315972D01*
X6428384Y2320086D01*
X6442710Y2325878D01*
X6456222Y2333345D01*
X6468821Y2342337D01*
X6480200Y2352802D01*
X6490309Y2364486D01*
X6498945Y2377338D01*
X6504533Y2388260D01*
X6506870Y2391257D01*
X6510121Y2393188D01*
X6513880Y2393797D01*
X6517589Y2392984D01*
X6520738Y2390851D01*
X6522872Y2387701D01*
X6524498Y2384094D01*
X6532321Y2370785D01*
X6541719Y2358491D01*
X6552488Y2347417D01*
X6564477Y2337663D01*
X6577584Y2329434D01*
X6591553Y2322779D01*
X6606184Y2317800D01*
X6621322Y2314651D01*
X6636715Y2313279D01*
X6652158Y2313736D01*
X6667449Y2315972D01*
X6682384Y2320086D01*
X6696709Y2325878D01*
X6710222Y2333345D01*
X6722821Y2342337D01*
X6734200Y2352802D01*
X6744309Y2364486D01*
X6752945Y2377338D01*
X6758533Y2388260D01*
X6760870Y2391257D01*
X6764121Y2393188D01*
X6767880Y2393797D01*
X6771589Y2392984D01*
X6774738Y2390851D01*
X6776872Y2387701D01*
X6778498Y2384094D01*
X6786321Y2370785D01*
X6795719Y2358491D01*
X6806488Y2347417D01*
X6818477Y2337663D01*
X6831584Y2329434D01*
X6845553Y2322779D01*
X6860184Y2317800D01*
X6875322Y2314651D01*
X6890715Y2313279D01*
X6906158Y2313736D01*
X6921449Y2315972D01*
X6936384Y2320086D01*
X6950709Y2325878D01*
X6964222Y2333345D01*
X6976821Y2342337D01*
X6988200Y2352802D01*
X6998309Y2364486D01*
X7006945Y2377338D01*
X7012533Y2388260D01*
X7014870Y2391257D01*
X7018121Y2393188D01*
X7021880Y2393797D01*
X7025589Y2392984D01*
X7028738Y2390851D01*
X7030872Y2387701D01*
X7032498Y2384094D01*
X7040321Y2370785D01*
X7049719Y2358491D01*
X7060488Y2347417D01*
X7072477Y2337663D01*
X7085584Y2329434D01*
X7099553Y2322779D01*
X7114184Y2317800D01*
X7129322Y2314651D01*
X7144715Y2313279D01*
X7160158Y2313736D01*
X7175449Y2315972D01*
X7190384Y2320086D01*
X7204709Y2325878D01*
X7218222Y2333345D01*
X7230821Y2342337D01*
X7242200Y2352802D01*
X7252309Y2364486D01*
X7260945Y2377338D01*
X7266533Y2388260D01*
X7268870Y2391257D01*
X7272121Y2393188D01*
X7275880Y2393797D01*
X7279589Y2392984D01*
X7282738Y2390851D01*
X7284872Y2387701D01*
X7286498Y2384094D01*
X7294321Y2370785D01*
X7303719Y2358491D01*
X7314488Y2347417D01*
X7326477Y2337663D01*
X7339584Y2329434D01*
X7353553Y2322779D01*
X7368184Y2317800D01*
X7383322Y2314651D01*
X7398715Y2313279D01*
X7414158Y2313736D01*
X7429449Y2315972D01*
X7444384Y2320086D01*
X7458709Y2325878D01*
X7472222Y2333345D01*
X7484821Y2342337D01*
X7496200Y2352802D01*
X7506309Y2364486D01*
X7514945Y2377338D01*
X7520533Y2388260D01*
X7522870Y2391257D01*
X7526121Y2393188D01*
X7529880Y2393797D01*
X7533589Y2392984D01*
X7536738Y2390851D01*
X7538872Y2387701D01*
X7540498Y2384094D01*
X7548321Y2370785D01*
X7557719Y2358491D01*
X7568488Y2347417D01*
X7580477Y2337663D01*
X7593584Y2329434D01*
X7607553Y2322779D01*
X7622184Y2317800D01*
X7637322Y2314651D01*
X7652715Y2313279D01*
X7668158Y2313736D01*
X7683449Y2315972D01*
X7698384Y2320086D01*
X7712709Y2325878D01*
X7726222Y2333345D01*
X7738821Y2342337D01*
X7750200Y2352802D01*
X7760309Y2364486D01*
X7768945Y2377338D01*
X7774533Y2388260D01*
X7776870Y2391257D01*
X7780121Y2393188D01*
X7783880Y2393797D01*
X7787589Y2392984D01*
X7790738Y2390851D01*
X7792872Y2387701D01*
X7794498Y2384094D01*
X7802321Y2370785D01*
X7811719Y2358491D01*
X7822488Y2347417D01*
X7834477Y2337663D01*
X7847584Y2329434D01*
X7861553Y2322779D01*
X7876184Y2317800D01*
X7891322Y2314651D01*
X7906715Y2313279D01*
X7922158Y2313736D01*
X7937449Y2315972D01*
X7952384Y2320086D01*
X7966709Y2325878D01*
X7980222Y2333345D01*
X7992821Y2342337D01*
X8004200Y2352802D01*
X8014309Y2364486D01*
X8015478Y2366264D01*
X8018576Y2369210D01*
X8022590Y2370632D01*
X8026857Y2370277D01*
X8030616Y2368194D01*
X8033156Y2364790D01*
X8034070Y2360574D01*
X8034070Y2354224D01*
X8034883Y2345842D01*
X8037169Y2338222D01*
X8040928Y2331212D01*
X8045958Y2325116D01*
X8052104Y2320086D01*
X8059115Y2316327D01*
X8066684Y2314041D01*
X8075066Y2313178D01*
X8254085Y2313178D01*
X8262467Y2314041D01*
X8270036Y2316327D01*
X8277047Y2320086D01*
X8283194Y2325116D01*
X8288223Y2331212D01*
X8291982Y2338222D01*
X8294268Y2345842D01*
X8295081Y2354224D01*
X8295081Y2533192D01*
X8294268Y2541625D01*
X8291982Y2549194D01*
X8288223Y2556205D01*
X8283194Y2562301D01*
X8277047Y2567381D01*
X8270036Y2571089D01*
X8262467Y2573375D01*
X8254085Y2574239D01*
X8227568Y2574239D01*
X8223961Y2574899D01*
X8220862Y2576779D01*
X8218576Y2579624D01*
X8217509Y2583129D01*
X8216950Y2587396D01*
X8215985Y2591866D01*
X8214563Y2596286D01*
X8212785Y2600604D01*
X8210651Y2604719D01*
X8208162Y2608630D01*
X8205317Y2612288D01*
X8202066Y2615895D01*
X8037271Y2780690D01*
X8033664Y2783941D01*
X8030921Y2786075D01*
X8028178Y2789224D01*
X8027009Y2793238D01*
X8027466Y2797403D01*
X8029600Y2801010D01*
X8033003Y2803448D01*
X8037118Y2804261D01*
X8252612Y2804261D01*
X8256524Y2803499D01*
X8259825Y2801315D01*
X8476691Y2584450D01*
X8478875Y2581148D01*
X8479688Y2577236D01*
X8479688Y2121763D01*
X8478875Y2117852D01*
X8476691Y2114550D01*
X8272525Y1910384D01*
X8269224Y1908200D01*
X8265312Y1907387D01*
X7325969Y1907387D01*
X7322413Y1908048D01*
X7319365Y1909825D01*
X7317282Y1911604D01*
X7307783Y1917446D01*
X7297521Y1921713D01*
X7286701Y1924304D01*
X7275575Y1925167D01*
X7264450Y1924304D01*
X7253630Y1921713D01*
X7243368Y1917446D01*
X7233869Y1911604D01*
X7225385Y1904390D01*
X7218172Y1895906D01*
X7212330Y1886407D01*
X7208062Y1876145D01*
X7205472Y1865325D01*
X7204608Y1854200D01*
X7205472Y1843074D01*
X7208062Y1832254D01*
X7212330Y1821992D01*
X7218172Y1812493D01*
X7225385Y1804009D01*
X7233869Y1796796D01*
X7243368Y1790954D01*
X7253630Y1786686D01*
X7264450Y1784096D01*
X7275575Y1783232D01*
X7286701Y1784096D01*
X7297521Y1786686D01*
X7307783Y1790954D01*
X7317282Y1796796D01*
X7319365Y1798574D01*
X7322413Y1800352D01*
X7325969Y1800961D01*
X7496200Y1800961D01*
X7500416Y1800098D01*
X7503820Y1797557D01*
X7505903Y1793798D01*
X7506309Y1789531D01*
X7500162Y1774545D01*
X7497572Y1763725D01*
X7496708Y1752600D01*
X7497572Y1741474D01*
X7500162Y1730654D01*
X7506309Y1715668D01*
X7505903Y1711401D01*
X7503820Y1707642D01*
X7500416Y1705102D01*
X7496200Y1704187D01*
X6666179Y1704187D01*
X6661353Y1703984D01*
X6656730Y1703374D01*
X6652209Y1702409D01*
X6647789Y1700987D01*
X6643471Y1699209D01*
X6639356Y1697075D01*
X6635445Y1694586D01*
X6631787Y1691741D01*
X6628180Y1688490D01*
X6349085Y1409395D01*
X6345834Y1405788D01*
X6342989Y1402130D01*
X6340500Y1398219D01*
X6338366Y1394104D01*
X6336588Y1389786D01*
X6335166Y1385366D01*
X6334201Y1380845D01*
X6333591Y1376222D01*
X6333388Y1371396D01*
X6333388Y1009040D01*
X6332677Y1005332D01*
X6330645Y1002131D01*
X6327597Y999896D01*
X6323584Y997966D01*
X6310477Y989736D01*
X6298488Y979982D01*
X6287719Y968908D01*
X6278321Y956614D01*
X6270498Y943305D01*
X6268872Y939647D01*
X6266738Y936548D01*
X6263589Y934415D01*
X6259880Y933602D01*
X6256121Y934212D01*
X6252870Y936142D01*
X6250533Y939139D01*
X6244945Y950061D01*
X6236309Y962863D01*
X6226200Y974598D01*
X6214821Y985012D01*
X6202222Y994054D01*
X6188710Y1001521D01*
X6174384Y1007313D01*
X6159449Y1011377D01*
X6144158Y1013663D01*
X6128715Y1014120D01*
X6113322Y1012748D01*
X6098184Y1009599D01*
X6083554Y1004620D01*
X6069584Y997966D01*
X6056477Y989736D01*
X6044488Y979982D01*
X6033719Y968908D01*
X6024321Y956614D01*
X6016498Y943305D01*
X6014872Y939647D01*
X6012738Y936548D01*
X6009589Y934415D01*
X6005880Y933602D01*
X6002121Y934212D01*
X5998870Y936142D01*
X5996533Y939139D01*
X5990945Y950061D01*
X5982309Y962863D01*
X5972200Y974598D01*
X5960821Y985012D01*
X5948222Y994054D01*
X5934710Y1001521D01*
X5920384Y1007313D01*
X5905449Y1011377D01*
X5890158Y1013663D01*
X5874715Y1014120D01*
X5859322Y1012748D01*
X5844184Y1009599D01*
X5829554Y1004620D01*
X5815584Y997966D01*
X5802477Y989736D01*
X5790488Y979982D01*
X5779719Y968908D01*
X5770321Y956614D01*
X5762498Y943305D01*
X5760872Y939647D01*
X5758738Y936548D01*
X5755589Y934415D01*
X5751880Y933602D01*
X5748121Y934212D01*
X5744870Y936142D01*
X5742533Y939139D01*
X5736945Y950061D01*
X5728309Y962863D01*
X5718200Y974598D01*
X5706821Y985012D01*
X5694222Y994054D01*
X5680710Y1001521D01*
X5666384Y1007313D01*
X5651449Y1011377D01*
X5636158Y1013663D01*
X5620715Y1014120D01*
X5605322Y1012748D01*
X5590184Y1009599D01*
X5575554Y1004620D01*
X5561584Y997966D01*
X5548477Y989736D01*
X5536488Y979982D01*
X5525719Y968908D01*
X5516321Y956614D01*
X5508498Y943305D01*
X5506872Y939647D01*
X5504738Y936548D01*
X5501589Y934415D01*
X5497880Y933602D01*
X5494121Y934212D01*
X5490870Y936142D01*
X5488533Y939139D01*
X5482945Y950061D01*
X5474309Y962863D01*
X5464200Y974598D01*
X5452821Y985012D01*
X5440222Y994054D01*
X5426710Y1001521D01*
X5412384Y1007313D01*
X5397449Y1011377D01*
X5382158Y1013663D01*
X5366715Y1014120D01*
X5351322Y1012748D01*
X5336184Y1009599D01*
X5321554Y1004620D01*
X5307584Y997966D01*
X5294477Y989736D01*
X5282488Y979982D01*
X5271719Y968908D01*
X5262321Y956614D01*
X5254498Y943305D01*
X5252872Y939647D01*
X5250738Y936548D01*
X5247589Y934415D01*
X5243880Y933602D01*
X5240121Y934212D01*
X5236870Y936142D01*
X5234533Y939139D01*
X5228945Y950061D01*
X5220309Y962863D01*
X5210200Y974598D01*
X5198821Y985012D01*
X5186222Y994054D01*
X5172710Y1001521D01*
X5158384Y1007313D01*
X5143449Y1011377D01*
X5128158Y1013663D01*
X5112715Y1014120D01*
X5097322Y1012748D01*
X5082184Y1009599D01*
X5067554Y1004620D01*
X5053584Y997966D01*
X5040477Y989736D01*
X5028488Y979982D01*
X5017719Y968908D01*
X5008321Y956614D01*
X5000498Y943305D01*
X4998872Y939647D01*
X4996738Y936548D01*
X4993589Y934415D01*
X4989880Y933602D01*
X4986121Y934212D01*
X4982870Y936142D01*
X4980533Y939139D01*
X4974945Y950061D01*
X4966309Y962863D01*
X4956200Y974598D01*
X4944821Y985012D01*
X4932222Y994054D01*
X4918710Y1001521D01*
X4904384Y1007313D01*
X4889449Y1011377D01*
X4874158Y1013663D01*
X4858715Y1014120D01*
X4843322Y1012748D01*
X4828184Y1009599D01*
X4813554Y1004620D01*
X4799584Y997966D01*
X4786477Y989736D01*
X4774488Y979982D01*
X4763719Y968908D01*
X4754321Y956614D01*
X4746498Y943305D01*
X4740249Y929132D01*
X4735728Y914349D01*
X4732985Y899109D01*
X4732070Y883716D01*
X4732985Y868273D01*
X4735728Y853033D01*
X4740249Y838250D01*
X4746498Y824128D01*
X4754321Y810818D01*
X4763719Y798525D01*
X4774488Y787400D01*
X4786477Y777697D01*
X4799584Y769416D01*
X4813554Y762762D01*
X4828184Y757834D01*
X4843322Y754634D01*
X4858715Y753262D01*
X4874158Y753719D01*
X4889449Y756005D01*
X4904384Y760069D01*
X4918710Y765911D01*
X4932222Y773328D01*
X4944821Y782370D01*
X4956200Y792784D01*
X4966309Y804519D01*
X4974945Y817321D01*
X4980533Y828294D01*
X4982870Y831240D01*
X4986121Y833170D01*
X4989880Y833780D01*
X4993589Y832967D01*
X4996738Y830834D01*
X4998872Y827735D01*
X5000498Y824128D01*
X5008321Y810818D01*
X5017719Y798525D01*
X5028488Y787400D01*
X5040477Y777697D01*
X5053584Y769416D01*
X5067554Y762762D01*
X5082184Y757834D01*
X5097322Y754634D01*
X5112715Y753262D01*
X5128158Y753719D01*
X5143449Y756005D01*
X5158384Y760069D01*
X5172710Y765911D01*
X5186222Y773328D01*
X5198821Y782370D01*
X5210200Y792784D01*
X5220309Y804519D01*
X5228945Y817321D01*
X5234533Y828294D01*
X5236870Y831240D01*
X5240121Y833170D01*
X5243880Y833780D01*
X5247589Y832967D01*
X5250738Y830834D01*
X5252872Y827735D01*
X5254498Y824128D01*
X5262321Y810818D01*
X5271719Y798525D01*
X5282488Y787400D01*
X5294477Y777697D01*
X5307584Y769416D01*
X5321554Y762762D01*
X5336184Y757834D01*
X5351322Y754634D01*
X5366715Y753262D01*
X5382158Y753719D01*
X5397449Y756005D01*
X5412384Y760069D01*
X5426710Y765911D01*
X5440222Y773328D01*
X5452821Y782370D01*
X5464200Y792784D01*
X5474309Y804519D01*
X5482945Y817321D01*
X5488533Y828294D01*
X5490870Y831240D01*
X5494121Y833170D01*
X5497880Y833780D01*
X5501589Y832967D01*
X5504738Y830834D01*
X5506872Y827735D01*
X5508498Y824128D01*
X5516321Y810818D01*
X5525719Y798525D01*
X5536488Y787400D01*
X5548477Y777697D01*
X5561584Y769416D01*
X5575554Y762762D01*
X5590184Y757834D01*
X5605322Y754634D01*
X5620715Y753262D01*
X5636158Y753719D01*
X5651449Y756005D01*
X5666384Y760069D01*
X5680710Y765911D01*
X5694222Y773328D01*
X5706821Y782370D01*
X5718200Y792784D01*
X5728309Y804519D01*
X5736945Y817321D01*
X5742533Y828294D01*
X5744870Y831240D01*
X5748121Y833170D01*
X5751880Y833780D01*
X5755589Y832967D01*
X5758738Y830834D01*
X5760872Y827735D01*
X5762498Y824128D01*
X5770321Y810818D01*
X5779719Y798525D01*
X5790488Y787400D01*
X5802477Y777697D01*
X5815584Y769416D01*
X5829554Y762762D01*
X5844184Y757834D01*
X5859322Y754634D01*
X5874715Y753262D01*
X5890158Y753719D01*
X5905449Y756005D01*
X5920384Y760069D01*
X5934710Y765911D01*
X5948222Y773328D01*
X5960821Y782370D01*
X5972200Y792784D01*
X5982309Y804519D01*
X5990945Y817321D01*
X5996533Y828294D01*
X5998870Y831240D01*
X6002121Y833170D01*
X6005880Y833780D01*
X6009589Y832967D01*
X6012738Y830834D01*
X6014872Y827735D01*
X6016498Y824128D01*
X6024321Y810818D01*
X6033719Y798525D01*
X6044488Y787400D01*
X6056477Y777697D01*
X6069584Y769416D01*
X6083554Y762762D01*
X6098184Y757834D01*
X6113322Y754634D01*
X6128715Y753262D01*
X6144158Y753719D01*
X6159449Y756005D01*
X6174384Y760069D01*
X6188710Y765911D01*
X6202222Y773328D01*
X6214821Y782370D01*
X6226200Y792784D01*
X6236309Y804519D01*
X6244945Y817321D01*
X6250533Y828294D01*
X6252870Y831240D01*
X6256121Y833170D01*
X6259880Y833780D01*
X6263589Y832967D01*
X6266738Y830834D01*
X6268872Y827735D01*
X6270498Y824128D01*
X6278321Y810818D01*
X6287719Y798525D01*
X6298488Y787400D01*
X6310477Y777697D01*
X6323584Y769416D01*
X6337554Y762762D01*
X6352184Y757834D01*
X6367322Y754634D01*
X6382715Y753262D01*
X6398158Y753719D01*
X6413449Y756005D01*
X6428384Y760069D01*
X6442710Y765911D01*
X6456222Y773328D01*
X6468821Y782370D01*
X6480200Y792784D01*
X6490309Y804519D01*
X6498945Y817321D01*
X6504533Y828294D01*
X6506870Y831240D01*
X6510121Y833170D01*
X6513880Y833780D01*
X6517589Y832967D01*
X6520738Y830834D01*
X6522872Y827735D01*
X6524498Y824128D01*
X6532321Y810818D01*
X6541719Y798525D01*
X6552488Y787400D01*
X6564477Y777697D01*
X6577584Y769416D01*
X6581597Y767537D01*
X6584645Y765251D01*
X6586677Y762050D01*
X6587388Y758342D01*
X6587388Y737463D01*
X6586575Y733552D01*
X6584391Y730250D01*
X6354826Y500684D01*
X6351524Y498500D01*
X6347612Y497687D01*
X5865469Y497687D01*
X5861913Y498348D01*
X5858865Y500126D01*
X5856782Y501904D01*
X5847283Y507746D01*
X5837021Y512013D01*
X5826201Y514604D01*
X5815076Y515467D01*
X5803950Y514604D01*
X5793130Y512013D01*
X5782868Y507746D01*
X5773369Y501904D01*
X5764885Y494690D01*
X5757672Y486206D01*
X5751830Y476707D01*
X5747562Y466445D01*
X5744972Y455625D01*
X5744108Y444500D01*
X5744972Y433374D01*
X5747562Y422554D01*
X5751830Y412292D01*
X5757672Y402793D01*
X5764885Y394309D01*
X5773369Y387096D01*
X5782868Y381254D01*
X5793130Y376986D01*
X5803950Y374396D01*
G37*
G36*
X7889951Y476199D02*
G01*
X7918399Y476199D01*
X7918399Y544118D01*
X7848955Y544118D01*
X7848955Y517194D01*
X7849768Y508812D01*
X7852105Y501192D01*
X7855813Y494233D01*
X7860842Y488086D01*
X7866989Y483057D01*
X7874000Y479298D01*
X7881569Y477012D01*
G37*
G36*
X751941Y5300065D02*
G01*
X888847Y5300065D01*
X877112Y5321046D01*
X863346Y5341670D01*
X848004Y5361127D01*
X831189Y5379313D01*
X813003Y5396128D01*
X793546Y5411470D01*
X772922Y5425236D01*
X751941Y5436971D01*
G37*
G36*
X9337141Y5274665D02*
G01*
X9474047Y5274665D01*
X9462312Y5295646D01*
X9448546Y5316270D01*
X9433204Y5335727D01*
X9416389Y5353913D01*
X9398203Y5370728D01*
X9378746Y5386070D01*
X9358122Y5399836D01*
X9337141Y5411571D01*
G37*
G36*
X8912504Y5274665D02*
G01*
X9049410Y5274665D01*
X9049410Y5411571D01*
X9028430Y5399836D01*
X9007805Y5386070D01*
X8988348Y5370728D01*
X8970162Y5353913D01*
X8953347Y5335727D01*
X8938006Y5316270D01*
X8924239Y5295646D01*
G37*
G36*
X751941Y537565D02*
G01*
X888847Y537565D01*
X877112Y558546D01*
X863346Y579170D01*
X848004Y598627D01*
X831189Y616813D01*
X813003Y633628D01*
X793546Y648970D01*
X772922Y662736D01*
X751941Y674471D01*
G37*
G36*
X327304Y537565D02*
G01*
X464210Y537565D01*
X464210Y674471D01*
X443230Y662736D01*
X422605Y648970D01*
X403148Y633628D01*
X384962Y616813D01*
X368147Y598627D01*
X352806Y579170D01*
X339039Y558546D01*
G37*
G36*
X1551940Y599490D02*
G01*
X1568094Y600862D01*
X1583994Y604113D01*
X1599438Y609092D01*
X1614170Y615848D01*
X1628089Y624230D01*
X1640941Y634136D01*
X1652574Y645414D01*
X1662836Y658012D01*
X1671574Y671626D01*
X1678736Y686206D01*
X1684223Y701497D01*
X1687880Y717296D01*
X1689709Y733399D01*
X1689709Y749655D01*
X1687880Y765759D01*
X1684223Y781558D01*
X1678736Y796848D01*
X1671574Y811377D01*
X1662836Y825042D01*
X1652574Y837590D01*
X1640941Y848918D01*
X1628089Y858824D01*
X1626412Y859840D01*
X1623364Y862634D01*
X1621688Y866444D01*
X1621688Y870610D01*
X1623364Y874420D01*
X1626412Y877214D01*
X1628089Y878230D01*
X1640941Y888136D01*
X1652574Y899414D01*
X1662836Y912012D01*
X1671574Y925626D01*
X1677873Y938377D01*
X1605026Y938377D01*
X1605026Y886104D01*
X1604314Y882345D01*
X1602282Y879144D01*
X1599184Y876909D01*
X1595475Y875944D01*
X1591716Y876452D01*
X1583994Y878941D01*
X1568094Y882192D01*
X1551940Y883564D01*
X1535684Y883107D01*
X1519631Y880770D01*
X1503476Y876553D01*
X1499768Y876249D01*
X1496263Y877316D01*
X1493316Y879551D01*
X1491386Y882700D01*
X1490726Y886358D01*
X1490726Y938377D01*
X1418031Y938377D01*
X1420368Y932840D01*
X1428343Y918718D01*
X1437843Y905560D01*
X1448816Y893622D01*
X1461109Y883005D01*
X1469999Y876909D01*
X1472742Y874115D01*
X1474216Y870458D01*
X1474216Y866546D01*
X1472742Y862939D01*
X1469999Y860145D01*
X1461109Y854049D01*
X1448816Y843432D01*
X1437843Y831443D01*
X1428343Y818337D01*
X1420368Y804214D01*
X1414018Y789279D01*
X1409446Y773684D01*
X1406702Y757732D01*
X1405788Y741527D01*
X1406702Y725322D01*
X1409446Y709320D01*
X1414018Y693775D01*
X1420368Y678840D01*
X1428343Y664718D01*
X1437843Y651560D01*
X1448816Y639622D01*
X1461109Y629005D01*
X1474470Y619810D01*
X1488846Y612241D01*
X1503934Y606399D01*
X1519631Y602234D01*
X1535684Y599948D01*
G37*
G36*
X3075940Y599490D02*
G01*
X3092094Y600862D01*
X3107994Y604113D01*
X3123438Y609092D01*
X3138170Y615848D01*
X3152089Y624230D01*
X3164941Y634136D01*
X3176574Y645414D01*
X3186836Y658012D01*
X3195574Y671626D01*
X3202736Y686206D01*
X3208223Y701497D01*
X3211880Y717296D01*
X3213709Y733399D01*
X3213709Y749655D01*
X3211880Y765759D01*
X3208223Y781558D01*
X3202736Y796848D01*
X3195574Y811377D01*
X3186836Y825042D01*
X3176574Y837590D01*
X3164941Y848918D01*
X3152089Y858824D01*
X3150412Y859840D01*
X3147364Y862634D01*
X3145688Y866444D01*
X3145688Y870610D01*
X3147364Y874420D01*
X3150412Y877214D01*
X3152089Y878230D01*
X3164941Y888136D01*
X3176574Y899414D01*
X3186836Y912012D01*
X3195574Y925626D01*
X3202736Y940206D01*
X3208223Y955497D01*
X3211880Y971296D01*
X3213709Y987399D01*
X3213709Y1003655D01*
X3211880Y1019759D01*
X3208223Y1035558D01*
X3202736Y1050848D01*
X3195574Y1065377D01*
X3186836Y1079042D01*
X3176574Y1091590D01*
X3164941Y1102918D01*
X3152089Y1112824D01*
X3150412Y1113840D01*
X3147364Y1116634D01*
X3145688Y1120444D01*
X3145688Y1124610D01*
X3147364Y1128420D01*
X3150412Y1131214D01*
X3152089Y1132230D01*
X3164941Y1142136D01*
X3176574Y1153414D01*
X3186836Y1166012D01*
X3195574Y1179626D01*
X3202736Y1194206D01*
X3208223Y1209497D01*
X3211880Y1225296D01*
X3213709Y1241399D01*
X3213709Y1257655D01*
X3211880Y1273759D01*
X3208223Y1289558D01*
X3202736Y1304848D01*
X3195574Y1319377D01*
X3186836Y1333042D01*
X3176574Y1345590D01*
X3164941Y1356918D01*
X3152089Y1366824D01*
X3150412Y1367840D01*
X3147364Y1370634D01*
X3145688Y1374444D01*
X3145688Y1378610D01*
X3147364Y1382420D01*
X3150412Y1385214D01*
X3152089Y1386230D01*
X3164941Y1396136D01*
X3176574Y1407414D01*
X3186836Y1420012D01*
X3195574Y1433626D01*
X3201873Y1446377D01*
X3129026Y1446377D01*
X3129026Y1394104D01*
X3128314Y1390345D01*
X3126282Y1387144D01*
X3123184Y1384909D01*
X3119475Y1383944D01*
X3115716Y1384452D01*
X3107994Y1386941D01*
X3092094Y1390192D01*
X3075940Y1391564D01*
X3059684Y1391107D01*
X3043631Y1388770D01*
X3027476Y1384554D01*
X3023768Y1384249D01*
X3020263Y1385316D01*
X3017316Y1387551D01*
X3015386Y1390700D01*
X3014726Y1394358D01*
X3014726Y1446377D01*
X2942031Y1446377D01*
X2944368Y1440840D01*
X2952343Y1426718D01*
X2961843Y1413560D01*
X2972816Y1401622D01*
X2985109Y1391005D01*
X2993999Y1384909D01*
X2996742Y1382115D01*
X2998216Y1378458D01*
X2998216Y1374546D01*
X2996742Y1370939D01*
X2993999Y1368145D01*
X2985109Y1362049D01*
X2972816Y1351432D01*
X2961843Y1339443D01*
X2952343Y1326337D01*
X2944368Y1312214D01*
X2938018Y1297279D01*
X2933446Y1281684D01*
X2930702Y1265732D01*
X2929788Y1249527D01*
X2930702Y1233322D01*
X2933446Y1217320D01*
X2938018Y1201775D01*
X2944368Y1186840D01*
X2952343Y1172718D01*
X2961843Y1159560D01*
X2972816Y1147622D01*
X2985109Y1137005D01*
X2993999Y1130909D01*
X2996742Y1128115D01*
X2998216Y1124458D01*
X2998216Y1120546D01*
X2996742Y1116939D01*
X2993999Y1114145D01*
X2985109Y1108049D01*
X2972816Y1097432D01*
X2961843Y1085443D01*
X2952343Y1072337D01*
X2944368Y1058214D01*
X2938018Y1043279D01*
X2933446Y1027684D01*
X2930702Y1011732D01*
X2929788Y995527D01*
X2930702Y979322D01*
X2933446Y963320D01*
X2938018Y947775D01*
X2944368Y932840D01*
X2952343Y918718D01*
X2961843Y905560D01*
X2972816Y893622D01*
X2985109Y883005D01*
X2993999Y876909D01*
X2996742Y874115D01*
X2998216Y870458D01*
X2998216Y866546D01*
X2996742Y862939D01*
X2993999Y860145D01*
X2985109Y854049D01*
X2972816Y843432D01*
X2961843Y831443D01*
X2952343Y818337D01*
X2944368Y804214D01*
X2938018Y789279D01*
X2933446Y773684D01*
X2930702Y757732D01*
X2929788Y741527D01*
X2930702Y725322D01*
X2933446Y709320D01*
X2938018Y693775D01*
X2944368Y678840D01*
X2952343Y664718D01*
X2961843Y651560D01*
X2972816Y639622D01*
X2985109Y629005D01*
X2998470Y619810D01*
X3012846Y612241D01*
X3027934Y606399D01*
X3043631Y602234D01*
X3059684Y599948D01*
G37*
G36*
X7848955Y624281D02*
G01*
X7918399Y624281D01*
X7918399Y692200D01*
X7889951Y692200D01*
X7881569Y691388D01*
X7874000Y689102D01*
X7866989Y685342D01*
X7860842Y680313D01*
X7855813Y674166D01*
X7852105Y667207D01*
X7849768Y659587D01*
X7848955Y651205D01*
G37*
G36*
X464210Y4875428D02*
G01*
X464210Y5012334D01*
X327304Y5012334D01*
X339039Y4991354D01*
X352806Y4970729D01*
X368147Y4951272D01*
X384962Y4933086D01*
X403148Y4916271D01*
X422605Y4900930D01*
X443230Y4887163D01*
G37*
G36*
X751941Y4875428D02*
G01*
X772922Y4887163D01*
X793546Y4900930D01*
X813003Y4916271D01*
X831189Y4933086D01*
X848004Y4951272D01*
X863346Y4970729D01*
X877112Y4991354D01*
X888847Y5012334D01*
X751941Y5012334D01*
G37*
G36*
X9049410Y4850028D02*
G01*
X9049410Y4986934D01*
X8912504Y4986934D01*
X8924239Y4965954D01*
X8938006Y4945329D01*
X8953347Y4925872D01*
X8970162Y4907686D01*
X8988348Y4890871D01*
X9007805Y4875530D01*
X9028430Y4861763D01*
G37*
G36*
X9337141Y4850028D02*
G01*
X9358122Y4861763D01*
X9378746Y4875530D01*
X9398203Y4890871D01*
X9416389Y4907686D01*
X9433204Y4925872D01*
X9448546Y4945329D01*
X9462312Y4965954D01*
X9474047Y4986934D01*
X9337141Y4986934D01*
G37*
G36*
X8757005Y3564280D02*
G01*
X8821623Y3564280D01*
X8818524Y3571646D01*
X8811107Y3584498D01*
X8802166Y3596335D01*
X8791803Y3606952D01*
X8780272Y3616248D01*
X8767622Y3624072D01*
X8757005Y3628999D01*
G37*
G36*
X6420205Y3564280D02*
G01*
X6484823Y3564280D01*
X6481724Y3571646D01*
X6474307Y3584498D01*
X6465366Y3596335D01*
X6455003Y3606952D01*
X6443472Y3616248D01*
X6430822Y3624072D01*
X6420205Y3628999D01*
G37*
G36*
X8599678Y3564280D02*
G01*
X8664295Y3564280D01*
X8664295Y3628999D01*
X8653627Y3624072D01*
X8641029Y3616248D01*
X8629446Y3606952D01*
X8619134Y3596335D01*
X8610193Y3584498D01*
X8602776Y3571646D01*
G37*
G36*
X6262878Y3564280D02*
G01*
X6327495Y3564280D01*
X6327495Y3628999D01*
X6316827Y3624072D01*
X6304229Y3616248D01*
X6292646Y3606952D01*
X6282334Y3596335D01*
X6273393Y3584498D01*
X6265976Y3571646D01*
G37*
G36*
X6327495Y3406901D02*
G01*
X6327495Y3471570D01*
X6262674Y3471570D01*
X6269482Y3457651D01*
X6277660Y3445306D01*
X6287312Y3434029D01*
X6298285Y3424021D01*
X6310426Y3415487D01*
X6323482Y3408476D01*
G37*
G36*
X8757005Y3406901D02*
G01*
X8761018Y3408476D01*
X8774074Y3415487D01*
X8786164Y3424021D01*
X8797137Y3434029D01*
X8806789Y3445306D01*
X8814968Y3457651D01*
X8821826Y3471570D01*
X8757005Y3471570D01*
G37*
G36*
X6420205Y3406901D02*
G01*
X6424218Y3408476D01*
X6437274Y3415487D01*
X6449364Y3424021D01*
X6460337Y3434029D01*
X6469989Y3445306D01*
X6478168Y3457651D01*
X6485026Y3471570D01*
X6420205Y3471570D01*
G37*
G36*
X8664295Y3406901D02*
G01*
X8664295Y3471570D01*
X8599474Y3471570D01*
X8606282Y3457651D01*
X8614460Y3445306D01*
X8624112Y3434029D01*
X8635085Y3424021D01*
X8647226Y3415487D01*
X8660282Y3408476D01*
G37*
G36*
X6853174Y3397402D02*
G01*
X7012178Y3397402D01*
X7020559Y3398215D01*
X7028129Y3400501D01*
X7035139Y3404260D01*
X7041286Y3409289D01*
X7046315Y3415436D01*
X7050074Y3422396D01*
X7052360Y3430015D01*
X7053173Y3438398D01*
X7053173Y3475380D01*
X7053986Y3479342D01*
X7056272Y3482695D01*
X7059675Y3484879D01*
X7063638Y3485540D01*
X7067600Y3484626D01*
X7070852Y3482238D01*
X7072934Y3478784D01*
X7075678Y3470960D01*
X7082281Y3457651D01*
X7090460Y3445306D01*
X7100112Y3434029D01*
X7111085Y3424021D01*
X7123226Y3415487D01*
X7136282Y3408476D01*
X7150100Y3403092D01*
X7164476Y3399485D01*
X7179208Y3397656D01*
X7194042Y3397656D01*
X7208774Y3399485D01*
X7223150Y3403092D01*
X7237018Y3408476D01*
X7250074Y3415487D01*
X7262164Y3424021D01*
X7273137Y3434029D01*
X7282789Y3445306D01*
X7290968Y3457651D01*
X7297623Y3470960D01*
X7302550Y3484930D01*
X7303719Y3490315D01*
X7305294Y3493922D01*
X7308088Y3496665D01*
X7311694Y3498138D01*
X7315606Y3498138D01*
X7319213Y3496665D01*
X7322007Y3493922D01*
X7323581Y3490315D01*
X7324750Y3484930D01*
X7329678Y3470960D01*
X7336281Y3457651D01*
X7344460Y3445306D01*
X7354112Y3434029D01*
X7365085Y3424021D01*
X7377226Y3415487D01*
X7390282Y3408476D01*
X7404100Y3403092D01*
X7418476Y3399485D01*
X7433208Y3397656D01*
X7448042Y3397656D01*
X7462774Y3399485D01*
X7477150Y3403092D01*
X7491018Y3408476D01*
X7504074Y3415487D01*
X7516164Y3424021D01*
X7527137Y3434029D01*
X7536789Y3445306D01*
X7544968Y3457651D01*
X7551623Y3470960D01*
X7556550Y3484930D01*
X7557719Y3490315D01*
X7559294Y3493922D01*
X7562088Y3496665D01*
X7565694Y3498138D01*
X7569606Y3498138D01*
X7573213Y3496665D01*
X7576007Y3493922D01*
X7577581Y3490315D01*
X7578750Y3484930D01*
X7583678Y3470960D01*
X7590281Y3457651D01*
X7598460Y3445306D01*
X7608112Y3434029D01*
X7619085Y3424021D01*
X7631226Y3415487D01*
X7644282Y3408476D01*
X7658100Y3403092D01*
X7672476Y3399485D01*
X7687208Y3397656D01*
X7702042Y3397656D01*
X7716774Y3399485D01*
X7731150Y3403092D01*
X7745018Y3408476D01*
X7758074Y3415487D01*
X7770164Y3424021D01*
X7781137Y3434029D01*
X7790789Y3445306D01*
X7798968Y3457651D01*
X7805623Y3470960D01*
X7810550Y3484930D01*
X7811719Y3490315D01*
X7813294Y3493922D01*
X7816088Y3496665D01*
X7819694Y3498138D01*
X7823606Y3498138D01*
X7827213Y3496665D01*
X7830007Y3493922D01*
X7831581Y3490315D01*
X7832750Y3484930D01*
X7837678Y3470960D01*
X7844281Y3457651D01*
X7852460Y3445306D01*
X7862112Y3434029D01*
X7873085Y3424021D01*
X7885226Y3415487D01*
X7898282Y3408476D01*
X7912100Y3403092D01*
X7926476Y3399485D01*
X7941208Y3397656D01*
X7956042Y3397656D01*
X7970774Y3399485D01*
X7985150Y3403092D01*
X7999018Y3408476D01*
X8012074Y3415487D01*
X8024164Y3424021D01*
X8035137Y3434029D01*
X8044789Y3445306D01*
X8052968Y3457651D01*
X8059623Y3470960D01*
X8064550Y3484930D01*
X8065719Y3490315D01*
X8067294Y3493922D01*
X8070088Y3496665D01*
X8073694Y3498138D01*
X8077606Y3498138D01*
X8081213Y3496665D01*
X8084007Y3493922D01*
X8085581Y3490315D01*
X8086750Y3484930D01*
X8091678Y3470960D01*
X8098281Y3457651D01*
X8106460Y3445306D01*
X8116112Y3434029D01*
X8127085Y3424021D01*
X8139226Y3415487D01*
X8152282Y3408476D01*
X8166100Y3403092D01*
X8180476Y3399485D01*
X8195208Y3397656D01*
X8210042Y3397656D01*
X8224774Y3399485D01*
X8239150Y3403092D01*
X8253018Y3408476D01*
X8266074Y3415487D01*
X8278164Y3424021D01*
X8289137Y3434029D01*
X8298789Y3445306D01*
X8306968Y3457651D01*
X8313623Y3470960D01*
X8318550Y3484930D01*
X8319719Y3490315D01*
X8321294Y3493922D01*
X8324088Y3496665D01*
X8327694Y3498138D01*
X8331606Y3498138D01*
X8335213Y3496665D01*
X8338007Y3493922D01*
X8339581Y3490315D01*
X8340750Y3484930D01*
X8345678Y3470960D01*
X8352281Y3457651D01*
X8360460Y3445306D01*
X8370112Y3434029D01*
X8381085Y3424021D01*
X8393226Y3415487D01*
X8406282Y3408476D01*
X8420100Y3403092D01*
X8434476Y3399485D01*
X8449208Y3397656D01*
X8464042Y3397656D01*
X8478774Y3399485D01*
X8493150Y3403092D01*
X8507018Y3408476D01*
X8520074Y3415487D01*
X8532164Y3424021D01*
X8543137Y3434029D01*
X8552789Y3445306D01*
X8560968Y3457651D01*
X8567623Y3470960D01*
X8572550Y3484930D01*
X8575700Y3499459D01*
X8577072Y3514191D01*
X8576614Y3529025D01*
X8574328Y3543706D01*
X8570264Y3557981D01*
X8564524Y3571646D01*
X8557107Y3584498D01*
X8548166Y3596335D01*
X8537803Y3606952D01*
X8526272Y3616248D01*
X8513622Y3624072D01*
X8500160Y3630269D01*
X8486038Y3634790D01*
X8471458Y3637483D01*
X8456625Y3638397D01*
X8441842Y3637483D01*
X8427262Y3634790D01*
X8413089Y3630269D01*
X8399627Y3624072D01*
X8387029Y3616248D01*
X8375446Y3606952D01*
X8365134Y3596335D01*
X8356193Y3584498D01*
X8348776Y3571646D01*
X8342985Y3557981D01*
X8339429Y3545382D01*
X8337346Y3541522D01*
X8333892Y3538931D01*
X8329625Y3537965D01*
X8325408Y3538931D01*
X8321903Y3541522D01*
X8319871Y3545382D01*
X8316264Y3557981D01*
X8310524Y3571646D01*
X8303107Y3584498D01*
X8294166Y3596335D01*
X8283803Y3606952D01*
X8272272Y3616248D01*
X8259622Y3624072D01*
X8246160Y3630269D01*
X8232038Y3634790D01*
X8217458Y3637483D01*
X8202625Y3638397D01*
X8187842Y3637483D01*
X8173262Y3634790D01*
X8159089Y3630269D01*
X8145627Y3624072D01*
X8133029Y3616248D01*
X8121446Y3606952D01*
X8111134Y3596335D01*
X8102193Y3584498D01*
X8094776Y3571646D01*
X8088985Y3557981D01*
X8085429Y3545382D01*
X8083346Y3541522D01*
X8079892Y3538931D01*
X8075625Y3537965D01*
X8071408Y3538931D01*
X8067903Y3541522D01*
X8065871Y3545382D01*
X8062264Y3557981D01*
X8056524Y3571646D01*
X8049107Y3584498D01*
X8040166Y3596335D01*
X8029803Y3606952D01*
X8018272Y3616248D01*
X8005622Y3624072D01*
X7992160Y3630269D01*
X7978038Y3634790D01*
X7963458Y3637483D01*
X7948625Y3638397D01*
X7933842Y3637483D01*
X7919262Y3634790D01*
X7905089Y3630269D01*
X7891627Y3624072D01*
X7879029Y3616248D01*
X7867446Y3606952D01*
X7857134Y3596335D01*
X7848193Y3584498D01*
X7840776Y3571646D01*
X7834985Y3557981D01*
X7831429Y3545382D01*
X7829346Y3541522D01*
X7825892Y3538931D01*
X7821625Y3537965D01*
X7817408Y3538931D01*
X7813903Y3541522D01*
X7811871Y3545382D01*
X7808264Y3557981D01*
X7802524Y3571646D01*
X7795107Y3584498D01*
X7786166Y3596335D01*
X7775803Y3606952D01*
X7764272Y3616248D01*
X7751622Y3624072D01*
X7738160Y3630269D01*
X7724038Y3634790D01*
X7709458Y3637483D01*
X7694625Y3638397D01*
X7679842Y3637483D01*
X7665262Y3634790D01*
X7651089Y3630269D01*
X7637627Y3624072D01*
X7625029Y3616248D01*
X7613446Y3606952D01*
X7603134Y3596335D01*
X7594193Y3584498D01*
X7586776Y3571646D01*
X7580985Y3557981D01*
X7577429Y3545382D01*
X7575346Y3541522D01*
X7571892Y3538931D01*
X7567625Y3537965D01*
X7563408Y3538931D01*
X7559903Y3541522D01*
X7557871Y3545382D01*
X7554264Y3557981D01*
X7548524Y3571646D01*
X7541107Y3584498D01*
X7532166Y3596335D01*
X7521803Y3606952D01*
X7510272Y3616248D01*
X7497622Y3624072D01*
X7484160Y3630269D01*
X7470038Y3634790D01*
X7455458Y3637483D01*
X7440625Y3638397D01*
X7425842Y3637483D01*
X7411262Y3634790D01*
X7397089Y3630269D01*
X7383627Y3624072D01*
X7371029Y3616248D01*
X7359446Y3606952D01*
X7349134Y3596335D01*
X7340193Y3584498D01*
X7332776Y3571646D01*
X7326985Y3557981D01*
X7323429Y3545382D01*
X7321346Y3541522D01*
X7317892Y3538931D01*
X7313625Y3537965D01*
X7309408Y3538931D01*
X7305903Y3541522D01*
X7303871Y3545382D01*
X7300264Y3557981D01*
X7294524Y3571646D01*
X7287107Y3584498D01*
X7278166Y3596335D01*
X7267803Y3606952D01*
X7256272Y3616248D01*
X7243622Y3624072D01*
X7230160Y3630269D01*
X7216038Y3634790D01*
X7201458Y3637483D01*
X7186625Y3638397D01*
X7171842Y3637483D01*
X7157262Y3634790D01*
X7143089Y3630269D01*
X7129627Y3624072D01*
X7117029Y3616248D01*
X7105446Y3606952D01*
X7095134Y3596335D01*
X7086193Y3584498D01*
X7078776Y3571646D01*
X7072680Y3557219D01*
X7070496Y3553917D01*
X7067194Y3551732D01*
X7063282Y3550970D01*
X7059422Y3551783D01*
X7056120Y3553968D01*
X7053935Y3557270D01*
X7053173Y3561130D01*
X7053173Y3597401D01*
X7052360Y3605784D01*
X7050074Y3613404D01*
X7046315Y3620363D01*
X7041286Y3626510D01*
X7035139Y3631539D01*
X7028129Y3635298D01*
X7020559Y3637584D01*
X7012178Y3638397D01*
X6853174Y3638397D01*
X6844792Y3637584D01*
X6837172Y3635298D01*
X6830212Y3631539D01*
X6824065Y3626510D01*
X6819036Y3620363D01*
X6815277Y3613404D01*
X6812991Y3605784D01*
X6812178Y3597401D01*
X6812178Y3438398D01*
X6812991Y3430015D01*
X6815277Y3422396D01*
X6819036Y3415436D01*
X6824065Y3409289D01*
X6830212Y3404260D01*
X6837172Y3400501D01*
X6844792Y3398215D01*
G37*
G36*
X751941Y112928D02*
G01*
X772922Y124663D01*
X793546Y138430D01*
X813003Y153771D01*
X831189Y170586D01*
X848004Y188772D01*
X863346Y208229D01*
X877112Y228854D01*
X888847Y249834D01*
X751941Y249834D01*
G37*
G36*
X4985867Y2494381D02*
G01*
X4982870Y2496159D01*
X4980533Y2499156D01*
X4974945Y2510078D01*
X4966309Y2522880D01*
X4956200Y2534615D01*
X4944821Y2545029D01*
X4932222Y2554071D01*
X4918710Y2561539D01*
X4913934Y2563469D01*
X4913934Y2495042D01*
X4982311Y2495042D01*
G37*
G36*
X4913934Y2323947D02*
G01*
X4918710Y2325878D01*
X4932222Y2333345D01*
X4944821Y2342388D01*
X4956200Y2352802D01*
X4966309Y2364536D01*
X4974945Y2377338D01*
X4980533Y2388311D01*
X4982870Y2391257D01*
X4985867Y2393035D01*
X4982311Y2392375D01*
X4913934Y2392375D01*
G37*
G36*
X4811217Y2323896D02*
G01*
X4811217Y2392375D01*
X4742840Y2392375D01*
X4746498Y2384145D01*
X4754321Y2370836D01*
X4763719Y2358542D01*
X4774488Y2347417D01*
X4786477Y2337663D01*
X4799584Y2329434D01*
G37*
G36*
X4742840Y2495042D02*
G01*
X4811217Y2495042D01*
X4811217Y2563520D01*
X4799584Y2557983D01*
X4786477Y2549753D01*
X4774488Y2540000D01*
X4763719Y2528925D01*
X4754321Y2516632D01*
X4746498Y2503322D01*
G37*

%LPD*%
G36*
X4716119Y3989832D02*
G01*
X4712208Y3990594D01*
X4708956Y3992778D01*
X4555032Y4146702D01*
X4552645Y4150410D01*
X4552086Y4154728D01*
X4553356Y4158894D01*
X4556302Y4162145D01*
X4560316Y4163872D01*
X4564684Y4163720D01*
X4573676Y4161485D01*
X4588408Y4159656D01*
X4603242Y4159656D01*
X4617974Y4161485D01*
X4632350Y4165092D01*
X4646218Y4170476D01*
X4659274Y4177487D01*
X4671364Y4186021D01*
X4682337Y4196029D01*
X4691989Y4207306D01*
X4700168Y4219651D01*
X4706823Y4232960D01*
X4711750Y4246930D01*
X4712919Y4252315D01*
X4714494Y4255922D01*
X4717288Y4258665D01*
X4720894Y4260138D01*
X4724806Y4260138D01*
X4728413Y4258665D01*
X4731207Y4255922D01*
X4732782Y4252315D01*
X4733950Y4246930D01*
X4738878Y4232960D01*
X4745482Y4219651D01*
X4753660Y4207306D01*
X4763312Y4196029D01*
X4774285Y4186021D01*
X4786426Y4177487D01*
X4799482Y4170476D01*
X4813300Y4165092D01*
X4827676Y4161485D01*
X4842408Y4159656D01*
X4857242Y4159656D01*
X4871974Y4161485D01*
X4886350Y4165092D01*
X4900218Y4170476D01*
X4913274Y4177487D01*
X4925364Y4186021D01*
X4936337Y4196029D01*
X4945989Y4207306D01*
X4954168Y4219651D01*
X4960823Y4232960D01*
X4965750Y4246930D01*
X4966919Y4252315D01*
X4968494Y4255922D01*
X4971288Y4258665D01*
X4974894Y4260138D01*
X4978806Y4260138D01*
X4982413Y4258665D01*
X4985207Y4255922D01*
X4986782Y4252315D01*
X4987950Y4246930D01*
X4992878Y4232960D01*
X4999482Y4219651D01*
X5007660Y4207306D01*
X5017312Y4196029D01*
X5028285Y4186021D01*
X5040426Y4177487D01*
X5053482Y4170476D01*
X5067300Y4165092D01*
X5081676Y4161485D01*
X5096408Y4159656D01*
X5111242Y4159656D01*
X5125974Y4161485D01*
X5140350Y4165092D01*
X5154218Y4170476D01*
X5167274Y4177487D01*
X5179364Y4186021D01*
X5190337Y4196029D01*
X5199989Y4207306D01*
X5208168Y4219651D01*
X5214823Y4232960D01*
X5219750Y4246930D01*
X5222900Y4261459D01*
X5224272Y4276191D01*
X5223814Y4291025D01*
X5221528Y4305706D01*
X5217464Y4319981D01*
X5211724Y4333646D01*
X5204307Y4346498D01*
X5195366Y4358335D01*
X5185003Y4368952D01*
X5173472Y4378248D01*
X5161889Y4385411D01*
X5159349Y4387697D01*
X5157673Y4390694D01*
X5157114Y4394047D01*
X5157114Y4571136D01*
X5157876Y4575048D01*
X5160060Y4578350D01*
X5326126Y4744415D01*
X5329428Y4746599D01*
X5333339Y4747361D01*
X5968085Y4747361D01*
X5971844Y4746650D01*
X5975096Y4744618D01*
X5977280Y4741468D01*
X5978245Y4737760D01*
X5977686Y4733950D01*
X5975807Y4730648D01*
X5973572Y4728006D01*
X5967730Y4718507D01*
X5963462Y4708245D01*
X5960872Y4697425D01*
X5960008Y4686300D01*
X5960872Y4675174D01*
X5963462Y4664354D01*
X5967730Y4654092D01*
X5973572Y4644593D01*
X5980785Y4636109D01*
X5987491Y4630420D01*
X5990031Y4627168D01*
X5991047Y4623206D01*
X5990437Y4619142D01*
X5988253Y4615688D01*
X5984900Y4613351D01*
X5980887Y4612487D01*
X5713679Y4612487D01*
X5708853Y4612284D01*
X5704230Y4611674D01*
X5699709Y4610709D01*
X5695289Y4609287D01*
X5690971Y4607509D01*
X5686856Y4605375D01*
X5682945Y4602886D01*
X5679287Y4600041D01*
X5675680Y4596790D01*
X5574385Y4495495D01*
X5571134Y4491888D01*
X5568289Y4488230D01*
X5565800Y4484319D01*
X5563666Y4480204D01*
X5561888Y4475886D01*
X5560466Y4471466D01*
X5559501Y4466945D01*
X5558891Y4462322D01*
X5558688Y4457496D01*
X5558688Y4394098D01*
X5558078Y4390745D01*
X5556402Y4387748D01*
X5553862Y4385462D01*
X5542229Y4378248D01*
X5530646Y4368952D01*
X5520334Y4358335D01*
X5511393Y4346498D01*
X5503976Y4333646D01*
X5498185Y4319981D01*
X5494121Y4305706D01*
X5491886Y4291025D01*
X5491429Y4276191D01*
X5492750Y4261459D01*
X5495950Y4246930D01*
X5500878Y4232960D01*
X5507482Y4219651D01*
X5515660Y4207306D01*
X5525312Y4196029D01*
X5536285Y4186021D01*
X5548426Y4177487D01*
X5561482Y4170476D01*
X5575300Y4165092D01*
X5589676Y4161485D01*
X5604408Y4159656D01*
X5619242Y4159656D01*
X5633974Y4161485D01*
X5648350Y4165092D01*
X5662218Y4170476D01*
X5675274Y4177487D01*
X5687364Y4186021D01*
X5698337Y4196029D01*
X5707989Y4207306D01*
X5716168Y4219651D01*
X5722823Y4232960D01*
X5727750Y4246930D01*
X5728919Y4252315D01*
X5730494Y4255922D01*
X5733288Y4258665D01*
X5736894Y4260138D01*
X5740806Y4260138D01*
X5744413Y4258665D01*
X5747207Y4255922D01*
X5748782Y4252315D01*
X5749950Y4246930D01*
X5754878Y4232960D01*
X5761482Y4219651D01*
X5769660Y4207306D01*
X5779312Y4196029D01*
X5790285Y4186021D01*
X5802426Y4177487D01*
X5815482Y4170476D01*
X5829300Y4165092D01*
X5843676Y4161485D01*
X5858408Y4159656D01*
X5873242Y4159656D01*
X5887974Y4161485D01*
X5902350Y4165092D01*
X5916218Y4170476D01*
X5929274Y4177487D01*
X5941364Y4186021D01*
X5952337Y4196029D01*
X5961989Y4207306D01*
X5970168Y4219651D01*
X5976823Y4232960D01*
X5981750Y4246930D01*
X5982919Y4252315D01*
X5984494Y4255922D01*
X5987288Y4258665D01*
X5990894Y4260138D01*
X5994806Y4260138D01*
X5998413Y4258665D01*
X6001207Y4255922D01*
X6002782Y4252315D01*
X6003950Y4246930D01*
X6008878Y4232960D01*
X6015482Y4219651D01*
X6023660Y4207306D01*
X6033312Y4196029D01*
X6044285Y4186021D01*
X6050076Y4181957D01*
X6052362Y4179722D01*
X6053836Y4176826D01*
X6054344Y4173677D01*
X6054344Y3999992D01*
X6053582Y3996080D01*
X6051397Y3992778D01*
X6048095Y3990594D01*
X6044184Y3989832D01*
G37*

%LPC*%
G36*
X5246878Y4326280D02*
G01*
X5311495Y4326280D01*
X5311495Y4390999D01*
X5300827Y4386072D01*
X5288229Y4378248D01*
X5276646Y4368952D01*
X5266334Y4358335D01*
X5257393Y4346498D01*
X5249976Y4333646D01*
G37*
G36*
X5311495Y4168901D02*
G01*
X5311495Y4233570D01*
X5246674Y4233570D01*
X5253482Y4219651D01*
X5261660Y4207306D01*
X5271312Y4196029D01*
X5282285Y4186021D01*
X5294426Y4177487D01*
X5307482Y4170476D01*
G37*
G36*
X5404205Y4326280D02*
G01*
X5468823Y4326280D01*
X5465724Y4333646D01*
X5458307Y4346498D01*
X5449366Y4358335D01*
X5439003Y4368952D01*
X5427472Y4378248D01*
X5414822Y4386072D01*
X5404205Y4390999D01*
G37*
G36*
X5404205Y4168901D02*
G01*
X5408218Y4170476D01*
X5421274Y4177487D01*
X5433364Y4186021D01*
X5444337Y4196029D01*
X5453989Y4207306D01*
X5462168Y4219651D01*
X5469026Y4233570D01*
X5404205Y4233570D01*
G37*

%LPD*%
G36*
X6195568Y3989832D02*
G01*
X6191656Y3990594D01*
X6188354Y3992778D01*
X6186170Y3996080D01*
X6185408Y3999992D01*
X6185408Y4173728D01*
X6185916Y4176877D01*
X6187389Y4179773D01*
X6189675Y4182008D01*
X6195364Y4186021D01*
X6206337Y4196029D01*
X6215989Y4207306D01*
X6224168Y4219651D01*
X6230823Y4232960D01*
X6235750Y4246930D01*
X6236919Y4252315D01*
X6238494Y4255922D01*
X6241288Y4258665D01*
X6244894Y4260138D01*
X6248806Y4260138D01*
X6252413Y4258665D01*
X6255207Y4255922D01*
X6256782Y4252315D01*
X6257950Y4246930D01*
X6262878Y4232960D01*
X6269482Y4219651D01*
X6277660Y4207306D01*
X6287312Y4196029D01*
X6298285Y4186021D01*
X6310426Y4177487D01*
X6323482Y4170476D01*
X6337300Y4165092D01*
X6351676Y4161485D01*
X6366408Y4159656D01*
X6381242Y4159656D01*
X6395974Y4161485D01*
X6410350Y4165092D01*
X6424218Y4170476D01*
X6437274Y4177487D01*
X6449364Y4186021D01*
X6460337Y4196029D01*
X6469989Y4207306D01*
X6478168Y4219651D01*
X6484823Y4232960D01*
X6489750Y4246930D01*
X6492900Y4261459D01*
X6494272Y4276191D01*
X6493814Y4291025D01*
X6491528Y4305706D01*
X6487464Y4319981D01*
X6481724Y4333646D01*
X6474307Y4346498D01*
X6465366Y4358335D01*
X6455003Y4368952D01*
X6443472Y4378248D01*
X6430822Y4386072D01*
X6417360Y4392269D01*
X6403238Y4396790D01*
X6388658Y4399483D01*
X6373825Y4400397D01*
X6359042Y4399483D01*
X6344462Y4396790D01*
X6330289Y4392269D01*
X6316827Y4386072D01*
X6304229Y4378248D01*
X6292646Y4368952D01*
X6282334Y4358335D01*
X6273393Y4346498D01*
X6265976Y4333646D01*
X6260185Y4319981D01*
X6256629Y4307382D01*
X6254546Y4303522D01*
X6251092Y4300931D01*
X6246825Y4299966D01*
X6242608Y4300931D01*
X6239103Y4303522D01*
X6237071Y4307382D01*
X6233464Y4319981D01*
X6227724Y4333646D01*
X6220307Y4346498D01*
X6211366Y4358335D01*
X6201003Y4368952D01*
X6189472Y4378248D01*
X6176822Y4386072D01*
X6163360Y4392269D01*
X6149238Y4396790D01*
X6134658Y4399483D01*
X6119825Y4400397D01*
X6105042Y4399483D01*
X6090462Y4396790D01*
X6076289Y4392269D01*
X6062827Y4386072D01*
X6050229Y4378248D01*
X6038646Y4368952D01*
X6028334Y4358335D01*
X6019393Y4346498D01*
X6011976Y4333646D01*
X6006185Y4319981D01*
X6002629Y4307382D01*
X6000546Y4303522D01*
X5997092Y4300931D01*
X5992825Y4299966D01*
X5988608Y4300931D01*
X5985103Y4303522D01*
X5983071Y4307382D01*
X5979464Y4319981D01*
X5973724Y4333646D01*
X5966307Y4346498D01*
X5957366Y4358335D01*
X5947003Y4368952D01*
X5935472Y4378248D01*
X5922822Y4386072D01*
X5909360Y4392269D01*
X5895238Y4396790D01*
X5880658Y4399483D01*
X5865825Y4400397D01*
X5851042Y4399483D01*
X5836462Y4396790D01*
X5822289Y4392269D01*
X5808827Y4386072D01*
X5796229Y4378248D01*
X5784646Y4368952D01*
X5774334Y4358335D01*
X5765393Y4346498D01*
X5757976Y4333646D01*
X5752185Y4319981D01*
X5748629Y4307382D01*
X5746546Y4303522D01*
X5743092Y4300931D01*
X5738825Y4299966D01*
X5734608Y4300931D01*
X5731103Y4303522D01*
X5729071Y4307382D01*
X5725464Y4319981D01*
X5719724Y4333646D01*
X5712307Y4346498D01*
X5703366Y4358335D01*
X5693003Y4368952D01*
X5681472Y4378248D01*
X5669889Y4385411D01*
X5667349Y4387697D01*
X5665673Y4390694D01*
X5665114Y4394047D01*
X5665114Y4431436D01*
X5665876Y4435348D01*
X5668060Y4438650D01*
X5732526Y4503115D01*
X5735828Y4505299D01*
X5739739Y4506061D01*
X7782712Y4506061D01*
X7786624Y4505299D01*
X7789925Y4503115D01*
X7892034Y4401007D01*
X7894116Y4398010D01*
X7894980Y4394454D01*
X7894574Y4390847D01*
X7892897Y4387596D01*
X7890205Y4385157D01*
X7879029Y4378248D01*
X7867446Y4368952D01*
X7857134Y4358335D01*
X7848193Y4346498D01*
X7840776Y4333646D01*
X7834985Y4319981D01*
X7830921Y4305706D01*
X7828686Y4291025D01*
X7828229Y4276191D01*
X7829550Y4261459D01*
X7832750Y4246930D01*
X7837678Y4232960D01*
X7844281Y4219651D01*
X7852460Y4207306D01*
X7862112Y4196029D01*
X7873085Y4186021D01*
X7885226Y4177487D01*
X7898282Y4170476D01*
X7912100Y4165092D01*
X7926476Y4161485D01*
X7941208Y4159656D01*
X7956042Y4159656D01*
X7970774Y4161485D01*
X7985150Y4165092D01*
X7999018Y4170476D01*
X8012074Y4177487D01*
X8024164Y4186021D01*
X8035137Y4196029D01*
X8044789Y4207306D01*
X8052968Y4219651D01*
X8059623Y4232960D01*
X8064550Y4246930D01*
X8065719Y4252315D01*
X8067294Y4255922D01*
X8070088Y4258665D01*
X8073694Y4260138D01*
X8077606Y4260138D01*
X8081213Y4258665D01*
X8084007Y4255922D01*
X8085581Y4252315D01*
X8086750Y4246930D01*
X8091678Y4232960D01*
X8098281Y4219651D01*
X8106460Y4207306D01*
X8116112Y4196029D01*
X8127085Y4186021D01*
X8139226Y4177487D01*
X8152282Y4170476D01*
X8166100Y4165092D01*
X8180476Y4161485D01*
X8195208Y4159656D01*
X8210042Y4159656D01*
X8224774Y4161485D01*
X8239150Y4165092D01*
X8253018Y4170476D01*
X8266074Y4177487D01*
X8278164Y4186021D01*
X8289137Y4196029D01*
X8298789Y4207306D01*
X8306968Y4219651D01*
X8313623Y4232960D01*
X8318550Y4246930D01*
X8319719Y4252315D01*
X8321294Y4255922D01*
X8324088Y4258665D01*
X8327694Y4260138D01*
X8331606Y4260138D01*
X8335213Y4258665D01*
X8338007Y4255922D01*
X8339581Y4252315D01*
X8340750Y4246930D01*
X8345678Y4232960D01*
X8352281Y4219651D01*
X8360460Y4207306D01*
X8370112Y4196029D01*
X8381085Y4186021D01*
X8386876Y4181957D01*
X8389162Y4179722D01*
X8390636Y4176826D01*
X8391144Y4173677D01*
X8391144Y4057243D01*
X8390382Y4053332D01*
X8388197Y4050080D01*
X8330895Y3992778D01*
X8327644Y3990594D01*
X8323732Y3989832D01*
X7008368Y3989832D01*
X7004456Y3990594D01*
X7001154Y3992778D01*
X6998970Y3996080D01*
X6998208Y3999992D01*
X6998208Y4173728D01*
X6998716Y4176877D01*
X7000189Y4179773D01*
X7002475Y4182008D01*
X7008164Y4186021D01*
X7019137Y4196029D01*
X7028789Y4207306D01*
X7036968Y4219651D01*
X7043623Y4232960D01*
X7048550Y4246930D01*
X7049719Y4252315D01*
X7051294Y4255922D01*
X7054088Y4258665D01*
X7057694Y4260138D01*
X7061606Y4260138D01*
X7065213Y4258665D01*
X7068007Y4255922D01*
X7069581Y4252315D01*
X7070750Y4246930D01*
X7075678Y4232960D01*
X7082281Y4219651D01*
X7090460Y4207306D01*
X7100112Y4196029D01*
X7111085Y4186021D01*
X7123226Y4177487D01*
X7136282Y4170476D01*
X7150100Y4165092D01*
X7164476Y4161485D01*
X7179208Y4159656D01*
X7194042Y4159656D01*
X7208774Y4161485D01*
X7223150Y4165092D01*
X7237018Y4170476D01*
X7250074Y4177487D01*
X7262164Y4186021D01*
X7273137Y4196029D01*
X7282789Y4207306D01*
X7290968Y4219651D01*
X7297623Y4232960D01*
X7302550Y4246930D01*
X7303719Y4252315D01*
X7305294Y4255922D01*
X7308088Y4258665D01*
X7311694Y4260138D01*
X7315606Y4260138D01*
X7319213Y4258665D01*
X7322007Y4255922D01*
X7323581Y4252315D01*
X7324750Y4246930D01*
X7329678Y4232960D01*
X7336281Y4219651D01*
X7344460Y4207306D01*
X7354112Y4196029D01*
X7365085Y4186021D01*
X7377226Y4177487D01*
X7390282Y4170476D01*
X7404100Y4165092D01*
X7418476Y4161485D01*
X7433208Y4159656D01*
X7448042Y4159656D01*
X7462774Y4161485D01*
X7477150Y4165092D01*
X7491018Y4170476D01*
X7504074Y4177487D01*
X7516164Y4186021D01*
X7527137Y4196029D01*
X7536789Y4207306D01*
X7544968Y4219651D01*
X7551623Y4232960D01*
X7556550Y4246930D01*
X7559700Y4261459D01*
X7561072Y4276191D01*
X7560614Y4291025D01*
X7558328Y4305706D01*
X7554264Y4319981D01*
X7548524Y4333646D01*
X7541107Y4346498D01*
X7532166Y4358335D01*
X7521803Y4368952D01*
X7510272Y4378248D01*
X7497622Y4386072D01*
X7484160Y4392269D01*
X7470038Y4396790D01*
X7455458Y4399483D01*
X7440625Y4400397D01*
X7425842Y4399483D01*
X7411262Y4396790D01*
X7397089Y4392269D01*
X7383627Y4386072D01*
X7371029Y4378248D01*
X7359446Y4368952D01*
X7349134Y4358335D01*
X7340193Y4346498D01*
X7332776Y4333646D01*
X7326985Y4319981D01*
X7323429Y4307382D01*
X7321346Y4303522D01*
X7317892Y4300931D01*
X7313625Y4299966D01*
X7309408Y4300931D01*
X7305903Y4303522D01*
X7303871Y4307382D01*
X7300264Y4319981D01*
X7294524Y4333646D01*
X7287107Y4346498D01*
X7278166Y4358335D01*
X7267803Y4368952D01*
X7256272Y4378248D01*
X7243622Y4386072D01*
X7230160Y4392269D01*
X7216038Y4396790D01*
X7201458Y4399483D01*
X7186625Y4400397D01*
X7171842Y4399483D01*
X7157262Y4396790D01*
X7143089Y4392269D01*
X7129627Y4386072D01*
X7117029Y4378248D01*
X7105446Y4368952D01*
X7095134Y4358335D01*
X7086193Y4346498D01*
X7078776Y4333646D01*
X7072985Y4319981D01*
X7069429Y4307382D01*
X7067346Y4303522D01*
X7063892Y4300931D01*
X7059625Y4299966D01*
X7055408Y4300931D01*
X7051903Y4303522D01*
X7049871Y4307382D01*
X7046264Y4319981D01*
X7040524Y4333646D01*
X7033107Y4346498D01*
X7024166Y4358335D01*
X7013803Y4368952D01*
X7002272Y4378248D01*
X6989622Y4386072D01*
X6976160Y4392269D01*
X6962038Y4396790D01*
X6947458Y4399483D01*
X6932625Y4400397D01*
X6917842Y4399483D01*
X6903262Y4396790D01*
X6889089Y4392269D01*
X6875627Y4386072D01*
X6863029Y4378248D01*
X6851446Y4368952D01*
X6841134Y4358335D01*
X6832193Y4346498D01*
X6824776Y4333646D01*
X6818985Y4319981D01*
X6814921Y4305706D01*
X6812686Y4291025D01*
X6812229Y4276191D01*
X6813550Y4261459D01*
X6816750Y4246930D01*
X6821678Y4232960D01*
X6828281Y4219651D01*
X6836460Y4207306D01*
X6846112Y4196029D01*
X6857085Y4186021D01*
X6862876Y4181957D01*
X6865162Y4179722D01*
X6866636Y4176826D01*
X6867144Y4173677D01*
X6867144Y3999992D01*
X6866381Y3996080D01*
X6864197Y3992778D01*
X6860895Y3990594D01*
X6856984Y3989832D01*
G37*

%LPC*%
G36*
X7741005Y4168901D02*
G01*
X7745018Y4170476D01*
X7758074Y4177487D01*
X7770164Y4186021D01*
X7781137Y4196029D01*
X7790789Y4207306D01*
X7798968Y4219651D01*
X7805826Y4233570D01*
X7741005Y4233570D01*
G37*
G36*
X7648295Y4168901D02*
G01*
X7648295Y4233570D01*
X7583474Y4233570D01*
X7590281Y4219651D01*
X7598460Y4207306D01*
X7608112Y4196029D01*
X7619085Y4186021D01*
X7631226Y4177487D01*
X7644282Y4170476D01*
G37*
G36*
X7741005Y4326280D02*
G01*
X7805623Y4326280D01*
X7802524Y4333646D01*
X7795107Y4346498D01*
X7786166Y4358335D01*
X7775803Y4368952D01*
X7764272Y4378248D01*
X7751622Y4386072D01*
X7741005Y4390999D01*
G37*
G36*
X7583678Y4326280D02*
G01*
X7648295Y4326280D01*
X7648295Y4390999D01*
X7637627Y4386072D01*
X7625029Y4378248D01*
X7613446Y4368952D01*
X7603134Y4358335D01*
X7594193Y4346498D01*
X7586776Y4333646D01*
G37*

%LPD*%
D11*
X8164576Y883665D02*
G01*
X8166100Y584200D01*
D21*
X4595876Y4279900D02*
G01*
X4443476Y4279900D01*
X4443476Y4699000D01*
X4392676Y4749800D01*
X2525776Y4749800D01*
X2309876Y4533900D01*
X2309876Y1765300D01*
X2043176Y1498600D01*
X1552798Y1498600D01*
X1547876Y1503530D01*
X8456676Y4279900D02*
G01*
X8456676Y4025900D01*
X8355076Y3924300D01*
X4684776Y3924300D01*
X4443476Y4165600D01*
X4443476Y4279900D01*
X4595876Y4279900D01*
X6119876Y4279900D02*
G01*
X6119876Y3924300D01*
X6932676Y4279900D02*
G01*
X6932676Y3924300D01*
D10*
X6030976Y4686300D02*
G01*
X7961376Y4686300D01*
X8202676Y4445000D01*
X8202676Y4279900D01*
X7948676Y4279900D02*
G01*
X7948676Y4419600D01*
X7808976Y4559300D01*
X5713476Y4559300D01*
X5611876Y4457700D01*
X5611876Y4279900D01*
X8710676Y4279900D02*
G01*
X8710676Y4445000D01*
X8355076Y4800600D01*
X5307076Y4800600D01*
X5103876Y4597400D01*
X5103876Y4279900D01*
D21*
X8355076Y3924300D02*
G01*
X8761476Y3924300D01*
X9104376Y3581400D01*
X9104376Y1447800D01*
X8545576Y889000D01*
X8169884Y889000D01*
X8164576Y883691D01*
D10*
X5637276Y2654300D02*
G01*
X7834376Y2654300D01*
X7910576Y2578100D01*
X7910576Y2443734D01*
X5840476Y2743200D02*
G01*
X7999476Y2743200D01*
X8164576Y2578100D01*
X8164576Y2443734D01*
X4849876Y3517900D02*
G01*
X4849876Y3378200D01*
X5154676Y3073400D01*
X8405876Y3073400D01*
X8761476Y2717800D01*
X8761476Y2044700D01*
X8367776Y1651000D01*
X6665976Y1651000D01*
X6386576Y1371600D01*
X6386576Y883691D01*
X5180076Y2971800D02*
G01*
X5180076Y2959100D01*
X8367776Y2959100D01*
X8647176Y2679700D01*
X8647176Y2070100D01*
X8329676Y1752600D01*
X7567676Y1752600D01*
X5611876Y3517900D02*
G01*
X5611876Y3378200D01*
X5713476Y3276600D01*
X8494776Y3276600D01*
X8939276Y2832100D01*
X8939276Y1968500D01*
X8418576Y1447800D01*
X7732776Y1447800D01*
X7656576Y1371600D01*
X7656576Y883665D01*
X5103876Y3517900D02*
G01*
X5103876Y3365500D01*
X5294376Y3175000D01*
X8456676Y3175000D01*
X8850376Y2781300D01*
X8850376Y2006600D01*
X8393176Y1549400D01*
X7072376Y1549400D01*
X6894576Y1371600D01*
X6894576Y883665D01*
X5624576Y2443708D02*
G01*
X5624576Y2171700D01*
X5522976Y2070100D01*
X4443476Y2070100D01*
X4011676Y2501900D01*
X3089498Y2501900D01*
X3071876Y2519530D01*
X5370576Y2443708D02*
G01*
X5370576Y2222500D01*
X5307076Y2159000D01*
X4519676Y2159000D01*
X3905153Y2773530D01*
X3071876Y2773530D01*
X5116576Y2443708D02*
G01*
X5116576Y2298700D01*
X5065776Y2247900D01*
X4595876Y2247900D01*
X3833876Y3009900D01*
X3089498Y3009900D01*
X3071876Y3027530D01*
X5815076Y444500D02*
G01*
X6373876Y444500D01*
X6640576Y711200D01*
X6640576Y883665D01*
X4595876Y3517900D02*
G01*
X4595876Y3340100D01*
X5078476Y2857500D01*
X8278876Y2857500D01*
X8532876Y2603500D01*
X8532876Y2095500D01*
X8291576Y1854200D01*
X7275576Y1854200D01*
G36*
X8095475Y651700D02*
G01*
X8095475Y516699D01*
X8236475Y516699D01*
X8236475Y651700D01*
G37*
G36*
X8030476Y651700D02*
G01*
X8030476Y516699D01*
X7889476Y516699D01*
X7889476Y651700D01*
G37*
D15*
G01*
X8164576Y883691D03*
G01*
X7910576Y883691D03*
G01*
X7656576Y883691D03*
G01*
X7402576Y883691D03*
G01*
X7148576Y883691D03*
G01*
X6894576Y883691D03*
G01*
X6640576Y883691D03*
G01*
X6386576Y883691D03*
G01*
X6132576Y883691D03*
G01*
X5878576Y883691D03*
G01*
X5624576Y883691D03*
G01*
X5370576Y883691D03*
G01*
X5116576Y883691D03*
G01*
X4862576Y883691D03*
G01*
X4862576Y2443708D03*
G01*
X5116576Y2443708D03*
G01*
X5370576Y2443708D03*
G01*
X5624576Y2443708D03*
G01*
X5878576Y2443708D03*
G01*
X6132576Y2443708D03*
G01*
X6386576Y2443708D03*
G01*
X6894576Y2443708D03*
G01*
X7148576Y2443708D03*
G01*
X7402576Y2443708D03*
G01*
X7656576Y2443708D03*
G01*
X7910576Y2443708D03*
G01*
X6640576Y2443708D03*
G36*
X8254492Y2353790D02*
G01*
X8074660Y2353790D01*
X8074660Y2533622D01*
X8254492Y2533622D01*
G37*
D17*
G01*
X6932676Y4279900D03*
G01*
X7186676Y4279900D03*
G01*
X7440676Y4279900D03*
G01*
X7694676Y4279900D03*
G01*
X7948676Y4279900D03*
G01*
X8202676Y4279900D03*
G01*
X8456676Y4279900D03*
G01*
X8710676Y4279900D03*
G01*
X8710676Y3517900D03*
G01*
X8456676Y3517900D03*
G01*
X8202676Y3517900D03*
G01*
X7948676Y3517900D03*
G01*
X7694676Y3517900D03*
G01*
X7440676Y3517900D03*
G01*
X7186676Y3517900D03*
D18*
G01*
X6932676Y3517900D03*
D17*
G01*
X4595876Y4279900D03*
G01*
X4849876Y4279900D03*
G01*
X5103876Y4279900D03*
G01*
X5357876Y4279900D03*
G01*
X5611876Y4279900D03*
G01*
X5865876Y4279900D03*
G01*
X6119876Y4279900D03*
G01*
X6373876Y4279900D03*
G01*
X6373876Y3517900D03*
G01*
X6119876Y3517900D03*
G01*
X5865876Y3517900D03*
G01*
X5611876Y3517900D03*
G01*
X5357876Y3517900D03*
G01*
X5103876Y3517900D03*
G01*
X4849876Y3517900D03*
D18*
G01*
X4595876Y3517900D03*
D19*
G01*
X3071876Y741527D03*
G01*
X3071876Y995527D03*
G01*
X3071876Y1249527D03*
G01*
X3071876Y1503527D03*
G01*
X3071876Y1757527D03*
G01*
X3071876Y2011527D03*
G01*
X3071876Y2265527D03*
G01*
X3071876Y2519527D03*
G01*
X3071876Y2773527D03*
G01*
X3071876Y3027527D03*
G01*
X3071876Y3281527D03*
G01*
X3071876Y3535527D03*
G01*
X3071876Y3789527D03*
G01*
X3071876Y4043527D03*
G01*
X3071876Y4297527D03*
G01*
X1547876Y4297527D03*
G01*
X1547876Y4043527D03*
G01*
X1547876Y3789527D03*
G01*
X1547876Y3535527D03*
G01*
X1547876Y3281527D03*
G01*
X1547876Y3027527D03*
G01*
X1547876Y2773527D03*
G01*
X1547876Y2519527D03*
G01*
X1547876Y2265527D03*
G01*
X1547876Y2011527D03*
G01*
X1547876Y1757527D03*
G01*
X1547876Y1503527D03*
G01*
X1547876Y1249527D03*
G01*
X1547876Y995527D03*
G01*
X1547876Y741527D03*
D20*
G01*
X608076Y393700D03*
G01*
X608076Y5156200D03*
G01*
X9193276Y5130800D03*
D12*
G01*
X6030976Y4686300D03*
G01*
X5840476Y2743200D03*
G01*
X5637276Y2654300D03*
G01*
X7275576Y1854200D03*
G01*
X5180076Y2971800D03*
G01*
X7567676Y1752600D03*
G01*
X5815076Y444500D03*
G01*
X3744976Y1879600D03*
G01*
X3744976Y1790700D03*
G01*
X3744976Y1701800D03*
G01*
X3656076Y1879600D03*
G01*
X3656076Y1790700D03*
G01*
X3656076Y1701800D03*
G01*
X8926576Y3327400D03*
G01*
X8926576Y3238500D03*
G01*
X8926576Y3149600D03*
G01*
X8837676Y3149600D03*
G01*
X8837676Y3238500D03*
G01*
X8837676Y3327400D03*
G01*
X6704076Y4267200D03*
G01*
X6704076Y4178300D03*
G01*
X6704076Y4089400D03*
G01*
X6615176Y4089400D03*
G01*
X6615176Y4178300D03*
G01*
X6615176Y4267200D03*
G01*
X6589776Y3695700D03*
G01*
X6500876Y3695700D03*
G01*
X6411976Y3695700D03*
G01*
X6411976Y3784600D03*
G01*
X6500876Y3784600D03*
G01*
X6589776Y3784600D03*
G01*
X4862576Y4508500D03*
G01*
X4773676Y4508500D03*
G01*
X4684776Y4508500D03*
G01*
X4684776Y4597400D03*
G01*
X4773676Y4597400D03*
G01*
X4862576Y4597400D03*
G01*
X4291076Y4495800D03*
G01*
X4202176Y4495800D03*
G01*
X4113276Y4495800D03*
G01*
X4113276Y4584700D03*
G01*
X4202176Y4584700D03*
G01*
X4291076Y4584700D03*
G01*
X8507476Y673100D03*
G01*
X8507476Y584200D03*
G01*
X8507476Y495300D03*
G01*
X8418576Y495300D03*
G01*
X8418576Y584200D03*
G01*
X8418576Y673100D03*
G01*
X2754376Y1600200D03*
G01*
X2754376Y1511300D03*
G01*
X2754376Y1422400D03*
G01*
X2665476Y1422400D03*
G01*
X2665476Y1511300D03*
G01*
X2665476Y1600200D03*
G01*
X1966976Y1104900D03*
G01*
X1966976Y1016000D03*
G01*
X1966976Y927100D03*
G01*
X1878076Y927100D03*
G01*
X1878076Y1016000D03*
G01*
X1878076Y1104900D03*
G01*
X4722876Y2692400D03*
G01*
X4633976Y2692400D03*
G01*
X4545076Y2692400D03*
G01*
X4545076Y2781300D03*
G01*
X4633976Y2781300D03*
G01*
X4722876Y2781300D03*
G01*
X9180576Y4076700D03*
G01*
X9091676Y4076700D03*
G01*
X9002776Y4076700D03*
G01*
X9002776Y4165600D03*
G01*
X9091676Y4165600D03*
G01*
X9180576Y4165600D03*
G01*
X7605776Y4076700D03*
G01*
X7694676Y4076700D03*
G01*
X7783576Y4076700D03*
G01*
X8202676Y1993900D03*
G01*
X8113776Y1993900D03*
G01*
X8113776Y2082800D03*
G01*
X8113776Y2171700D03*
G01*
X8202676Y2171700D03*
G01*
X8202676Y2082800D03*
G01*
X1878076Y1955800D03*
G01*
X1966976Y1955800D03*
G01*
X1966976Y1866900D03*
G01*
X1966976Y1778000D03*
G01*
X1878076Y1778000D03*
G01*
X1878076Y1866900D03*
G01*
X1966976Y3441700D03*
G01*
X1878076Y3441700D03*
G01*
X1878076Y3530600D03*
G01*
X1878076Y3619500D03*
G01*
X1966976Y3619500D03*
G01*
X1966976Y3530600D03*
G01*
X2754376Y3441700D03*
G01*
X2665476Y3441700D03*
G01*
X2665476Y3530600D03*
G01*
X2665476Y3619500D03*
G01*
X2754376Y3619500D03*
G01*
X2754376Y3530600D03*
G01*
X4456176Y812800D03*
G01*
X4545076Y812800D03*
G01*
X4545076Y723900D03*
G01*
X4545076Y635000D03*
G01*
X4456176Y635000D03*
G01*
X4456176Y723900D03*
G01*
X5268976Y4076700D03*
G01*
X5357876Y4076700D03*
G01*
X5446776Y4076700D03*
G01*
X5268976Y4508500D03*
G01*
X5357876Y4508500D03*
G01*
X5446776Y4508500D03*
G01*
X7999476Y1206500D03*
G01*
X7910576Y1206500D03*
G01*
X7821676Y1206500D03*
G01*
X7821676Y1295400D03*
G01*
X7910576Y1295400D03*
G01*
X7999476Y1295400D03*
G01*
X7605776Y3733800D03*
G01*
X7694676Y3733800D03*
G01*
X7783576Y3733800D03*
G01*
X5268976Y3721100D03*
G01*
X5357876Y3721100D03*
G01*
X5446776Y3721100D03*
G01*
X5611876Y1765300D03*
G01*
X5522976Y1765300D03*
G01*
X5434076Y1765300D03*
G01*
X5434076Y1854200D03*
G01*
X5522976Y1854200D03*
G01*
X5611876Y1854200D03*
G01*
X7656576Y546100D03*
G01*
X7567676Y546100D03*
G01*
X7478776Y546100D03*
G01*
X7478776Y635000D03*
G01*
X7567676Y635000D03*
G01*
X7656576Y635000D03*
G01*
X8863076Y1701800D03*
G01*
X8863076Y1612900D03*
G01*
X8863076Y1524000D03*
G01*
X8951976Y1524000D03*
G01*
X8951976Y1612900D03*
G01*
X8951976Y1701800D03*
G01*
X9371076Y1689100D03*
G01*
X9371076Y1600200D03*
G01*
X9371076Y1511300D03*
G01*
X9459976Y1511300D03*
G01*
X9459976Y1600200D03*
G01*
X9459976Y1689100D03*
M02*
