M48
METRIC,LZ,000.000
;FILE_FORMAT=3:3
;TYPE=PLATED
;Layer: Drill PTH
;Gerber Generator version 0.2
;Holesize 1 = 0.305 mm
T01C0.305
;Holesize 2 = 1.000 mm
T02C1.000
;Holesize 3 = 1.016 mm
T03C1.016
;Holesize 4 = 1.200 mm
T04C1.200
;Holesize 5 = 4.000 mm
T05C4.000
%
G05
G90
T01
X060310Y046863
X058405Y027432
X056373Y026543
X072756Y018542
X051801Y029718
X075677Y017526
X058151Y004445
X037450Y018796
X037450Y017907
X037450Y017018
X036561Y018796
X036561Y017907
X036561Y017018
X089266Y033274
X089266Y032385
X089266Y031496
X088377Y031496
X088377Y032385
X088377Y033274
X067041Y042672
X067041Y041783
X067041Y040894
X066152Y040894
X066152Y041783
X066152Y042672
X065898Y036957
X065009Y036957
X064120Y036957
X064120Y037846
X065009Y037846
X065898Y037846
X048626Y045085
X047737Y045085
X046848Y045085
X046848Y045974
X047737Y045974
X048626Y045974
X042911Y044958
X042022Y044958
X041133Y044958
X041133Y045847
X042022Y045847
X042911Y045847
X085075Y006731
X085075Y005842
X085075Y004953
X084186Y004953
X084186Y005842
X084186Y006731
X027544Y016002
X027544Y015113
X027544Y014224
X026655Y014224
X026655Y015113
X026655Y016002
X019670Y011049
X019670Y010160
X019670Y009271
X018781Y009271
X018781Y010160
X018781Y011049
X047229Y026924
X046340Y026924
X045451Y026924
X045451Y027813
X046340Y027813
X047229Y027813
X091806Y040767
X090917Y040767
X090028Y040767
X090028Y041656
X090917Y041656
X091806Y041656
X076058Y040767
X076947Y040767
X077836Y040767
X082027Y019939
X081138Y019939
X081138Y020828
X081138Y021717
X082027Y021717
X082027Y020828
X018781Y019558
X019670Y019558
X019670Y018669
X019670Y017780
X018781Y017780
X018781Y018669
X019670Y034417
X018781Y034417
X018781Y035306
X018781Y036195
X019670Y036195
X019670Y035306
X027544Y034417
X026655Y034417
X026655Y035306
X026655Y036195
X027544Y036195
X027544Y035306
X044562Y008128
X045451Y008128
X045451Y007239
X045451Y006350
X044562Y006350
X044562Y007239
X052690Y040767
X053579Y040767
X054468Y040767
X052690Y045085
X053579Y045085
X054468Y045085
X079995Y012065
X079106Y012065
X078217Y012065
X078217Y012954
X079106Y012954
X079995Y012954
X076058Y037338
X076947Y037338
X077836Y037338
X052690Y037211
X053579Y037211
X054468Y037211
X056119Y017653
X055230Y017653
X054341Y017653
X054341Y018542
X055230Y018542
X056119Y018542
X076566Y005461
X075677Y005461
X074788Y005461
X074788Y006350
X075677Y006350
X076566Y006350
X088631Y017018
X088631Y016129
X088631Y015240
X089520Y015240
X089520Y016129
X089520Y017018
X093711Y016891
X093711Y016002
X093711Y015113
X094600Y015113
X094600Y016002
X094600Y016891
T02
X069326Y042799
X071866Y042799
X074406Y042799
X076946Y042799
X079486Y042799
X082026Y042799
X084566Y042799
X087106Y042799
X087106Y035179
X084566Y035179
X082026Y035179
X079486Y035179
X076946Y035179
X074406Y035179
X071866Y035179
X069327Y035179
X045958Y042799
X048498Y042799
X051038Y042799
X053578Y042799
X056118Y042799
X058658Y042799
X061198Y042799
X063738Y042799
X063738Y035179
X061198Y035179
X058658Y035179
X056118Y035179
X053578Y035179
X051038Y035179
X048498Y035179
X045959Y035179
T03
X030719Y007415
X030719Y009955
X030719Y012495
X030719Y015035
X030719Y017575
X030719Y020115
X030719Y022655
X030719Y025195
X030719Y027735
X030719Y030275
X030719Y032815
X030719Y035355
X030719Y037895
X030719Y040435
X030719Y042975
X015479Y042975
X015479Y040435
X015479Y037895
X015479Y035355
X015479Y032815
X015479Y030275
X015479Y027735
X015479Y025195
X015479Y022655
X015479Y020115
X015479Y017575
X015479Y015035
X015479Y012495
X015479Y009955
X015479Y007415
T04
X081646Y008837
X079106Y008837
X076566Y008837
X074026Y008837
X071486Y008837
X068946Y008837
X066406Y008837
X063866Y008837
X061326Y008837
X058786Y008837
X056246Y008837
X053706Y008837
X051166Y008837
X048626Y008837
X048626Y024437
X051166Y024437
X053706Y024437
X056246Y024437
X058786Y024437
X061326Y024437
X063866Y024437
X068946Y024437
X071486Y024437
X074026Y024437
X076566Y024437
X079106Y024437
X066406Y024437
X081646Y024437
T05
X006081Y003937
X006081Y051562
X091933Y051308
M30
