G04 Layer: BottomSilkLayer*
G04 Gerber Generator version 0.2*
G04 Scale: 100 percent, Rotated: No, Reflected: No *
G04 Dimensions in millimeters *
G04 leading zeros omitted , absolute positions ,4 integer and 5 decimal *
%FSLAX45Y45*%
%MOMM*%

%ADD23C,0.1524*%

%LPD*%
D23*
X8169904Y424942D02*
G01*
X8175238Y435355D01*
X8185652Y445770D01*
X8195812Y450850D01*
X8216640Y450850D01*
X8227054Y445770D01*
X8237468Y435355D01*
X8242802Y424942D01*
X8247882Y409194D01*
X8247882Y383286D01*
X8242802Y367792D01*
X8237468Y357378D01*
X8227054Y346963D01*
X8216640Y341884D01*
X8195812Y341884D01*
X8185652Y346963D01*
X8175238Y357378D01*
X8169904Y367792D01*
X8125200Y450850D02*
G01*
X8068050Y450850D01*
X8099292Y409194D01*
X8083798Y409194D01*
X8073384Y404113D01*
X8068050Y399034D01*
X8062970Y383286D01*
X8062970Y372871D01*
X8068050Y357378D01*
X8078464Y346963D01*
X8094212Y341884D01*
X8109706Y341884D01*
X8125200Y346963D01*
X8130534Y352044D01*
X8135614Y362457D01*
X8244095Y493839D02*
G01*
X8103095Y493839D01*
X8103095Y674560D02*
G01*
X8244095Y674560D01*
X8259335Y659320D02*
G01*
X8259335Y509079D01*
X7881856Y493839D02*
G01*
X8022856Y493839D01*
X8022856Y674560D02*
G01*
X7881856Y674560D01*
X7866616Y659320D02*
G01*
X7866616Y509079D01*
G75*
G01*
X7866616Y509080D02*
G03*
X7881856Y493840I15240J0D01*
G75*
G01*
X8244096Y674560D02*
G02*
X8259336Y659320I0J-15240D01*
G75*
G01*
X8259336Y509080D02*
G02*
X8244096Y493840I-15240J0D01*
G75*
G01*
X7881856Y674560D02*
G03*
X7866616Y659320I0J-15240D01*
M02*
